<svg id="svg" version="1.1" xmlns="http://www.w3.org/2000/svg" xmlns:xlink="http://www.w3.org/1999/xlink" width="400" height="400" viewBox="0, 0, 400,400"><g id="svgg"><path id="path0" d="M124.662 81.771 C 120.625 83.243,119.096 86.382,119.213 92.959 C 119.372 101.949,118.823 104.693,117.004 104.002 C 113.110 102.521,79.396 103.996,78.846 105.671 C 78.750 105.962,77.990 106.830,77.157 107.600 C 76.324 108.370,75.185 109.990,74.625 111.200 L 73.608 113.400 73.604 137.476 C 73.601 152.498,73.745 161.642,73.986 161.791 C 74.577 162.157,325.730 162.030,326.096 161.664 C 326.273 161.487,326.369 150.188,326.309 136.555 L 326.200 111.768 325.200 110.458 C 321.797 106.003,320.177 104.762,317.113 104.269 C 313.926 103.756,286.105 103.598,283.482 104.078 C 282.131 104.325,281.924 104.252,281.606 103.417 C 281.410 102.900,281.070 102.367,280.851 102.231 C 280.598 102.075,280.530 99.539,280.666 95.283 C 281.026 84.002,278.329 80.043,271.290 81.519 C 265.921 82.645,264.715 85.035,264.825 94.319 C 264.925 102.808,264.395 104.678,262.043 104.134 C 260.181 103.703,140.330 103.695,138.158 104.125 C 135.614 104.629,135.269 103.541,135.251 94.952 C 135.227 83.795,131.576 79.251,124.662 81.771 M268.000 197.604 L 268.000 206.408 285.300 206.304 L 302.600 206.200 302.708 197.500 L 302.816 188.800 285.408 188.800 L 268.000 188.800 268.000 197.604 " stroke="none" fill="#34afb6" fill-rule="evenodd"></path><path id="path1" d="M158.273 0.261 C 157.982 0.552,151.724 0.914,135.600 1.574 C 129.990 1.803,122.790 2.177,119.600 2.405 C 105.108 3.437,92.782 4.449,90.400 4.800 C 88.970 5.011,86.000 5.373,83.800 5.605 C 81.600 5.837,78.990 6.186,78.000 6.380 C 77.010 6.574,74.850 6.937,73.200 7.186 C 68.711 7.864,63.155 8.972,59.000 10.018 C 57.460 10.405,55.390 10.852,54.400 11.009 C 53.410 11.167,51.970 11.524,51.200 11.802 C 50.430 12.080,48.900 12.580,47.800 12.912 C 34.619 16.892,24.294 24.588,18.969 34.400 C 18.551 35.170,18.016 36.070,17.779 36.400 C 17.543 36.730,17.063 37.720,16.711 38.600 C 16.360 39.480,15.586 41.400,14.991 42.867 C 12.872 48.086,10.064 59.885,8.818 68.800 C 8.557 70.670,8.191 73.100,8.005 74.200 C 7.169 79.144,6.053 88.537,4.798 101.200 C 3.612 113.171,2.509 130.240,1.787 147.800 C 1.461 155.720,0.983 165.620,0.725 169.800 C 0.093 180.029,0.094 237.941,0.727 248.400 C 0.987 252.690,1.465 261.976,1.790 269.035 C 2.648 287.704,4.156 305.914,5.860 318.200 C 6.196 320.620,6.553 323.320,6.655 324.200 C 6.756 325.080,7.000 326.430,7.196 327.200 C 7.392 327.970,7.742 329.680,7.974 331.000 C 8.206 332.320,8.690 334.840,9.048 336.600 C 9.407 338.360,9.853 340.610,10.040 341.600 C 10.413 343.583,10.712 344.747,11.987 349.200 C 12.459 350.850,12.991 352.740,13.168 353.400 C 14.410 358.030,18.942 366.856,21.837 370.285 C 32.079 382.413,46.682 388.483,74.600 392.216 C 84.181 393.497,91.911 394.380,97.200 394.796 C 100.170 395.029,103.950 395.392,105.600 395.601 C 107.250 395.811,112.830 396.255,118.000 396.587 C 123.170 396.920,129.650 397.374,132.400 397.595 C 135.150 397.817,142.710 398.186,149.200 398.415 C 155.690 398.645,164.420 399.036,168.600 399.285 C 179.092 399.909,237.723 399.916,248.600 399.294 C 253.220 399.030,261.500 398.626,267.000 398.396 C 272.500 398.167,279.340 397.799,282.200 397.580 C 285.060 397.360,289.830 397.008,292.800 396.798 C 308.916 395.657,327.289 393.218,338.200 390.772 C 343.611 389.559,345.300 389.155,346.400 388.811 C 346.950 388.640,348.390 388.284,349.600 388.022 C 350.810 387.759,352.160 387.396,352.600 387.215 C 353.040 387.035,355.560 386.029,358.200 384.982 C 365.578 382.054,368.267 380.386,372.843 375.899 C 377.014 371.810,381.600 365.862,381.600 364.541 C 381.600 364.388,381.843 363.979,382.141 363.631 C 383.346 362.225,386.235 354.528,388.009 348.000 C 388.604 345.808,390.896 333.794,391.977 327.200 C 393.527 317.738,395.741 295.649,396.807 279.000 C 397.032 275.480,397.389 270.170,397.600 267.200 C 397.811 264.230,398.170 256.220,398.397 249.400 C 398.624 242.580,399.031 233.670,399.302 229.600 C 399.981 219.377,399.976 164.100,399.295 153.680 C 399.018 149.435,398.617 140.615,398.405 134.080 C 398.193 127.546,397.838 120.400,397.617 118.200 C 397.396 116.000,396.845 109.340,396.392 103.400 C 395.939 97.460,395.408 91.520,395.211 90.200 C 395.015 88.880,394.648 85.910,394.396 83.600 C 393.849 78.575,392.307 69.184,391.211 64.200 C 390.776 62.220,390.037 58.800,389.569 56.600 C 388.777 52.877,387.246 47.655,386.403 45.800 C 386.202 45.360,385.570 43.650,384.998 42.000 C 379.934 27.409,366.779 16.728,348.400 12.287 C 338.717 9.948,336.228 9.453,328.000 8.237 C 327.230 8.124,325.430 7.848,324.000 7.624 C 319.171 6.870,302.105 4.995,294.600 4.395 C 283.205 3.483,258.183 1.967,247.829 1.561 C 241.653 1.319,233.450 0.941,229.600 0.722 C 221.535 0.261,158.678 -0.145,158.273 0.261 M131.735 82.664 C 134.541 84.480,135.208 86.802,135.312 95.114 L 135.400 102.150 136.600 102.460 C 137.261 102.631,165.701 102.733,199.800 102.686 C 262.963 102.598,262.769 102.603,264.766 101.308 C 264.858 101.249,264.891 98.149,264.839 94.420 C 264.709 85.028,265.898 82.650,271.290 81.519 C 278.309 80.047,280.955 83.922,280.733 95.346 L 280.600 102.164 282.000 102.456 C 282.770 102.617,290.810 102.743,299.866 102.736 C 318.777 102.722,319.624 102.832,322.798 105.717 C 326.075 108.697,326.760 110.123,327.173 114.833 C 327.730 121.190,327.092 311.109,326.509 312.458 C 325.568 314.635,321.639 318.328,319.355 319.183 C 316.686 320.181,84.968 320.536,81.500 319.547 C 77.596 318.434,73.901 314.320,73.222 310.332 C 72.535 306.294,72.402 114.140,73.085 111.840 C 74.353 107.568,77.067 104.717,80.994 103.530 C 83.650 102.727,84.695 102.679,100.591 102.641 L 117.383 102.600 118.379 100.800 C 119.323 99.094,119.370 98.713,119.270 93.522 C 119.072 83.266,124.867 78.219,131.735 82.664 " stroke="none" fill="#e37474" fill-rule="evenodd"></path><path id="path2" d="M-0.000 85.467 C -0.000 132.473,0.098 170.835,0.218 170.715 C 0.338 170.596,0.612 165.751,0.826 159.949 C 1.355 145.641,1.915 133.767,2.388 126.800 C 3.493 110.511,4.229 101.216,4.810 96.200 C 5.039 94.220,5.394 91.070,5.600 89.200 C 10.200 47.350,16.382 30.669,31.200 20.127 C 38.056 15.250,46.853 12.038,62.200 8.809 C 64.400 8.346,66.920 7.805,67.800 7.607 C 68.680 7.409,70.120 7.138,71.000 7.006 C 71.880 6.873,73.680 6.591,75.000 6.379 C 82.683 5.146,93.768 3.851,102.200 3.201 C 119.031 1.905,125.675 1.515,143.171 0.794 C 148.545 0.572,153.030 0.303,153.138 0.196 C 153.245 0.088,118.833 0.000,76.667 0.000 L 0.000 0.000 -0.000 85.467 M228.863 0.196 C 228.970 0.304,234.085 0.578,240.229 0.805 C 254.787 1.344,265.520 1.863,273.200 2.399 C 291.008 3.644,293.257 3.821,303.600 4.796 C 365.527 10.630,381.772 20.373,389.973 56.600 C 391.887 65.054,391.931 65.251,392.362 67.400 C 393.271 71.933,393.617 74.032,394.210 78.600 C 394.553 81.240,395.017 84.750,395.241 86.400 C 396.844 98.189,398.199 117.666,399.206 143.389 C 399.447 149.543,399.724 154.658,399.822 154.755 C 399.920 154.853,400.000 120.073,400.000 77.467 L 400.000 0.000 314.333 0.000 C 267.217 0.000,228.755 0.088,228.863 0.196 M73.584 163.300 C 73.259 173.185,73.732 310.529,74.094 311.597 C 74.895 313.959,77.908 317.199,80.382 318.360 L 82.600 319.400 198.400 319.514 C 322.114 319.635,317.948 319.700,320.986 317.610 C 322.841 316.333,325.600 313.166,325.600 312.313 C 325.600 312.009,325.825 311.535,326.100 311.260 C 326.615 310.745,327.112 165.752,326.607 163.700 L 326.385 162.800 199.992 162.800 C 99.154 162.800,73.597 162.901,73.584 163.300 M302.767 188.161 C 303.090 188.550,303.233 191.453,303.233 197.661 L 303.233 206.600 285.316 206.600 L 267.400 206.600 267.400 197.400 L 267.400 188.200 284.600 187.994 C 294.060 187.880,301.913 187.745,302.051 187.694 C 302.189 187.642,302.511 187.852,302.767 188.161 M246.067 188.882 C 246.928 190.206,246.375 206.392,245.461 206.613 C 244.987 206.728,236.984 206.772,227.675 206.711 L 210.751 206.600 210.749 197.600 L 210.747 188.600 212.873 188.400 C 217.735 187.943,245.721 188.349,246.067 188.882 M189.400 197.600 L 189.400 206.600 172.024 206.704 C 162.468 206.762,154.498 206.658,154.314 206.474 C 154.072 206.232,153.810 192.109,153.984 188.696 C 153.993 188.529,161.965 188.439,171.700 188.496 L 189.400 188.600 189.400 197.600 M132.158 228.732 C 132.476 229.247,132.545 246.242,132.231 246.750 C 132.032 247.072,127.067 247.200,114.790 247.200 C 95.429 247.200,96.827 247.452,97.020 244.000 C 97.076 243.010,97.139 239.095,97.160 235.300 L 97.200 228.400 114.576 228.400 C 124.133 228.400,132.045 228.550,132.158 228.732 M189.186 229.174 C 189.834 230.384,189.736 246.189,189.078 246.735 C 188.409 247.290,154.566 247.391,154.224 246.839 C 153.806 246.162,153.638 229.876,154.042 229.121 C 154.664 227.959,188.563 228.010,189.186 229.174 M245.920 228.880 C 246.600 229.560,246.600 246.040,245.920 246.720 C 245.349 247.291,211.386 247.424,211.035 246.857 C 210.732 246.366,210.695 229.293,210.996 228.806 C 211.382 228.182,245.294 228.254,245.920 228.880 M302.987 231.017 C 303.271 233.669,303.187 245.210,302.875 246.504 C 302.715 247.165,301.631 247.202,285.252 247.104 L 267.800 247.000 267.692 238.209 C 267.633 233.375,267.672 229.190,267.779 228.909 C 267.934 228.508,271.645 228.400,285.341 228.400 L 302.707 228.400 302.987 231.017 M399.449 235.100 C 398.657 257.553,397.591 276.999,396.406 290.600 C 394.381 313.848,393.773 318.974,391.182 334.600 C 386.639 362.008,376.713 378.538,361.400 384.198 C 360.300 384.605,359.220 385.064,359.000 385.218 C 358.780 385.373,357.430 385.893,356.000 386.376 C 354.570 386.858,353.040 387.421,352.600 387.626 C 351.802 387.998,345.231 389.732,342.200 390.370 C 338.641 391.119,330.063 392.821,328.000 393.188 C 322.161 394.225,310.154 395.740,302.600 396.392 C 299.960 396.620,295.820 396.979,293.400 397.191 C 286.010 397.839,277.859 398.350,267.800 398.797 C 262.520 399.032,255.860 399.369,253.000 399.547 C 250.032 399.731,280.462 399.898,323.900 399.935 L 400.000 400.000 400.000 314.200 C 400.000 267.010,399.929 228.400,399.843 228.400 C 399.756 228.400,399.579 231.415,399.449 235.100 M0.059 323.500 L 0.000 400.000 85.067 400.000 C 131.853 400.000,170.045 399.912,169.937 399.804 C 169.830 399.696,164.715 399.425,158.571 399.202 C 145.636 398.733,134.239 398.177,126.000 397.613 C 109.667 396.496,103.021 395.957,96.200 395.197 C 94.220 394.976,90.800 394.599,88.600 394.358 C 69.329 392.253,57.256 390.117,47.000 386.997 C 32.991 382.736,21.882 373.977,16.613 363.037 C 10.657 350.669,5.807 327.929,3.596 302.000 C 3.362 299.250,3.004 295.110,2.802 292.800 C 2.020 283.882,0.805 262.075,0.751 256.000 C 0.730 253.690,0.579 250.720,0.415 249.400 C 0.252 248.080,0.091 281.425,0.059 323.500 M132.457 269.300 C 132.536 269.575,132.548 273.711,132.485 278.492 L 132.370 287.183 114.934 287.292 C 103.563 287.362,97.456 287.261,97.377 287.000 C 97.173 286.324,96.908 269.832,97.093 269.300 C 97.347 268.570,132.249 268.570,132.457 269.300 M189.357 269.433 C 189.740 270.430,189.628 286.136,189.234 286.759 C 188.810 287.429,154.397 287.443,153.984 286.773 C 153.814 286.500,153.818 273.390,153.988 269.100 C 154.015 268.423,189.096 268.753,189.357 269.433 M246.157 269.433 C 246.576 270.523,246.434 286.732,246.004 286.998 C 245.628 287.230,211.205 287.340,210.977 287.109 C 210.870 287.002,210.689 272.639,210.763 270.100 L 210.800 268.800 228.357 268.800 C 243.998 268.800,245.941 268.869,246.157 269.433 M302.900 269.300 C 303.173 270.034,303.228 284.810,302.963 286.100 L 302.736 287.200 285.168 287.200 L 267.600 287.200 267.600 278.267 C 267.600 273.353,267.720 269.213,267.867 269.067 C 268.403 268.531,302.699 268.759,302.900 269.300 " stroke="none" fill="#e9e8e8" fill-rule="evenodd"></path><path id="path3" d="M117.911 101.615 L 117.222 102.827 100.606 102.782 C 86.726 102.745,83.712 102.837,82.295 103.341 C 81.363 103.673,80.150 104.039,79.600 104.155 C 77.815 104.531,74.600 107.960,73.557 110.600 L 72.609 113.000 72.605 137.515 C 72.601 158.873,72.677 162.078,73.200 162.408 C 74.283 163.093,325.685 162.919,326.624 162.232 C 328.518 160.847,327.851 112.148,325.902 109.512 C 323.619 106.424,320.769 104.048,318.590 103.414 C 314.815 102.317,281.189 102.304,281.598 103.400 C 281.855 104.092,282.160 104.173,283.848 104.000 C 287.877 103.587,314.200 103.800,317.113 104.269 C 320.177 104.762,321.797 106.003,325.200 110.458 L 326.200 111.768 326.309 136.555 C 326.369 150.188,326.273 161.487,326.096 161.664 C 325.730 162.030,74.577 162.157,73.986 161.791 C 73.745 161.642,73.601 152.498,73.604 137.476 L 73.608 113.400 74.625 111.200 C 75.185 109.990,76.324 108.370,77.157 107.600 C 77.990 106.830,78.750 105.962,78.846 105.671 C 79.391 104.010,114.602 102.620,117.683 104.136 C 118.466 104.522,118.958 103.261,118.731 101.449 L 118.600 100.402 117.911 101.615 M262.400 102.236 C 261.555 102.707,251.671 102.779,198.500 102.697 C 163.905 102.644,135.606 102.690,135.613 102.800 C 135.692 104.049,136.807 104.439,139.064 104.009 C 141.775 103.492,260.702 103.631,262.421 104.153 C 263.284 104.415,263.517 104.300,263.921 103.413 C 264.796 101.493,264.350 101.149,262.400 102.236 M284.500 188.300 L 267.600 188.409 267.600 197.609 L 267.600 206.808 285.300 206.704 L 303.000 206.600 303.108 197.851 C 303.215 189.157,303.046 187.842,301.851 188.096 C 301.603 188.148,293.795 188.240,284.500 188.300 M154.400 197.346 L 154.400 205.891 156.256 206.146 C 157.277 206.286,165.062 206.400,173.556 206.400 L 189.000 206.400 189.000 197.600 L 189.000 188.800 171.700 188.800 L 154.400 188.800 154.400 197.346 M211.200 197.618 L 211.200 206.445 228.300 206.322 L 245.400 206.200 245.400 197.600 L 245.400 189.000 228.300 188.896 L 211.200 188.791 211.200 197.618 M302.708 197.500 L 302.600 206.200 285.300 206.304 L 268.000 206.408 268.000 197.604 L 268.000 188.800 285.408 188.800 L 302.816 188.800 302.708 197.500 M97.600 237.600 L 97.600 246.400 114.800 246.400 L 132.000 246.400 132.000 237.600 L 132.000 228.800 114.800 228.800 L 97.600 228.800 97.600 237.600 M154.400 237.593 L 154.400 246.400 171.700 246.400 L 189.000 246.400 188.889 238.500 C 188.829 234.155,188.692 230.202,188.586 229.716 L 188.393 228.831 171.396 228.809 L 154.400 228.786 154.400 237.593 M211.379 229.311 C 211.271 229.592,211.232 233.507,211.291 238.011 L 211.400 246.200 228.500 246.304 L 245.600 246.409 245.600 237.604 L 245.600 228.800 228.587 228.800 C 215.155 228.800,211.534 228.907,211.379 229.311 M268.000 237.600 L 268.000 246.400 285.200 246.400 L 302.400 246.400 302.400 237.600 L 302.400 228.800 285.200 228.800 L 268.000 228.800 268.000 237.600 M171.100 269.500 L 154.400 269.609 154.400 278.209 L 154.400 286.809 171.500 286.704 L 188.600 286.600 188.800 278.200 C 188.984 270.489,188.843 268.925,188.000 269.302 C 187.890 269.351,180.285 269.440,171.100 269.500 M211.366 269.567 C 211.125 269.808,211.161 285.834,211.404 286.467 C 211.571 286.901,214.740 286.983,228.504 286.909 L 245.400 286.818 245.508 278.209 L 245.616 269.600 244.508 269.600 C 243.899 269.600,236.230 269.555,227.466 269.500 C 218.703 269.445,211.458 269.475,211.366 269.567 M97.600 278.200 L 97.600 286.800 114.800 286.800 L 132.000 286.800 132.000 278.200 L 132.000 269.600 114.800 269.600 L 97.600 269.600 97.600 278.200 M268.000 278.200 L 268.000 286.800 285.200 286.800 C 298.687 286.800,302.403 286.692,302.413 286.300 C 302.437 285.329,302.446 272.182,302.423 270.900 L 302.400 269.600 285.200 269.600 L 268.000 269.600 268.000 278.200 " stroke="none" fill="#a2a8a8" fill-rule="evenodd"></path><path id="path4" d="M148.600 0.450 C 145.960 0.626,139.390 0.963,134.000 1.198 C 118.696 1.864,105.189 2.797,106.495 3.097 C 106.878 3.185,110.028 3.061,113.495 2.821 C 121.102 2.296,130.495 1.809,145.200 1.180 C 151.250 0.921,156.740 0.566,157.400 0.391 C 158.953 -0.022,155.274 0.003,148.600 0.450 M222.800 0.325 C 223.130 0.530,226.730 0.811,230.800 0.950 C 249.904 1.603,253.784 1.690,253.571 1.458 C 253.445 1.320,248.315 1.024,242.171 0.800 C 236.027 0.575,229.020 0.293,226.600 0.173 C 223.816 0.034,222.420 0.090,222.800 0.325 M256.400 1.848 C 257.610 1.938,265.710 2.468,274.400 3.027 C 297.696 4.523,313.433 5.981,324.000 7.622 C 325.430 7.844,327.770 8.193,329.200 8.398 C 330.630 8.602,332.880 8.955,334.200 9.182 C 336.882 9.644,337.419 9.686,337.146 9.412 C 336.941 9.208,328.683 7.778,324.200 7.171 C 312.547 5.592,298.476 4.181,284.600 3.199 C 281.520 2.981,276.480 2.622,273.400 2.401 C 270.320 2.180,264.740 1.928,261.000 1.841 C 257.260 1.755,255.190 1.758,256.400 1.848 M96.800 3.607 C 95.590 3.777,92.620 4.124,90.200 4.377 C 82.806 5.151,71.879 6.732,67.800 7.619 C 66.920 7.811,64.400 8.346,62.200 8.809 C 39.050 13.680,28.210 19.565,20.108 31.661 C 13.356 41.743,9.123 57.917,6.017 85.500 C 5.016 94.384,4.786 96.389,4.405 99.564 C 3.996 102.961,3.860 107.074,4.166 106.767 C 4.258 106.675,4.536 104.350,4.785 101.600 C 5.673 91.809,7.173 79.018,8.000 74.200 C 8.189 73.100,8.557 70.670,8.818 68.800 C 10.064 59.885,12.872 48.086,14.991 42.867 C 15.586 41.400,16.360 39.480,16.711 38.600 C 17.063 37.720,17.543 36.730,17.779 36.400 C 18.016 36.070,18.551 35.170,18.969 34.400 C 24.294 24.588,34.619 16.892,47.800 12.912 C 48.900 12.580,50.430 12.080,51.200 11.802 C 51.970 11.524,53.410 11.167,54.400 11.009 C 55.390 10.852,57.460 10.405,59.000 10.018 C 63.179 8.966,68.740 7.858,73.200 7.189 C 74.850 6.941,76.920 6.589,77.800 6.405 C 78.680 6.222,81.380 5.867,83.800 5.616 C 86.220 5.366,89.190 4.999,90.400 4.801 C 91.610 4.603,95.390 4.239,98.800 3.992 C 102.210 3.746,105.180 3.481,105.400 3.404 C 106.178 3.131,98.969 3.301,96.800 3.607 M340.000 10.270 C 341.430 10.602,344.732 11.397,347.338 12.036 C 352.177 13.225,353.782 13.468,352.000 12.742 C 350.512 12.136,339.296 9.595,338.279 9.633 C 337.796 9.652,338.570 9.938,340.000 10.270 M353.600 13.486 C 370.094 19.609,380.510 29.068,384.998 42.000 C 385.570 43.650,386.202 45.360,386.403 45.800 C 387.246 47.655,388.777 52.877,389.569 56.600 C 390.037 58.800,390.776 62.220,391.211 64.200 C 392.266 68.998,393.826 78.452,394.379 83.400 C 394.625 85.600,394.997 88.660,395.205 90.200 C 395.638 93.409,396.589 104.132,397.245 113.200 C 398.267 127.354,398.332 127.996,398.150 122.200 C 397.869 113.210,396.357 94.606,395.241 86.400 C 395.017 84.750,394.553 81.240,394.210 78.600 C 393.516 73.252,392.752 68.919,391.601 63.800 C 388.433 49.709,387.694 47.112,385.002 40.600 C 381.439 31.978,376.737 26.100,369.000 20.593 C 364.937 17.700,355.279 13.117,353.491 13.232 C 353.207 13.250,353.253 13.357,353.600 13.486 M140.500 102.676 C 140.885 102.776,141.515 102.776,141.900 102.676 C 142.285 102.575,141.970 102.493,141.200 102.493 C 140.430 102.493,140.115 102.575,140.500 102.676 M3.580 108.833 C 3.570 109.365,3.385 112.320,3.171 115.400 C 1.957 132.839,1.680 137.974,0.804 159.200 C 0.591 164.370,0.327 170.670,0.217 173.200 C 0.087 176.198,0.138 177.312,0.363 176.400 C 0.553 175.630,0.828 171.760,0.974 167.800 C 1.615 150.393,2.423 132.612,2.782 128.000 C 3.466 119.229,4.030 108.297,3.812 108.078 C 3.695 107.962,3.591 108.302,3.580 108.833 M72.520 115.600 C 72.520 116.810,72.595 117.305,72.687 116.700 C 72.778 116.095,72.778 115.105,72.687 114.500 C 72.595 113.895,72.520 114.390,72.520 115.600 M398.400 134.047 C 398.400 139.214,399.585 161.323,399.876 161.587 C 400.005 161.704,399.993 159.550,399.850 156.800 C 399.706 154.050,399.410 147.044,399.192 141.230 C 398.792 130.590,398.400 127.037,398.400 134.047 M326.503 162.299 C 326.143 162.419,326.118 162.674,326.413 163.225 C 327.061 164.435,326.752 310.608,326.100 311.260 C 325.825 311.535,325.600 312.009,325.600 312.313 C 325.600 313.166,322.841 316.333,320.986 317.610 C 317.948 319.700,322.114 319.635,198.400 319.514 L 82.600 319.400 80.382 318.360 C 77.907 317.199,74.895 313.959,74.094 311.596 C 73.733 310.531,73.607 292.309,73.577 236.296 C 73.552 191.637,73.390 162.400,73.168 162.400 C 72.649 162.400,72.677 307.645,73.197 310.385 C 73.955 314.380,77.640 318.446,81.500 319.547 C 84.968 320.536,316.686 320.181,319.355 319.183 C 321.628 318.332,325.536 314.667,326.526 312.458 C 327.444 310.409,327.422 161.992,326.503 162.299 M212.873 188.400 L 210.747 188.600 210.749 197.600 L 210.751 206.600 227.675 206.711 C 236.984 206.772,244.987 206.728,245.461 206.613 C 246.375 206.392,246.928 190.206,246.067 188.882 C 245.721 188.349,217.735 187.943,212.873 188.400 M267.379 188.509 C 267.272 188.790,267.236 192.975,267.300 197.809 L 267.416 206.600 267.508 197.504 L 267.600 188.409 284.500 188.300 L 301.400 188.191 284.487 188.096 C 271.089 188.020,267.534 188.106,267.379 188.509 M153.984 188.696 C 153.810 192.109,154.072 206.232,154.314 206.474 C 154.498 206.658,162.468 206.762,172.024 206.704 L 189.400 206.600 189.400 197.600 L 189.400 188.600 171.700 188.496 C 161.965 188.439,153.993 188.529,153.984 188.696 M189.000 197.600 L 189.000 206.400 173.556 206.400 C 165.062 206.400,157.277 206.286,156.256 206.146 L 154.400 205.891 154.400 197.346 L 154.400 188.800 171.700 188.800 L 189.000 188.800 189.000 197.600 M245.400 197.600 L 245.400 206.200 228.300 206.322 L 211.200 206.445 211.200 197.618 L 211.200 188.791 228.300 188.896 L 245.400 189.000 245.400 197.600 M399.459 224.686 C 399.070 228.963,398.315 250.363,398.467 252.800 C 398.543 254.010,398.736 251.940,398.896 248.200 C 399.056 244.460,399.395 237.120,399.649 231.888 C 400.089 222.818,399.985 218.902,399.459 224.686 M97.160 235.300 C 97.139 239.095,97.076 243.010,97.020 244.000 C 96.827 247.452,95.429 247.200,114.790 247.200 C 127.067 247.200,132.032 247.072,132.231 246.750 C 132.545 246.242,132.476 229.247,132.158 228.732 C 132.045 228.550,124.133 228.400,114.576 228.400 L 97.200 228.400 97.160 235.300 M154.042 229.121 C 153.638 229.876,153.806 246.162,154.224 246.839 C 154.566 247.391,188.409 247.290,189.078 246.735 C 189.736 246.189,189.834 230.384,189.186 229.174 C 188.563 228.010,154.664 227.959,154.042 229.121 M210.996 228.806 C 210.695 229.293,210.732 246.366,211.035 246.857 C 211.386 247.424,245.349 247.291,245.920 246.720 C 246.600 246.040,246.600 229.560,245.920 228.880 C 245.294 228.254,211.382 228.182,210.996 228.806 M267.779 228.909 C 267.672 229.190,267.633 233.375,267.692 238.209 L 267.800 247.000 285.252 247.104 C 301.631 247.202,302.715 247.165,302.875 246.504 C 303.187 245.210,303.271 233.669,302.987 231.017 L 302.707 228.400 285.341 228.400 C 271.645 228.400,267.934 228.508,267.779 228.909 M132.000 237.600 L 132.000 246.400 114.800 246.400 L 97.600 246.400 97.600 237.600 L 97.600 228.800 114.800 228.800 L 132.000 228.800 132.000 237.600 M188.586 229.716 C 188.692 230.202,188.829 234.155,188.889 238.500 L 189.000 246.400 171.700 246.400 L 154.400 246.400 154.400 237.593 L 154.400 228.786 171.396 228.809 L 188.393 228.831 188.586 229.716 M245.600 237.604 L 245.600 246.409 228.500 246.304 L 211.400 246.200 211.291 238.011 C 211.232 233.507,211.271 229.592,211.379 229.311 C 211.534 228.907,215.155 228.800,228.587 228.800 L 245.600 228.800 245.600 237.604 M302.400 237.600 L 302.400 246.400 285.200 246.400 L 268.000 246.400 268.000 237.600 L 268.000 228.800 285.200 228.800 L 302.400 228.800 302.400 237.600 M0.091 243.400 C 0.089 245.160,0.221 247.680,0.385 249.000 C 0.645 251.095,0.684 250.841,0.694 247.000 C 0.700 244.580,0.568 242.060,0.400 241.400 C 0.184 240.553,0.094 241.140,0.091 243.400 M0.911 257.000 C 0.897 260.080,1.017 264.220,1.179 266.200 L 1.473 269.800 1.489 266.000 C 1.498 263.910,1.378 259.770,1.221 256.800 L 0.937 251.400 0.911 257.000 M397.885 262.484 C 397.711 265.940,397.402 270.620,397.198 272.884 C 396.814 277.148,396.677 282.658,396.964 282.367 C 397.246 282.078,398.464 260.708,398.329 258.400 C 398.258 257.190,398.058 259.028,397.885 262.484 M97.093 269.300 C 96.908 269.832,97.173 286.324,97.377 287.000 C 97.456 287.261,103.563 287.362,114.934 287.292 L 132.370 287.183 132.485 278.492 C 132.548 273.711,132.536 269.575,132.457 269.300 C 132.346 268.910,128.467 268.800,114.791 268.800 C 101.131 268.800,97.228 268.910,97.093 269.300 M153.988 269.100 C 153.818 273.390,153.814 286.500,153.984 286.773 C 154.397 287.443,188.810 287.429,189.234 286.759 C 189.628 286.136,189.740 270.430,189.357 269.433 C 189.096 268.753,154.015 268.423,153.988 269.100 M210.763 270.100 C 210.689 272.639,210.870 287.002,210.977 287.109 C 211.205 287.340,245.628 287.230,246.004 286.998 C 246.434 286.732,246.576 270.523,246.157 269.433 C 245.941 268.869,243.998 268.800,228.357 268.800 L 210.800 268.800 210.763 270.100 M267.867 269.067 C 267.720 269.213,267.600 273.353,267.600 278.267 L 267.600 287.200 285.168 287.200 L 302.736 287.200 302.963 286.100 C 303.228 284.810,303.173 270.034,302.900 269.300 C 302.699 268.759,268.403 268.531,267.867 269.067 M188.600 269.506 C 188.856 269.694,188.928 272.827,188.800 278.200 L 188.600 286.600 171.500 286.704 L 154.400 286.809 154.400 278.209 L 154.400 269.609 171.100 269.500 C 180.285 269.440,187.890 269.351,188.000 269.302 C 188.110 269.252,188.380 269.344,188.600 269.506 M244.508 269.600 L 245.616 269.600 245.508 278.209 L 245.400 286.818 228.504 286.909 C 214.740 286.983,211.571 286.901,211.404 286.467 C 211.161 285.834,211.125 269.808,211.366 269.567 C 211.458 269.475,218.703 269.445,227.466 269.500 C 236.230 269.555,243.899 269.600,244.508 269.600 M132.000 278.200 L 132.000 286.800 114.800 286.800 L 97.600 286.800 97.600 278.200 L 97.600 269.600 114.800 269.600 L 132.000 269.600 132.000 278.200 M302.423 270.900 C 302.446 272.182,302.437 285.329,302.413 286.300 C 302.403 286.692,298.687 286.800,285.200 286.800 L 268.000 286.800 268.000 278.200 L 268.000 269.600 285.200 269.600 L 302.400 269.600 302.423 270.900 M1.661 273.979 C 1.627 276.277,1.779 280.237,1.998 282.779 C 2.217 285.320,2.582 289.740,2.810 292.600 C 3.884 306.105,4.778 314.532,6.035 323.000 C 7.438 332.455,10.768 347.657,12.388 352.000 C 13.368 354.628,13.187 353.348,11.992 349.200 C 10.728 344.814,10.417 343.602,10.040 341.600 C 9.853 340.610,9.407 338.360,9.048 336.600 C 8.690 334.840,8.206 332.320,7.974 331.000 C 7.742 329.680,7.392 327.970,7.196 327.200 C 7.000 326.430,6.756 325.080,6.655 324.200 C 6.553 323.320,6.195 320.620,5.858 318.200 C 5.521 315.780,5.047 311.820,4.805 309.400 C 4.562 306.980,4.193 303.380,3.985 301.400 C 3.472 296.526,2.383 282.086,2.019 275.317 L 1.722 269.800 1.661 273.979 M396.263 287.131 C 396.079 289.623,396.018 291.751,396.127 291.861 C 396.425 292.158,396.885 286.469,396.732 284.400 C 396.648 283.271,396.473 284.288,396.263 287.131 M395.535 295.600 C 394.311 311.899,392.391 326.073,389.169 342.600 C 387.597 350.661,383.980 361.484,382.141 363.631 C 381.843 363.979,381.600 364.388,381.600 364.541 C 381.600 365.862,377.014 371.810,372.843 375.899 C 368.267 380.386,365.578 382.054,358.200 384.982 C 355.560 386.029,353.040 387.030,352.600 387.206 C 352.160 387.382,350.990 387.711,350.000 387.938 C 347.555 388.499,346.541 388.747,344.200 389.361 C 343.100 389.649,340.805 390.202,339.100 390.589 C 336.083 391.275,334.697 391.911,337.300 391.416 C 340.919 390.728,352.054 387.956,352.800 387.558 C 353.130 387.382,354.570 386.847,356.000 386.368 C 357.430 385.890,358.780 385.373,359.000 385.218 C 359.220 385.064,360.300 384.605,361.400 384.198 C 373.440 379.748,383.469 366.495,388.338 348.600 C 390.351 341.202,393.323 322.703,394.764 308.600 C 395.886 297.625,396.072 295.275,395.937 293.800 C 395.836 292.702,395.710 293.266,395.535 295.600 M13.200 354.546 C 13.200 355.241,15.872 361.687,17.279 364.386 C 22.548 374.495,33.641 382.934,47.000 386.997 C 53.267 388.903,63.767 391.227,65.800 391.157 C 66.678 391.127,64.144 390.534,57.400 389.193 C 35.315 384.800,22.339 375.390,15.217 358.600 C 13.563 354.701,13.200 353.973,13.200 354.546 M70.600 392.039 C 75.305 392.821,78.767 393.261,81.200 393.387 L 83.800 393.521 81.600 393.205 C 80.390 393.031,77.600 392.604,75.400 392.257 C 73.200 391.910,70.770 391.644,70.000 391.666 C 68.798 391.701,68.882 391.754,70.600 392.039 M330.600 392.218 C 329.280 392.513,326.040 393.056,323.400 393.424 C 313.411 394.817,311.738 395.107,313.433 395.155 C 314.332 395.180,316.042 395.032,317.233 394.827 C 318.425 394.622,320.930 394.249,322.800 393.998 C 326.272 393.532,328.062 393.221,333.000 392.228 C 334.825 391.861,335.313 391.668,334.400 391.674 C 333.630 391.678,331.920 391.923,330.600 392.218 M85.400 394.023 C 86.280 394.205,87.900 394.339,89.000 394.321 L 91.000 394.287 88.800 393.983 C 87.590 393.816,85.970 393.682,85.200 393.686 L 83.800 393.692 85.400 394.023 M91.700 394.676 C 92.085 394.776,92.715 394.776,93.100 394.676 C 93.485 394.575,93.170 394.493,92.400 394.493 C 91.630 394.493,91.315 394.575,91.700 394.676 M96.800 395.244 C 103.127 395.952,109.167 396.446,113.400 396.602 C 117.672 396.759,117.625 396.748,111.800 396.210 C 108.500 395.906,104.090 395.467,102.000 395.235 C 99.910 395.003,97.210 394.835,96.000 394.861 C 93.855 394.907,93.875 394.917,96.800 395.244 M305.400 395.671 C 295.772 396.642,295.397 396.691,297.182 396.745 C 299.117 396.805,306.587 396.142,309.800 395.626 C 312.622 395.173,310.081 395.199,305.400 395.671 M121.000 397.193 C 126.575 397.796,139.314 398.489,141.600 398.315 C 143.202 398.194,142.767 398.126,140.000 398.067 C 137.910 398.023,134.580 397.821,132.600 397.619 C 130.620 397.417,126.480 397.160,123.400 397.049 C 118.878 396.887,118.416 396.914,121.000 397.193 M286.400 397.242 C 284.750 397.427,280.790 397.737,277.600 397.931 C 272.847 398.219,272.397 398.294,275.111 398.342 C 278.089 398.394,293.319 397.383,294.800 397.034 C 296.010 396.749,289.310 396.915,286.400 397.242 M148.200 398.821 C 150.180 398.983,154.590 399.103,158.000 399.088 L 164.200 399.062 159.600 398.783 C 157.070 398.630,152.660 398.510,149.800 398.516 L 144.600 398.527 148.200 398.821 M257.400 398.800 L 253.400 399.045 258.600 399.080 C 261.460 399.099,265.420 398.983,267.400 398.821 L 271.000 398.527 266.200 398.541 C 263.560 398.549,259.600 398.665,257.400 398.800 M167.600 399.622 C 172.192 400.025,177.017 400.011,175.400 399.600 C 174.740 399.432,171.950 399.301,169.200 399.309 L 164.200 399.324 167.600 399.622 M241.600 399.600 C 239.113 399.987,246.326 399.997,250.400 399.612 C 253.119 399.356,252.932 399.329,248.400 399.325 C 245.650 399.322,242.590 399.446,241.600 399.600 " stroke="none" fill="#c2abab" fill-rule="evenodd"></path></g></svg>