<svg id="svg" version="1.1" xmlns="http://www.w3.org/2000/svg" xmlns:xlink="http://www.w3.org/1999/xlink" width="400" height="400" viewBox="0, 0, 400,400"><g id="svgg"><path id="path0" d="M88.100 0.273 C 87.165 0.368,86.400 0.616,86.400 0.823 C 86.400 1.030,86.051 1.200,85.624 1.200 C 85.197 1.200,84.736 1.380,84.600 1.600 C 84.464 1.820,84.003 2.000,83.576 2.000 C 83.149 2.000,82.800 2.146,82.800 2.325 C 82.800 2.504,82.170 2.898,81.400 3.200 C 80.630 3.502,80.000 3.896,80.000 4.075 C 80.000 4.254,79.804 4.400,79.564 4.400 C 79.135 4.400,72.400 10.999,72.400 11.419 C 72.400 11.537,72.040 12.020,71.600 12.492 C 71.160 12.964,70.800 13.587,70.800 13.875 C 70.800 14.164,70.620 14.400,70.400 14.400 C 70.180 14.400,70.000 14.760,70.000 15.200 C 70.000 15.640,69.820 16.000,69.600 16.000 C 69.380 16.000,69.200 16.349,69.200 16.776 C 69.200 17.203,69.020 17.664,68.800 17.800 C 68.580 17.936,68.400 18.476,68.400 19.000 C 68.400 19.524,68.220 20.064,68.000 20.200 C 67.780 20.336,67.600 21.247,67.600 22.224 C 67.600 23.201,67.420 24.000,67.200 24.000 C 66.943 24.000,66.800 28.076,66.800 35.429 C 66.800 47.598,66.738 48.000,64.852 48.000 C 64.409 48.000,63.936 48.180,63.800 48.400 C 63.664 48.620,63.203 48.800,62.776 48.800 C 62.349 48.800,62.000 48.980,62.000 49.200 C 62.000 49.420,61.735 49.600,61.412 49.600 C 61.089 49.600,60.183 49.960,59.400 50.400 C 58.617 50.840,57.711 51.200,57.388 51.200 C 57.065 51.200,56.800 51.380,56.800 51.600 C 56.800 51.820,56.564 52.000,56.275 52.000 C 55.987 52.000,55.364 52.360,54.892 52.800 C 54.420 53.240,53.756 53.600,53.417 53.600 C 53.078 53.600,52.800 53.780,52.800 54.000 C 52.800 54.220,52.564 54.400,52.275 54.400 C 51.987 54.400,51.364 54.760,50.892 55.200 C 50.420 55.640,49.846 56.000,49.617 56.000 C 49.388 56.000,49.200 56.180,49.200 56.400 C 49.200 56.620,48.970 56.800,48.688 56.800 C 48.407 56.800,47.917 57.160,47.600 57.600 C 47.283 58.040,46.885 58.400,46.716 58.400 C 46.007 58.400,34.800 69.243,34.800 69.929 C 34.800 70.123,34.305 70.806,33.700 71.448 C 33.095 72.089,32.345 73.106,32.032 73.707 C 31.720 74.308,31.315 74.800,31.132 74.800 C 30.950 74.800,30.800 75.036,30.800 75.325 C 30.800 75.613,30.485 76.200,30.100 76.628 C 29.164 77.670,27.200 81.441,27.200 82.197 C 27.200 82.529,27.020 82.800,26.800 82.800 C 26.580 82.800,26.400 83.250,26.400 83.800 C 26.400 84.350,26.220 84.800,26.000 84.800 C 25.780 84.800,25.600 85.160,25.600 85.600 C 25.600 86.040,25.420 86.400,25.200 86.400 C 24.980 86.400,24.800 86.760,24.800 87.200 C 24.800 87.640,24.620 88.000,24.400 88.000 C 24.180 88.000,24.000 88.540,24.000 89.200 C 24.000 89.860,23.820 90.400,23.600 90.400 C 23.380 90.400,23.200 90.940,23.200 91.600 C 23.200 92.260,23.020 92.800,22.800 92.800 C 22.580 92.800,22.400 93.430,22.400 94.200 C 22.400 94.970,22.220 95.600,22.000 95.600 C 21.780 95.600,21.600 96.320,21.600 97.200 C 21.600 98.080,21.420 98.800,21.200 98.800 C 20.980 98.800,20.800 99.700,20.800 100.800 C 20.800 101.900,20.620 102.800,20.400 102.800 C 20.156 102.800,20.000 104.659,20.000 107.576 C 20.000 110.329,19.831 112.458,19.600 112.600 C 19.335 112.764,19.200 151.937,19.200 228.824 C 19.200 305.875,19.334 344.800,19.600 344.800 C 19.842 344.800,20.000 346.533,20.000 349.200 C 20.000 351.867,20.158 353.600,20.400 353.600 C 20.620 353.600,20.800 354.399,20.800 355.376 C 20.800 356.353,20.980 357.264,21.200 357.400 C 21.420 357.536,21.600 358.166,21.600 358.800 C 21.600 359.434,21.780 360.064,22.000 360.200 C 22.220 360.336,22.400 360.977,22.400 361.624 C 22.400 362.271,22.580 362.800,22.800 362.800 C 23.020 362.800,23.200 363.149,23.200 363.576 C 23.200 364.003,23.380 364.464,23.600 364.600 C 23.820 364.736,24.000 365.287,24.000 365.824 C 24.000 366.361,24.180 366.800,24.400 366.800 C 24.620 366.800,24.800 367.160,24.800 367.600 C 24.800 368.040,24.980 368.400,25.200 368.400 C 25.420 368.400,25.600 368.760,25.600 369.200 C 25.600 369.640,25.780 370.000,26.000 370.000 C 26.220 370.000,26.400 370.345,26.400 370.767 C 26.400 371.188,26.535 371.593,26.700 371.667 C 26.865 371.740,27.358 372.520,27.794 373.400 C 28.231 374.280,28.906 375.291,29.294 375.647 C 29.683 376.003,30.000 376.516,30.000 376.786 C 30.000 377.057,30.540 377.783,31.200 378.400 C 31.860 379.017,32.400 379.712,32.400 379.945 C 32.400 380.476,39.890 388.000,40.419 388.000 C 40.633 388.000,41.339 388.508,41.989 389.129 C 42.638 389.750,43.847 390.605,44.674 391.029 C 45.501 391.453,46.532 392.115,46.965 392.500 C 47.397 392.885,47.987 393.200,48.275 393.200 C 48.564 393.200,48.800 393.380,48.800 393.600 C 48.800 393.820,49.160 394.000,49.600 394.000 C 50.040 394.000,50.400 394.180,50.400 394.400 C 50.400 394.620,50.760 394.800,51.200 394.800 C 51.640 394.800,52.000 394.980,52.000 395.200 C 52.000 395.420,52.360 395.600,52.800 395.600 C 53.240 395.600,53.600 395.780,53.600 396.000 C 53.600 396.220,54.140 396.400,54.800 396.400 C 55.460 396.400,56.000 396.580,56.000 396.800 C 56.000 397.020,56.349 397.200,56.776 397.200 C 57.203 397.200,57.664 397.380,57.800 397.600 C 58.509 398.747,64.783 398.044,66.164 396.662 C 69.361 393.465,67.137 387.686,62.000 385.845 C 48.725 381.086,38.658 370.817,34.217 357.506 C 31.906 350.581,32.015 355.371,32.007 260.700 L 32.000 173.600 200.000 173.600 L 368.000 173.600 368.000 225.023 C 368.000 259.852,367.863 277.051,367.575 278.323 C 366.562 282.800,366.212 283.923,365.171 286.021 C 360.533 295.365,347.163 300.855,332.952 299.251 C 332.687 299.221,332.387 297.848,332.219 295.900 C 331.705 289.916,328.536 285.157,323.343 282.568 L 321.000 281.400 304.068 281.287 L 287.136 281.175 284.210 282.583 C 281.111 284.073,278.187 286.846,276.831 289.579 C 275.257 292.750,275.159 294.075,275.281 310.400 L 275.400 326.200 276.695 328.934 C 277.583 330.810,278.742 332.386,280.385 333.955 L 282.780 336.241 282.016 338.420 C 280.426 342.952,279.556 348.465,279.178 356.400 C 278.313 374.573,273.866 382.878,263.000 386.615 C 257.776 388.411,259.195 388.383,171.600 388.393 C 89.492 388.403,88.586 388.412,87.296 389.198 C 85.718 390.160,84.404 392.204,84.401 393.700 C 84.400 394.468,84.195 394.800,83.720 394.800 C 83.191 394.800,83.147 394.907,83.520 395.280 C 83.784 395.544,84.000 396.192,84.000 396.720 C 84.000 397.279,84.523 398.168,85.255 398.852 L 86.511 400.024 178.722 399.912 C 252.056 399.823,270.968 399.698,271.100 399.300 C 271.203 398.990,272.016 398.800,273.233 398.800 C 274.315 398.800,275.200 398.620,275.200 398.400 C 275.200 398.180,276.100 398.000,277.200 398.000 C 278.300 398.000,279.200 397.820,279.200 397.600 C 279.200 397.380,279.909 397.200,280.776 397.200 C 281.643 397.200,282.464 397.020,282.600 396.800 C 282.736 396.580,283.467 396.400,284.224 396.400 C 284.981 396.400,285.600 396.220,285.600 396.000 C 285.600 395.780,286.230 395.600,287.000 395.600 C 287.770 395.600,288.400 395.420,288.400 395.200 C 288.400 394.980,288.929 394.800,289.576 394.800 C 290.223 394.800,290.864 394.620,291.000 394.400 C 291.136 394.180,291.687 394.000,292.224 394.000 C 292.761 394.000,293.200 393.820,293.200 393.600 C 293.200 393.380,293.740 393.200,294.400 393.200 C 295.060 393.200,295.600 393.020,295.600 392.800 C 295.600 392.580,295.960 392.400,296.400 392.400 C 296.840 392.400,297.200 392.243,297.200 392.052 C 297.200 391.860,298.100 391.584,299.200 391.438 C 300.300 391.292,301.200 390.999,301.200 390.786 C 301.200 390.574,301.472 390.400,301.805 390.400 C 302.138 390.400,302.723 390.239,303.105 390.042 C 303.487 389.845,305.060 389.081,306.600 388.344 C 308.140 387.607,309.460 386.868,309.533 386.702 C 309.607 386.536,310.012 386.400,310.433 386.400 C 310.855 386.400,311.200 386.220,311.200 386.000 C 311.200 385.780,311.560 385.600,312.000 385.600 C 312.440 385.600,312.800 385.420,312.800 385.200 C 312.800 384.980,313.036 384.800,313.325 384.800 C 313.613 384.800,314.236 384.440,314.708 384.000 C 315.180 383.560,315.844 383.200,316.183 383.200 C 316.522 383.200,316.800 383.020,316.800 382.800 C 316.800 382.580,317.078 382.400,317.417 382.400 C 317.756 382.400,318.420 382.040,318.892 381.600 C 319.364 381.160,319.987 380.800,320.275 380.800 C 320.564 380.800,320.800 380.620,320.800 380.400 C 320.800 380.180,321.070 380.000,321.400 380.000 C 321.730 380.000,322.000 379.820,322.000 379.600 C 322.000 379.380,322.270 379.200,322.600 379.200 C 322.930 379.200,323.200 379.020,323.200 378.800 C 323.200 378.580,323.398 378.400,323.640 378.400 C 323.881 378.400,324.583 377.860,325.200 377.200 C 325.817 376.540,326.526 376.000,326.777 376.000 C 327.028 376.000,327.451 375.817,327.717 375.593 C 329.481 374.105,330.152 373.600,330.365 373.600 C 330.499 373.600,331.056 373.190,331.604 372.689 C 332.152 372.187,333.195 371.358,333.923 370.845 C 335.692 369.599,343.997 361.487,344.012 360.991 C 344.019 360.776,344.567 360.150,345.230 359.600 C 347.401 357.800,349.473 355.703,350.426 354.339 C 350.941 353.603,351.649 352.730,352.000 352.400 C 352.351 352.070,353.071 351.170,353.600 350.400 C 354.129 349.630,354.886 348.709,355.281 348.353 C 355.676 347.997,356.000 347.494,356.000 347.235 C 356.000 346.976,356.419 346.345,356.930 345.834 C 357.442 345.322,358.093 344.340,358.379 343.652 C 358.664 342.963,359.055 342.400,359.249 342.400 C 359.442 342.400,359.600 342.130,359.600 341.800 C 359.600 341.470,359.780 341.200,360.000 341.200 C 360.220 341.200,360.400 340.964,360.400 340.675 C 360.400 340.387,360.760 339.764,361.200 339.292 C 361.640 338.820,362.000 338.156,362.000 337.817 C 362.000 337.478,362.180 337.200,362.400 337.200 C 362.620 337.200,362.800 336.964,362.800 336.675 C 362.800 336.387,363.160 335.764,363.600 335.292 C 364.040 334.820,364.400 334.156,364.400 333.817 C 364.400 333.478,364.580 333.200,364.800 333.200 C 365.020 333.200,365.200 332.840,365.200 332.400 C 365.200 331.960,365.380 331.600,365.600 331.600 C 365.820 331.600,366.000 331.240,366.000 330.800 C 366.000 330.360,366.180 330.000,366.400 330.000 C 366.620 330.000,366.800 329.640,366.800 329.200 C 366.800 328.760,366.980 328.400,367.200 328.400 C 367.420 328.400,367.600 328.040,367.600 327.600 C 367.600 327.160,367.780 326.800,368.000 326.800 C 368.220 326.800,368.400 326.440,368.400 326.000 C 368.400 325.560,368.580 325.200,368.800 325.200 C 369.020 325.200,369.200 324.840,369.200 324.400 C 369.200 323.960,369.380 323.600,369.600 323.600 C 369.820 323.600,370.000 323.328,370.000 322.995 C 370.000 322.662,370.208 321.987,370.462 321.495 C 371.458 319.569,371.600 319.183,371.600 318.405 C 371.600 317.962,371.747 317.600,371.928 317.600 C 372.108 317.600,372.504 316.689,372.807 315.575 C 373.110 314.461,373.503 313.460,373.679 313.351 C 373.856 313.242,374.000 312.724,374.000 312.200 C 374.000 311.676,374.172 311.141,374.382 311.011 C 374.591 310.882,374.885 309.701,375.033 308.388 C 375.182 307.075,375.460 306.000,375.652 306.000 C 375.843 306.000,376.000 305.471,376.000 304.824 C 376.000 304.177,376.180 303.536,376.400 303.400 C 376.620 303.264,376.800 302.353,376.800 301.376 C 376.800 300.399,376.980 299.600,377.200 299.600 C 377.420 299.600,377.600 298.891,377.600 298.024 C 377.600 297.157,377.780 296.336,378.000 296.200 C 378.220 296.064,378.400 294.973,378.400 293.776 C 378.400 292.579,378.580 291.600,378.800 291.600 C 379.028 291.600,379.200 290.408,379.200 288.824 C 379.200 287.297,379.380 285.936,379.600 285.800 C 379.839 285.653,380.000 283.070,380.000 279.400 C 380.000 275.730,380.161 273.147,380.400 273.000 C 380.954 272.657,380.954 116.800,380.400 116.800 C 380.180 116.800,380.000 116.188,380.000 115.440 C 380.000 113.148,375.520 109.712,374.559 111.267 C 374.445 111.450,374.060 111.600,373.703 111.600 C 372.397 111.600,369.762 113.217,368.991 114.492 C 368.234 115.744,368.191 116.784,368.000 138.800 L 367.800 161.800 200.000 161.800 L 32.200 161.800 32.073 136.800 C 31.944 111.491,32.111 107.234,33.466 101.243 C 37.179 84.826,48.312 70.388,63.151 62.747 C 67.709 60.400,67.428 60.231,67.712 65.486 C 69.025 89.752,95.616 101.987,114.425 86.980 C 121.482 81.349,124.589 74.246,125.067 62.648 C 125.312 56.729,125.372 56.372,126.163 56.181 C 126.623 56.070,136.900 56.029,149.000 56.089 L 171.000 56.200 171.238 62.400 C 171.966 81.424,183.035 93.324,200.000 93.324 C 216.865 93.324,228.023 81.475,228.745 62.800 L 229.000 56.200 251.000 56.089 C 263.100 56.029,273.377 56.070,273.837 56.181 C 274.627 56.372,274.688 56.729,274.927 62.492 C 275.322 72.027,277.014 77.256,281.462 82.690 C 298.417 103.402,330.872 92.437,332.292 65.516 C 332.573 60.186,332.382 60.293,337.110 62.811 C 348.214 68.723,356.512 77.364,362.550 89.302 C 365.614 95.359,366.176 95.826,370.279 95.727 C 373.741 95.644,375.200 94.755,375.200 92.730 C 375.200 92.109,375.380 91.600,375.600 91.600 C 376.094 91.600,376.135 88.531,375.645 88.228 C 375.450 88.107,375.175 87.391,375.033 86.636 C 374.714 84.932,371.331 78.230,370.126 76.913 C 369.866 76.628,369.538 76.036,369.399 75.598 C 369.260 75.159,368.978 74.800,368.773 74.800 C 368.568 74.800,368.400 74.557,368.400 74.259 C 368.400 73.962,367.860 73.154,367.200 72.463 C 366.540 71.772,366.000 71.044,366.000 70.843 C 366.000 70.288,355.030 59.200,354.481 59.200 C 354.216 59.200,354.000 59.020,354.000 58.800 C 354.000 58.580,353.770 58.400,353.488 58.400 C 353.207 58.400,352.717 58.040,352.400 57.600 C 352.083 57.160,351.593 56.800,351.312 56.800 C 351.030 56.800,350.800 56.620,350.800 56.400 C 350.800 56.180,350.612 56.000,350.383 56.000 C 350.154 56.000,349.580 55.640,349.108 55.200 C 348.636 54.760,348.013 54.400,347.725 54.400 C 347.436 54.400,347.200 54.220,347.200 54.000 C 347.200 53.780,346.922 53.600,346.583 53.600 C 346.244 53.600,345.580 53.240,345.108 52.800 C 344.636 52.360,344.013 52.000,343.725 52.000 C 343.436 52.000,343.200 51.820,343.200 51.600 C 343.200 51.380,342.840 51.200,342.400 51.200 C 341.960 51.200,341.600 51.020,341.600 50.800 C 341.600 50.580,341.240 50.400,340.800 50.400 C 340.360 50.400,340.000 50.220,340.000 50.000 C 340.000 49.780,339.550 49.600,339.000 49.600 C 338.450 49.600,338.000 49.420,338.000 49.200 C 338.000 48.980,337.640 48.800,337.200 48.800 C 336.760 48.800,336.400 48.620,336.400 48.400 C 336.400 48.180,335.937 48.000,335.371 48.000 C 333.233 48.000,333.200 47.809,333.200 35.429 C 333.200 28.076,333.057 24.000,332.800 24.000 C 332.580 24.000,332.400 23.201,332.400 22.224 C 332.400 21.247,332.220 20.336,332.000 20.200 C 331.780 20.064,331.600 19.524,331.600 19.000 C 331.600 18.476,331.420 17.936,331.200 17.800 C 330.980 17.664,330.800 17.203,330.800 16.776 C 330.800 16.349,330.620 16.000,330.400 16.000 C 330.180 16.000,330.000 15.640,330.000 15.200 C 330.000 14.760,329.820 14.400,329.600 14.400 C 329.380 14.400,329.200 14.164,329.200 13.875 C 329.200 13.587,328.840 12.964,328.400 12.492 C 327.960 12.020,327.600 11.530,327.600 11.403 C 327.600 11.277,327.015 10.557,326.300 9.803 C 325.585 9.050,324.370 7.714,323.600 6.835 C 322.830 5.956,322.009 5.229,321.775 5.218 C 321.542 5.208,320.993 4.885,320.555 4.500 C 319.773 3.812,318.481 3.004,317.100 2.338 C 316.715 2.152,316.042 1.820,315.605 1.600 C 315.168 1.380,314.553 1.200,314.239 1.200 C 313.924 1.200,313.592 0.975,313.500 0.700 C 313.259 -0.025,294.342 -0.025,294.100 0.700 C 294.008 0.975,293.498 1.200,292.967 1.200 C 292.435 1.200,292.000 1.380,292.000 1.600 C 292.000 1.820,291.640 2.000,291.200 2.000 C 290.760 2.000,290.400 2.180,290.400 2.400 C 290.400 2.620,290.040 2.800,289.600 2.800 C 289.160 2.800,288.800 2.980,288.800 3.200 C 288.800 3.420,288.557 3.600,288.259 3.600 C 287.962 3.600,287.154 4.140,286.463 4.800 C 285.772 5.460,285.012 6.000,284.772 6.000 C 284.376 6.000,282.320 7.991,280.782 9.865 C 279.134 11.873,277.563 14.484,277.344 15.581 C 277.210 16.252,276.943 16.800,276.750 16.800 C 276.558 16.800,276.400 17.239,276.400 17.776 C 276.400 18.313,276.220 18.864,276.000 19.000 C 275.780 19.136,275.600 19.777,275.600 20.424 C 275.600 21.071,275.420 21.600,275.200 21.600 C 274.967 21.600,274.800 22.925,274.800 24.776 C 274.800 26.523,274.620 28.064,274.400 28.200 C 274.156 28.351,274.000 31.404,274.000 36.024 L 274.000 43.600 251.600 43.600 L 229.200 43.600 229.200 33.000 C 229.200 26.200,229.057 22.400,228.800 22.400 C 228.580 22.400,228.400 21.680,228.400 20.800 C 228.400 19.920,228.220 19.200,228.000 19.200 C 227.780 19.200,227.600 18.840,227.600 18.400 C 227.600 17.960,227.420 17.600,227.200 17.600 C 226.980 17.600,226.800 17.238,226.800 16.795 C 226.800 16.032,226.087 14.434,225.554 14.000 C 225.419 13.890,225.182 13.395,225.027 12.901 C 224.801 12.177,222.976 9.961,220.905 7.896 C 218.864 5.861,217.102 4.400,216.688 4.400 C 216.407 4.400,215.917 4.040,215.600 3.600 C 215.283 3.160,214.703 2.800,214.312 2.800 C 213.920 2.800,213.600 2.620,213.600 2.400 C 213.600 2.180,213.240 2.000,212.800 2.000 C 212.360 2.000,212.000 1.820,212.000 1.600 C 212.000 1.380,211.475 1.200,210.833 1.200 C 210.192 1.200,209.592 0.975,209.500 0.700 C 209.373 0.319,207.111 0.200,200.000 0.200 C 192.889 0.200,190.627 0.319,190.500 0.700 C 190.408 0.975,189.808 1.200,189.167 1.200 C 188.525 1.200,188.000 1.380,188.000 1.600 C 188.000 1.820,187.640 2.000,187.200 2.000 C 186.760 2.000,186.400 2.180,186.400 2.400 C 186.400 2.620,186.080 2.800,185.688 2.800 C 185.297 2.800,184.717 3.160,184.400 3.600 C 184.083 4.040,183.579 4.400,183.280 4.400 C 182.982 4.400,182.046 5.120,181.200 6.000 C 180.354 6.880,179.469 7.600,179.231 7.600 C 178.994 7.600,178.800 7.765,178.800 7.966 C 178.800 8.168,178.080 9.105,177.200 10.049 C 176.320 10.992,175.600 11.998,175.600 12.282 C 175.600 12.567,175.420 12.800,175.200 12.800 C 174.980 12.800,174.800 13.070,174.800 13.400 C 174.800 13.730,174.665 14.001,174.500 14.003 C 174.094 14.007,173.200 15.986,173.200 16.880 C 173.200 17.276,173.020 17.600,172.800 17.600 C 172.580 17.600,172.400 17.960,172.400 18.400 C 172.400 18.840,172.220 19.200,172.000 19.200 C 171.780 19.200,171.600 19.920,171.600 20.800 C 171.600 21.680,171.420 22.400,171.200 22.400 C 170.943 22.400,170.800 26.200,170.800 33.000 L 170.800 43.600 148.400 43.600 L 126.000 43.600 126.000 36.024 C 126.000 31.857,125.846 28.352,125.658 28.236 C 125.470 28.120,125.217 26.090,125.097 23.725 C 124.965 21.149,124.701 19.367,124.439 19.280 C 124.197 19.199,124.000 18.807,124.000 18.407 C 124.000 17.186,120.422 10.851,119.514 10.467 C 119.342 10.393,119.200 10.164,119.200 9.956 C 119.200 9.480,115.743 6.000,115.270 6.000 C 115.077 6.000,114.354 5.460,113.663 4.800 C 112.972 4.140,112.136 3.600,111.804 3.600 C 111.472 3.600,111.200 3.420,111.200 3.200 C 111.200 2.980,110.840 2.800,110.400 2.800 C 109.960 2.800,109.599 2.665,109.597 2.500 C 109.593 2.102,107.621 1.200,106.754 1.200 C 106.376 1.200,105.992 0.975,105.900 0.700 C 105.732 0.196,92.074 -0.132,88.100 0.273 M149.462 108.979 C 143.680 111.058,143.207 126.073,148.835 128.881 C 154.065 131.490,157.219 127.817,157.170 119.174 C 157.121 110.571,154.537 107.154,149.462 108.979 M247.297 108.740 C 243.699 109.777,242.605 112.665,242.866 120.440 C 243.120 127.991,245.984 131.074,250.851 129.035 C 253.976 127.726,254.794 125.595,254.798 118.760 C 254.802 110.876,252.155 107.340,247.297 108.740 M185.448 118.001 C 183.298 118.668,181.200 121.300,181.200 123.331 C 181.200 129.879,196.102 137.326,204.240 134.847 C 204.878 134.652,206.210 134.256,207.200 133.965 C 211.502 132.703,216.999 128.559,218.229 125.651 C 220.528 120.219,213.777 115.311,209.289 119.152 C 202.423 125.029,198.116 125.025,190.736 119.134 C 189.218 117.922,187.139 117.477,185.448 118.001 M78.778 200.574 C 74.733 202.082,70.837 205.380,69.517 208.412 C 69.184 209.175,68.671 210.340,68.377 211.000 C 67.685 212.550,67.326 238.750,67.937 243.140 C 68.921 250.215,73.883 255.501,80.755 256.794 C 83.753 257.359,109.385 257.322,112.080 256.750 C 116.993 255.707,121.098 252.531,123.290 248.077 L 124.600 245.417 124.600 228.408 L 124.600 211.400 123.519 209.093 C 122.139 206.148,118.873 202.883,115.800 201.377 L 113.400 200.200 96.800 200.122 C 83.839 200.060,79.888 200.160,78.778 200.574 M181.963 200.750 C 172.829 204.356,171.193 208.584,171.214 228.520 C 171.232 245.947,171.583 247.619,176.182 252.220 C 180.782 256.822,182.590 257.200,200.000 257.200 C 220.969 257.200,225.589 255.105,228.229 244.400 C 228.995 241.295,229.002 215.565,228.238 212.372 C 227.082 207.537,223.707 203.342,219.318 201.286 L 217.000 200.200 200.400 200.112 C 185.187 200.032,183.647 200.085,181.963 200.750 M286.400 200.469 C 276.077 204.891,275.198 207.077,275.204 228.315 C 275.210 247.088,275.475 248.402,280.136 252.698 C 284.557 256.773,286.783 257.201,303.573 257.198 C 323.462 257.194,326.805 256.024,330.914 247.628 L 332.200 245.000 332.200 228.600 C 332.200 212.320,332.193 212.183,331.261 209.873 C 329.941 206.601,326.358 202.859,323.109 201.359 L 320.600 200.200 304.000 200.120 C 292.916 200.067,287.068 200.183,286.400 200.469 M111.969 212.831 L 113.200 214.062 113.200 228.462 L 113.200 242.862 112.031 244.031 L 110.862 245.200 96.285 245.200 L 81.709 245.200 80.680 244.171 C 79.247 242.738,79.118 241.118,79.270 226.467 L 79.400 213.933 80.706 212.767 L 82.013 211.600 96.376 211.600 L 110.738 211.600 111.969 212.831 M214.544 212.151 C 216.779 213.085,216.842 213.574,216.715 229.157 L 216.600 243.277 215.400 244.236 L 214.200 245.196 200.000 245.196 L 185.800 245.196 184.600 244.236 L 183.400 243.277 183.286 228.910 C 183.160 213.116,183.172 213.036,185.755 211.992 C 187.276 211.377,213.033 211.520,214.544 212.151 M319.336 212.645 C 320.811 214.120,320.855 214.660,320.721 229.691 L 320.600 243.183 319.491 244.291 L 318.382 245.400 303.758 245.400 L 289.134 245.400 287.967 244.094 L 286.800 242.787 286.800 228.363 L 286.800 213.938 287.969 212.769 L 289.138 211.600 303.715 211.600 L 318.291 211.600 319.336 212.645 M81.379 281.167 C 74.447 282.018,68.943 287.624,67.937 294.860 C 67.330 299.220,67.685 325.445,68.371 327.000 C 72.853 337.149,75.929 338.400,96.400 338.400 C 115.561 338.400,119.759 336.928,123.528 328.887 L 124.600 326.600 124.600 309.600 L 124.600 292.600 123.528 290.313 C 121.682 286.375,118.502 283.489,114.000 281.665 C 112.419 281.025,85.842 280.619,81.379 281.167 M180.600 282.585 C 172.391 286.561,171.200 289.985,171.200 309.600 C 171.200 326.506,171.840 329.496,176.367 333.731 C 180.809 337.885,183.414 338.400,200.000 338.400 C 217.024 338.400,220.002 337.736,224.358 332.970 C 228.467 328.474,228.772 326.862,228.772 309.600 C 228.772 289.046,227.397 285.644,217.481 281.651 C 216.713 281.341,211.204 281.204,199.881 281.214 L 183.400 281.229 180.600 282.585 M214.952 293.331 C 217.079 294.726,217.200 295.603,217.200 309.600 C 217.200 328.219,218.843 326.600,199.947 326.600 C 181.123 326.600,182.701 328.253,182.880 308.737 C 183.014 294.075,183.032 293.988,186.037 292.912 C 188.473 292.041,213.537 292.404,214.952 293.331 M318.641 293.159 C 319.926 294.014,320.447 295.098,320.686 297.413 C 321.030 300.748,320.717 301.410,318.506 302.010 C 309.103 304.562,297.752 312.629,290.499 321.915 C 286.746 326.721,286.828 326.995,286.813 309.662 C 286.798 293.844,286.824 293.696,289.723 292.829 C 291.864 292.190,317.625 292.484,318.641 293.159 M112.040 294.042 L 113.200 295.285 113.200 309.612 L 113.200 323.938 111.969 325.169 L 110.738 326.400 96.338 326.400 L 81.938 326.400 80.769 325.231 L 79.600 324.062 79.600 309.466 L 79.600 294.871 80.831 293.836 L 82.061 292.800 96.470 292.800 L 110.879 292.800 112.040 294.042 M361.597 309.421 C 360.303 313.263,356.750 321.707,355.462 324.000 C 355.030 324.770,354.192 326.300,353.600 327.400 C 347.238 339.219,336.986 351.749,326.600 360.399 C 324.620 362.048,322.910 363.493,322.800 363.610 C 322.206 364.242,314.227 369.739,312.000 371.051 C 310.570 371.893,308.860 372.902,308.200 373.293 C 304.113 375.712,295.906 379.433,289.800 381.635 C 284.721 383.467,284.615 383.403,286.356 379.555 C 288.970 373.776,290.273 367.157,290.638 357.800 C 291.225 342.783,294.721 333.893,303.717 324.540 C 307.847 320.246,317.299 314.000,319.666 314.000 C 319.982 314.000,320.411 313.843,320.620 313.651 C 321.916 312.460,332.430 310.803,338.703 310.801 C 345.525 310.799,354.097 309.026,359.697 306.457 C 362.925 304.977,363.036 305.150,361.597 309.421 " stroke="none" fill="#0f1013" fill-rule="evenodd"></path><path id="path1" d="M134.370 123.183 C 121.123 124.945,112.313 135.493,115.636 145.614 C 117.526 151.370,123.015 156.529,129.200 158.360 C 130.190 158.653,131.522 159.052,132.160 159.247 C 134.402 159.930,141.795 159.659,145.103 158.772 C 159.462 154.925,165.156 141.845,157.079 131.266 C 155.584 129.308,155.348 129.153,154.225 129.388 C 153.551 129.530,152.348 129.742,151.552 129.860 C 148.772 130.271,145.600 127.691,145.121 124.629 C 144.924 123.369,138.980 122.570,134.370 123.183 M258.432 123.219 C 255.118 123.667,254.800 123.807,254.800 124.814 C 254.800 128.275,250.248 130.865,246.528 129.519 C 245.254 129.059,245.131 129.105,243.575 130.619 C 234.852 139.111,240.141 154.384,253.131 158.214 C 254.379 158.582,255.922 159.044,256.560 159.241 C 263.159 161.282,274.534 158.210,279.900 152.938 C 293.169 139.903,279.097 120.422,258.432 123.219 M32.400 260.076 C 32.400 318.002,32.536 346.945,32.817 348.576 C 33.375 351.816,34.826 358.021,35.205 358.786 C 35.372 359.124,35.925 360.390,36.433 361.600 C 37.440 363.996,40.019 368.519,40.500 368.733 C 40.665 368.807,40.800 369.033,40.800 369.237 C 40.800 370.206,46.516 376.115,49.982 378.729 C 53.234 381.181,59.186 384.354,62.210 385.246 C 65.925 386.342,68.374 389.542,67.870 392.643 C 67.663 393.922,67.716 394.000,68.802 394.000 C 69.435 394.000,70.064 394.180,70.200 394.400 C 70.349 394.641,73.137 394.800,77.224 394.800 L 84.000 394.800 84.000 393.580 C 84.000 391.920,84.932 390.245,86.537 389.021 L 87.876 388.000 170.838 387.993 C 264.963 387.985,259.274 388.193,266.600 384.497 C 270.494 382.533,276.400 374.983,276.400 371.970 C 276.400 371.572,276.560 371.148,276.756 371.027 C 277.473 370.584,278.346 363.971,278.793 355.600 C 279.224 347.504,279.582 345.103,281.201 339.400 C 281.451 338.520,281.745 337.440,281.855 337.000 C 281.997 336.429,281.561 335.732,280.327 334.563 C 278.250 332.595,277.200 331.329,277.200 330.795 C 277.200 330.578,277.065 330.399,276.900 330.397 C 276.499 330.393,275.600 328.419,275.600 327.544 C 275.600 327.161,275.420 326.736,275.200 326.600 C 274.652 326.261,274.652 292.939,275.200 292.600 C 275.420 292.464,275.600 292.039,275.600 291.656 C 275.600 290.781,276.499 288.807,276.900 288.803 C 277.065 288.801,277.200 288.527,277.200 288.193 C 277.200 287.858,278.250 286.542,279.534 285.266 C 281.777 283.036,283.158 282.284,287.628 280.856 C 289.860 280.143,317.319 280.233,320.119 280.962 C 327.356 282.847,332.117 288.404,332.673 295.615 C 332.979 299.581,332.522 299.360,339.320 298.823 C 347.889 298.145,355.733 296.083,357.600 294.016 C 357.710 293.895,358.610 293.184,359.600 292.438 C 363.416 289.563,365.964 284.661,367.018 278.166 C 367.501 275.190,367.597 266.279,367.598 224.300 L 367.600 174.000 200.000 174.000 L 32.400 174.000 32.400 260.076 M112.984 199.813 C 117.597 201.014,121.645 204.224,123.563 208.203 C 124.093 209.301,124.678 210.513,124.863 210.895 C 125.048 211.277,125.200 219.094,125.200 228.266 C 125.200 244.230,125.025 247.064,123.981 248.000 C 123.859 248.110,123.460 248.842,123.095 249.627 C 122.246 251.454,118.522 254.984,116.534 255.845 C 115.691 256.211,114.568 256.711,114.039 256.955 C 112.690 257.580,80.096 257.575,78.761 256.951 C 74.765 255.081,73.633 254.378,71.961 252.723 C 70.915 251.689,69.464 249.621,68.731 248.122 L 67.400 245.400 67.400 228.400 L 67.400 211.400 68.722 208.740 C 70.967 204.226,74.971 200.924,79.546 199.814 C 83.005 198.974,109.762 198.973,112.984 199.813 M216.275 199.823 C 222.481 201.242,226.797 205.518,228.768 212.200 C 229.369 214.239,229.175 243.501,228.546 245.606 C 227.326 249.693,223.543 254.231,220.000 255.860 C 216.677 257.387,216.512 257.400,200.200 257.400 C 182.429 257.400,182.309 257.385,178.370 254.755 C 174.733 252.325,172.717 249.501,171.245 244.772 C 170.634 242.811,170.634 214.506,171.245 212.246 C 172.918 206.055,177.373 201.442,183.106 199.964 C 186.933 198.978,212.112 198.871,216.275 199.823 M319.836 199.823 C 324.930 201.004,329.229 204.426,331.487 209.097 L 332.600 211.400 332.600 228.400 L 332.600 245.400 331.316 248.024 C 329.178 252.393,325.794 255.335,321.200 256.819 C 318.935 257.550,287.955 257.684,286.360 256.969 C 279.953 254.096,277.621 251.769,275.251 245.881 C 274.661 244.416,274.613 211.763,275.200 211.400 C 275.420 211.264,275.600 210.713,275.600 210.176 C 275.600 209.639,275.780 209.200,276.000 209.200 C 276.220 209.200,276.400 208.840,276.400 208.400 C 276.400 207.960,276.580 207.600,276.800 207.600 C 277.020 207.600,277.200 207.357,277.200 207.061 C 277.200 205.115,283.557 200.653,287.592 199.767 C 291.157 198.984,316.407 199.028,319.836 199.823 M288.221 213.248 L 287.171 214.495 287.286 228.777 C 287.432 247.119,285.497 245.200,303.857 245.200 L 317.324 245.200 318.662 244.180 L 320.000 243.159 320.000 228.634 L 320.000 214.109 318.945 213.055 L 317.891 212.000 303.581 212.000 L 289.271 212.000 288.221 213.248 M113.952 281.130 C 117.847 282.235,121.754 285.594,123.571 289.400 C 124.096 290.500,124.678 291.713,124.863 292.095 C 125.314 293.024,125.297 326.220,124.846 327.105 C 124.651 327.487,123.976 328.851,123.346 330.136 C 121.892 333.100,119.107 335.716,115.681 337.334 L 113.000 338.600 96.600 338.600 C 81.315 338.600,80.064 338.547,78.200 337.823 C 73.694 336.072,70.723 333.392,68.695 329.247 L 67.400 326.600 67.400 309.600 L 67.400 292.600 68.693 289.958 C 70.823 285.604,73.949 282.813,78.355 281.331 C 81.503 280.272,110.354 280.110,113.952 281.130 M216.591 280.981 C 219.818 281.821,222.606 283.475,224.736 285.811 C 226.833 288.112,227.517 289.377,228.745 293.228 C 229.382 295.226,229.376 323.999,228.738 325.972 C 226.740 332.151,223.303 335.915,217.962 337.775 C 215.323 338.694,184.651 338.684,182.000 337.763 C 176.731 335.933,172.928 331.738,171.335 326.000 C 170.664 323.582,170.593 295.311,171.253 293.228 C 173.313 286.726,177.335 282.605,183.187 280.997 C 186.007 280.223,213.628 280.209,216.591 280.981 M359.832 307.002 C 358.750 307.551,357.546 308.000,357.156 308.000 C 356.766 308.000,356.336 308.180,356.200 308.400 C 356.064 308.620,355.524 308.800,355.000 308.800 C 354.476 308.800,353.936 308.980,353.800 309.200 C 353.664 309.420,352.969 309.600,352.256 309.600 C 351.543 309.600,350.789 309.763,350.580 309.963 C 350.114 310.408,347.548 310.710,340.000 311.205 C 330.940 311.800,324.137 312.654,323.774 313.242 C 323.652 313.439,323.124 313.600,322.600 313.600 C 322.076 313.600,321.536 313.780,321.400 314.000 C 321.264 314.220,320.855 314.400,320.490 314.400 C 315.730 314.400,298.000 328.828,298.000 332.702 C 298.000 332.939,297.864 333.193,297.698 333.267 C 297.279 333.452,294.637 338.956,293.602 341.800 C 292.790 344.032,292.400 345.558,292.400 346.505 C 292.400 347.081,292.248 347.647,292.062 347.761 C 291.877 347.876,291.592 350.362,291.429 353.285 C 290.778 364.980,290.281 369.252,289.043 373.800 C 288.329 376.422,288.217 376.719,286.665 380.100 C 286.084 381.365,285.652 382.398,285.704 382.395 C 287.971 382.273,301.831 376.297,307.800 372.869 C 311.385 370.811,313.055 369.774,313.529 369.314 C 313.819 369.031,314.201 368.800,314.378 368.800 C 314.724 368.800,322.107 363.503,324.400 361.610 C 325.170 360.975,326.430 359.947,327.200 359.327 C 329.030 357.854,337.257 349.536,338.911 347.486 C 339.620 346.608,340.785 345.290,341.500 344.558 C 342.215 343.826,342.800 343.075,342.800 342.889 C 342.800 342.703,343.120 342.202,343.511 341.775 C 343.902 341.349,344.658 340.370,345.192 339.600 C 345.725 338.830,346.271 338.110,346.405 338.000 C 347.113 337.417,352.623 328.215,353.889 325.500 C 354.274 324.675,354.726 324.000,354.894 324.000 C 355.062 324.000,355.200 323.640,355.200 323.200 C 355.200 322.760,355.380 322.400,355.600 322.400 C 355.820 322.400,356.000 322.155,356.000 321.856 C 356.000 321.557,356.564 320.162,357.253 318.756 C 357.942 317.350,358.638 315.840,358.799 315.400 C 359.241 314.198,360.049 312.288,360.447 311.505 C 360.641 311.123,360.800 310.459,360.800 310.029 C 360.800 309.599,360.980 309.136,361.200 309.000 C 361.420 308.864,361.600 308.349,361.600 307.856 C 361.600 307.363,361.816 306.744,362.080 306.480 C 362.843 305.717,361.961 305.922,359.832 307.002 " stroke="none" fill="#faeac7" fill-rule="evenodd"></path><path id="path2" d="M148.381 56.298 L 170.763 56.407 170.940 62.903 C 171.127 69.725,171.446 72.658,172.042 73.026 C 172.239 73.148,172.400 73.571,172.400 73.967 C 172.400 74.752,174.813 79.717,175.300 79.933 C 175.465 80.007,175.600 80.283,175.600 80.548 C 175.600 80.812,176.315 81.832,177.189 82.814 C 178.062 83.797,178.782 84.704,178.789 84.830 C 178.836 85.780,187.600 91.617,188.941 91.591 C 189.193 91.586,188.320 90.999,187.000 90.288 C 179.973 86.499,175.369 81.117,172.894 73.800 C 171.645 70.108,171.493 69.061,171.238 62.400 L 171.000 56.200 148.500 56.195 L 126.000 56.190 148.381 56.298 M229.013 56.500 C 228.924 56.775,228.770 59.790,228.671 63.200 C 228.293 76.256,223.186 85.097,213.000 90.329 C 211.680 91.007,210.831 91.570,211.113 91.581 C 212.720 91.641,219.613 86.966,221.525 84.519 C 222.116 83.763,223.008 82.661,223.506 82.072 C 224.004 81.482,224.633 80.505,224.903 79.900 C 225.174 79.295,225.531 78.800,225.698 78.800 C 225.864 78.800,226.000 78.440,226.000 78.000 C 226.000 77.560,226.180 77.200,226.400 77.200 C 226.620 77.200,226.800 76.851,226.800 76.424 C 226.800 75.997,226.980 75.536,227.200 75.400 C 227.420 75.264,227.600 74.724,227.600 74.200 C 227.600 73.676,227.761 73.148,227.958 73.026 C 228.554 72.658,228.873 69.725,229.060 62.903 L 229.237 56.407 251.719 56.300 L 274.200 56.193 251.687 56.097 C 233.962 56.021,229.140 56.106,229.013 56.500 M63.151 62.747 C 48.312 70.388,37.179 84.826,33.466 101.243 C 32.111 107.234,31.944 111.491,32.073 136.800 L 32.200 161.800 200.000 161.800 L 367.800 161.800 368.000 138.800 C 368.226 112.838,368.072 114.040,371.387 112.399 C 372.896 111.652,372.929 111.601,371.900 111.600 C 371.295 111.600,370.800 111.780,370.800 112.000 C 370.800 112.220,370.554 112.400,370.253 112.400 C 369.952 112.400,369.232 113.116,368.653 113.991 L 367.600 115.583 367.600 138.592 L 367.600 161.601 244.900 161.501 L 122.200 161.400 121.980 158.298 L 121.760 155.197 119.654 153.102 C 113.140 146.621,112.726 137.542,118.632 130.659 L 120.054 129.000 119.821 124.400 C 119.693 121.870,119.397 111.860,119.165 102.156 C 118.696 82.568,118.544 84.097,121.400 79.600 C 122.168 78.390,122.797 77.133,122.798 76.806 C 122.799 76.480,122.091 77.426,121.224 78.910 C 106.497 104.112,69.297 94.780,67.712 65.486 C 67.428 60.231,67.709 60.400,63.151 62.747 M332.621 61.300 C 332.536 61.575,332.370 63.634,332.252 65.876 C 331.574 78.706,323.792 88.659,311.618 92.264 C 309.022 93.032,308.807 93.160,310.076 93.179 C 310.888 93.190,311.664 93.020,311.800 92.800 C 311.936 92.580,312.399 92.400,312.829 92.400 C 313.259 92.400,313.923 92.241,314.305 92.047 C 314.687 91.852,315.540 91.452,316.200 91.157 C 321.625 88.735,327.360 83.001,329.959 77.400 C 330.470 76.300,331.048 75.087,331.244 74.705 C 331.440 74.323,331.600 73.659,331.600 73.229 C 331.600 72.799,331.754 72.352,331.943 72.235 C 332.315 72.005,332.745 69.226,333.185 64.200 C 333.339 62.440,333.495 61.225,333.532 61.500 C 333.570 61.775,333.865 62.000,334.188 62.000 C 334.511 62.000,335.411 62.360,336.188 62.800 C 336.965 63.240,338.275 63.981,339.100 64.447 C 344.249 67.356,351.966 74.021,355.024 78.200 C 355.669 79.080,356.298 79.890,356.424 80.000 C 356.951 80.461,359.200 83.976,359.200 84.339 C 359.200 84.556,359.345 84.793,359.522 84.867 C 359.699 84.940,360.795 86.980,361.958 89.400 C 365.042 95.817,367.722 97.623,371.799 96.032 C 372.294 95.839,371.583 95.735,369.931 95.760 C 366.220 95.816,365.547 95.227,362.550 89.302 C 356.524 77.388,348.210 68.721,337.167 62.841 C 332.983 60.613,332.847 60.567,332.621 61.300 M124.879 66.650 C 124.836 67.778,124.686 69.308,124.547 70.050 C 124.355 71.076,124.407 71.295,124.766 70.961 C 125.073 70.676,125.189 69.488,125.098 67.561 C 124.993 65.326,124.939 65.103,124.879 66.650 M274.854 67.676 C 274.824 69.368,274.980 70.864,275.200 71.000 C 275.420 71.136,275.600 71.766,275.600 72.400 C 275.600 73.034,275.780 73.664,276.000 73.800 C 276.220 73.936,276.400 74.487,276.400 75.024 C 276.400 75.561,276.599 76.000,276.843 76.000 C 277.086 76.000,277.179 75.723,277.050 75.385 C 276.266 73.343,275.467 69.897,275.208 67.438 L 274.909 64.600 274.854 67.676 M123.647 73.210 C 123.376 74.195,123.060 75.225,122.944 75.500 C 122.828 75.775,122.889 76.000,123.079 76.000 C 123.514 76.000,124.537 72.612,124.309 71.927 C 124.216 71.649,123.918 72.226,123.647 73.210 M277.209 76.705 C 277.201 77.179,277.953 78.754,278.401 79.200 C 278.511 79.310,278.865 79.940,279.187 80.600 C 280.261 82.798,286.806 88.892,289.610 90.306 C 293.091 92.061,293.651 91.951,290.400 90.152 C 285.509 87.445,281.282 83.277,278.481 78.400 C 277.786 77.190,277.214 76.427,277.209 76.705 M189.800 92.000 C 189.936 92.220,190.442 92.387,190.924 92.372 C 191.769 92.345,191.771 92.331,191.000 92.000 C 189.899 91.527,189.508 91.527,189.800 92.000 M209.000 92.000 C 208.291 92.305,208.325 92.347,209.300 92.372 C 209.905 92.387,210.400 92.220,210.400 92.000 C 210.400 91.531,210.093 91.531,209.000 92.000 M293.364 91.942 C 293.520 92.194,294.076 92.400,294.600 92.400 C 295.124 92.400,295.664 92.580,295.800 92.800 C 295.936 93.020,296.712 93.188,297.524 93.173 C 299.140 93.143,299.378 93.241,294.040 91.751 C 293.370 91.564,293.166 91.622,293.364 91.942 M192.200 92.800 C 192.336 93.020,193.022 93.182,193.724 93.160 C 194.943 93.122,194.955 93.106,194.000 92.800 C 192.564 92.340,191.916 92.340,192.200 92.800 M206.000 92.800 C 205.108 93.086,205.161 93.125,206.500 93.160 C 207.325 93.182,208.000 93.020,208.000 92.800 C 208.000 92.342,207.430 92.342,206.000 92.800 M195.848 93.677 C 196.111 94.103,203.649 94.083,204.325 93.655 C 204.621 93.467,202.845 93.329,200.249 93.338 C 197.719 93.347,195.738 93.500,195.848 93.677 M299.448 93.677 C 299.705 94.094,307.242 94.088,307.899 93.671 C 308.174 93.496,306.339 93.354,303.823 93.354 C 301.307 93.354,299.338 93.499,299.448 93.677 M147.300 109.433 C 146.585 109.997,146.000 110.656,146.000 110.899 C 146.000 111.141,146.433 110.933,146.962 110.436 C 147.491 109.939,148.616 109.285,149.462 108.983 C 150.969 108.446,150.976 108.435,149.800 108.422 C 149.101 108.414,148.057 108.837,147.300 109.433 M152.639 108.674 C 153.966 108.936,156.107 110.946,156.646 112.437 C 157.068 113.603,157.144 113.661,157.170 112.838 C 157.205 111.709,155.419 109.200,154.580 109.200 C 154.261 109.200,154.000 109.020,154.000 108.800 C 154.000 108.580,153.505 108.425,152.900 108.454 C 152.053 108.496,151.993 108.547,152.639 108.674 M246.000 108.800 C 246.000 109.020,245.758 109.200,245.462 109.200 C 245.166 109.200,244.626 109.529,244.262 109.931 C 243.102 111.213,243.549 111.278,245.100 110.054 C 245.925 109.403,246.960 108.785,247.400 108.681 C 248.000 108.540,247.925 108.481,247.100 108.446 C 246.495 108.421,246.000 108.580,246.000 108.800 M251.000 109.152 C 254.101 110.576,254.765 112.221,254.884 118.760 L 254.969 123.400 255.107 119.200 C 255.344 112.019,253.791 108.383,250.500 108.409 C 249.477 108.417,249.512 108.469,251.000 109.152 M145.200 112.867 C 145.200 114.323,145.375 114.270,145.751 112.700 C 145.908 112.047,145.850 111.600,145.608 111.600 C 145.383 111.600,145.200 112.170,145.200 112.867 M242.800 112.867 C 242.800 114.323,242.975 114.270,243.351 112.700 C 243.508 112.047,243.450 111.600,243.208 111.600 C 242.983 111.600,242.800 112.170,242.800 112.867 M157.354 119.200 C 157.354 121.950,157.418 123.075,157.496 121.700 C 157.574 120.325,157.574 118.075,157.496 116.700 C 157.418 115.325,157.354 116.450,157.354 119.200 M185.317 117.485 C 183.558 118.081,181.200 120.365,181.200 121.473 C 181.200 121.866,181.552 121.601,182.100 120.796 C 184.314 117.543,187.825 116.811,190.597 119.023 C 198.131 125.037,202.380 125.066,209.289 119.152 C 213.777 115.311,220.528 120.219,218.229 125.651 C 216.999 128.559,211.502 132.703,207.200 133.965 C 206.210 134.256,204.878 134.652,204.240 134.847 C 198.940 136.462,189.660 133.755,184.580 129.112 C 182.287 127.016,181.725 126.103,181.191 123.600 C 180.896 122.221,180.891 122.218,180.855 123.400 C 180.740 127.116,185.616 131.862,192.100 134.345 C 194.773 135.368,196.234 135.600,200.000 135.600 C 202.279 135.600,204.786 135.395,205.572 135.145 C 217.263 131.417,222.523 123.838,216.936 118.770 C 214.399 116.469,210.822 116.687,208.043 119.312 C 205.880 121.355,204.194 122.400,203.062 122.400 C 202.504 122.400,201.936 122.580,201.800 122.800 C 201.664 123.020,200.854 123.200,200.000 123.200 C 199.146 123.200,198.336 123.020,198.200 122.800 C 198.064 122.580,197.423 122.400,196.776 122.400 C 196.129 122.400,195.600 122.220,195.600 122.000 C 195.600 121.780,195.349 121.600,195.043 121.600 C 194.737 121.600,193.565 120.772,192.440 119.760 C 189.800 117.386,187.644 116.698,185.317 117.485 M242.832 124.962 C 242.799 126.158,244.481 128.800,245.275 128.800 C 245.514 128.800,245.231 128.322,244.646 127.737 C 244.062 127.153,243.482 126.208,243.357 125.637 C 242.976 123.894,242.864 123.751,242.832 124.962 M156.698 125.637 C 156.543 126.208,155.938 127.153,155.354 127.737 C 154.769 128.322,154.483 128.800,154.717 128.800 C 155.120 128.800,155.498 128.462,156.726 127.003 C 157.016 126.659,157.191 125.977,157.116 125.489 C 156.986 124.646,156.965 124.654,156.698 125.637 M88.926 199.900 C 93.066 199.965,99.726 199.965,103.726 199.899 C 107.727 199.834,104.340 199.781,96.200 199.781 C 88.060 199.781,84.787 199.834,88.926 199.900 M192.700 199.899 C 196.715 199.965,203.285 199.965,207.300 199.899 C 211.315 199.834,208.030 199.781,200.000 199.781 C 191.970 199.781,188.685 199.834,192.700 199.899 M296.500 199.899 C 300.405 199.965,306.795 199.965,310.700 199.899 C 314.605 199.834,311.410 199.780,303.600 199.780 C 295.790 199.780,292.595 199.834,296.500 199.899 M221.400 202.279 C 222.688 203.594,225.281 205.643,224.400 204.650 C 223.850 204.029,222.860 203.150,222.200 202.696 C 221.540 202.242,221.180 202.054,221.400 202.279 M72.185 204.500 L 70.200 206.600 72.300 204.615 C 74.251 202.771,74.583 202.400,74.285 202.400 C 74.222 202.400,73.277 203.345,72.185 204.500 M327.183 204.100 C 328.164 205.145,329.019 206.000,329.083 206.000 C 329.384 206.000,329.066 205.641,327.300 203.983 L 325.400 202.200 327.183 204.100 M120.568 204.800 C 122.664 207.243,123.085 207.626,122.104 206.200 C 121.650 205.540,120.771 204.550,120.150 204.000 C 119.401 203.336,119.541 203.604,120.568 204.800 M175.775 204.500 L 174.600 205.800 175.900 204.625 C 177.112 203.530,177.384 203.200,177.075 203.200 C 177.006 203.200,176.421 203.785,175.775 204.500 M193.100 211.899 C 196.895 211.965,203.105 211.965,206.900 211.899 C 210.695 211.834,207.590 211.780,200.000 211.780 C 192.410 211.780,189.305 211.834,193.100 211.899 M184.221 213.248 L 183.171 214.495 183.286 228.834 C 183.390 241.864,183.464 243.236,184.100 243.872 C 184.485 244.257,184.800 244.368,184.800 244.119 C 184.800 243.870,184.575 243.592,184.300 243.500 C 183.912 243.371,183.800 240.051,183.800 228.699 L 183.800 214.064 184.770 213.032 C 185.303 212.465,185.634 212.000,185.505 212.000 C 185.376 212.000,184.799 212.561,184.221 213.248 M215.100 212.791 C 215.595 213.253,216.039 213.669,216.087 213.716 C 216.135 213.762,216.275 220.280,216.397 228.200 L 216.620 242.600 216.710 228.680 C 216.805 213.942,216.692 212.903,214.915 212.224 C 214.366 212.014,214.409 212.146,215.100 212.791 M67.693 214.000 C 67.693 214.770,67.775 215.085,67.876 214.700 C 67.976 214.315,67.976 213.685,67.876 213.300 C 67.775 212.915,67.693 213.230,67.693 214.000 M124.982 228.400 C 124.982 237.090,125.035 240.645,125.100 236.300 C 125.164 231.955,125.164 224.845,125.100 220.500 C 125.035 216.155,124.982 219.710,124.982 228.400 M274.982 228.400 C 274.982 236.870,275.035 240.335,275.099 236.100 C 275.164 231.865,275.164 224.935,275.099 220.700 C 275.035 216.465,274.982 219.930,274.982 228.400 M320.580 228.600 C 320.580 236.300,320.634 239.393,320.699 235.474 C 320.765 231.555,320.765 225.255,320.699 221.474 C 320.634 217.693,320.580 220.900,320.580 228.600 M67.379 228.400 C 67.379 235.550,67.433 238.475,67.499 234.900 C 67.566 231.325,67.566 225.475,67.499 221.900 C 67.433 218.325,67.379 221.250,67.379 228.400 M79.379 228.400 C 79.379 235.550,79.433 238.475,79.499 234.900 C 79.566 231.325,79.566 225.475,79.499 221.900 C 79.433 218.325,79.379 221.250,79.379 228.400 M111.999 243.700 C 111.410 244.504,111.313 244.784,111.745 244.433 C 112.401 243.900,113.393 242.400,113.089 242.400 C 113.013 242.400,112.522 242.985,111.999 243.700 M319.126 244.088 C 318.535 244.699,318.188 245.200,318.356 245.200 C 318.735 245.200,320.599 243.245,320.368 243.089 C 320.276 243.026,319.716 243.476,319.126 244.088 M296.674 245.499 C 300.455 245.565,306.755 245.565,310.674 245.499 C 314.593 245.434,311.500 245.380,303.800 245.380 C 296.100 245.380,292.893 245.434,296.674 245.499 M225.785 250.100 C 225.168 251.035,224.920 251.589,225.232 251.331 C 225.833 250.834,227.364 248.400,227.076 248.400 C 226.983 248.400,226.402 249.165,225.785 250.100 M120.181 252.500 L 118.600 254.200 120.300 252.619 C 121.881 251.148,122.184 250.800,121.881 250.800 C 121.816 250.800,121.051 251.565,120.181 252.500 M175.800 252.400 C 176.659 253.280,177.452 254.000,177.562 254.000 C 177.672 254.000,177.059 253.280,176.200 252.400 C 175.341 251.520,174.548 250.800,174.438 250.800 C 174.328 250.800,174.941 251.520,175.800 252.400 M279.400 252.400 C 280.259 253.280,281.052 254.000,281.162 254.000 C 281.272 254.000,280.659 253.280,279.800 252.400 C 278.941 251.520,278.148 250.800,278.038 250.800 C 277.928 250.800,278.541 251.520,279.400 252.400 M74.800 254.764 C 75.350 255.214,75.980 255.583,76.200 255.585 C 76.628 255.588,75.905 255.034,74.600 254.360 C 74.069 254.085,74.136 254.221,74.800 254.764 M111.800 256.800 C 110.693 257.082,110.677 257.109,111.600 257.147 C 112.150 257.169,112.870 257.013,113.200 256.800 C 113.881 256.360,113.529 256.360,111.800 256.800 M81.700 281.076 C 82.085 281.176,82.715 281.176,83.100 281.076 C 83.485 280.975,83.170 280.893,82.400 280.893 C 81.630 280.893,81.315 280.975,81.700 281.076 M109.700 281.076 C 110.085 281.176,110.715 281.176,111.100 281.076 C 111.485 280.975,111.170 280.893,110.400 280.893 C 109.630 280.893,109.315 280.975,109.700 281.076 M192.500 281.099 C 196.625 281.164,203.375 281.164,207.500 281.099 C 211.625 281.034,208.250 280.981,200.000 280.981 C 191.750 280.981,188.375 281.034,192.500 281.099 M296.326 281.100 C 300.576 281.164,307.416 281.164,311.526 281.099 C 315.637 281.034,312.160 280.981,303.800 280.981 C 295.440 280.982,292.077 281.035,296.326 281.100 M119.983 285.300 C 121.641 287.066,122.000 287.384,122.000 287.083 C 122.000 287.019,121.145 286.164,120.100 285.183 L 118.200 283.400 119.983 285.300 M176.575 284.900 L 175.400 286.200 176.700 285.025 C 177.912 283.930,178.184 283.600,177.875 283.600 C 177.806 283.600,177.221 284.185,176.575 284.900 M360.778 291.900 L 359.400 293.400 360.900 292.022 C 361.725 291.263,362.400 290.588,362.400 290.522 C 362.400 290.216,362.062 290.504,360.778 291.900 M289.723 292.829 C 286.824 293.696,286.798 293.844,286.813 309.662 C 286.828 326.995,286.746 326.721,290.499 321.915 C 297.752 312.629,309.103 304.562,318.506 302.010 C 320.717 301.410,321.030 300.748,320.686 297.413 C 320.447 295.098,319.926 294.014,318.641 293.159 C 317.625 292.484,291.864 292.190,289.723 292.829 M319.128 294.203 C 319.854 295.038,320.000 295.699,320.000 298.140 L 320.000 301.073 318.300 301.555 C 316.539 302.054,316.263 302.161,313.104 303.560 C 312.062 304.022,311.114 304.400,310.997 304.400 C 310.881 304.400,309.662 305.075,308.288 305.900 C 306.914 306.725,305.297 307.655,304.695 307.968 C 304.093 308.280,303.600 308.685,303.600 308.868 C 303.600 309.050,303.345 309.200,303.033 309.200 C 302.722 309.200,302.407 309.335,302.333 309.500 C 302.260 309.665,301.179 310.576,299.931 311.525 C 297.033 313.727,291.828 319.214,289.612 322.400 C 288.343 324.225,287.860 324.523,287.528 323.685 C 287.028 322.426,287.155 296.032,287.665 295.074 C 288.650 293.226,288.646 293.226,303.828 293.213 L 318.256 293.200 319.128 294.203 M124.982 309.600 C 124.982 318.290,125.035 321.845,125.100 317.500 C 125.164 313.155,125.164 306.045,125.100 301.700 C 125.035 297.355,124.982 300.910,124.982 309.600 M274.982 309.600 C 274.982 318.070,275.035 321.535,275.099 317.300 C 275.164 313.065,275.164 306.135,275.099 301.900 C 275.035 297.665,274.982 301.130,274.982 309.600 M67.379 309.600 C 67.379 316.750,67.433 319.675,67.499 316.100 C 67.566 312.525,67.566 306.675,67.499 303.100 C 67.433 299.525,67.379 302.450,67.379 309.600 M182.979 309.600 C 182.979 316.750,183.033 319.675,183.099 316.100 C 183.166 312.525,183.166 306.675,183.099 303.100 C 183.033 299.525,182.979 302.450,182.979 309.600 M351.600 309.200 C 350.776 309.464,350.741 309.526,351.400 309.554 C 351.840 309.573,352.470 309.413,352.800 309.200 C 353.501 308.747,353.014 308.747,351.600 309.200 M346.900 310.276 C 347.285 310.376,347.915 310.376,348.300 310.276 C 348.685 310.175,348.370 310.093,347.600 310.093 C 346.830 310.093,346.515 310.175,346.900 310.276 M335.500 311.095 C 336.655 311.176,338.545 311.176,339.700 311.095 C 340.855 311.014,339.910 310.948,337.600 310.948 C 335.290 310.948,334.345 311.014,335.500 311.095 M327.300 311.876 C 327.685 311.976,328.315 311.976,328.700 311.876 C 329.085 311.775,328.770 311.693,328.000 311.693 C 327.230 311.693,326.915 311.775,327.300 311.876 M304.189 324.100 L 301.400 327.000 304.300 324.211 C 306.994 321.620,307.383 321.200,307.089 321.200 C 307.028 321.200,305.723 322.505,304.189 324.100 M67.693 324.000 C 67.693 324.770,67.775 325.085,67.876 324.700 C 67.976 324.315,67.976 323.685,67.876 323.300 C 67.775 322.915,67.693 323.230,67.693 324.000 M193.900 326.699 C 197.255 326.766,202.745 326.766,206.100 326.699 C 209.455 326.632,206.710 326.578,200.000 326.578 C 193.290 326.578,190.545 326.632,193.900 326.699 M120.181 333.700 L 118.600 335.400 120.300 333.819 C 121.881 332.348,122.184 332.000,121.881 332.000 C 121.816 332.000,121.051 332.765,120.181 333.700 M176.000 333.800 C 176.746 334.570,177.447 335.200,177.557 335.200 C 177.667 335.200,177.146 334.570,176.400 333.800 C 175.654 333.030,174.953 332.400,174.843 332.400 C 174.733 332.400,175.254 333.030,176.000 333.800 M223.578 333.900 L 222.200 335.400 223.700 334.022 C 225.096 332.738,225.384 332.400,225.078 332.400 C 225.012 332.400,224.337 333.075,223.578 333.900 M281.634 335.447 C 282.165 336.133,282.680 336.623,282.779 336.535 C 282.877 336.447,282.443 335.886,281.813 335.288 L 280.669 334.200 281.634 335.447 M294.865 337.017 C 294.195 338.488,294.323 338.802,295.047 337.465 C 295.386 336.840,295.588 336.254,295.496 336.163 C 295.405 336.071,295.121 336.456,294.865 337.017 M79.800 337.990 C 80.564 338.328,83.114 338.557,82.767 338.256 C 82.675 338.176,81.790 338.004,80.800 337.873 C 79.598 337.714,79.266 337.753,79.800 337.990 M111.200 338.000 C 109.816 338.291,109.814 338.295,111.000 338.341 C 111.660 338.367,112.470 338.213,112.800 338.000 C 113.466 337.570,113.245 337.570,111.200 338.000 M184.900 338.276 C 185.285 338.376,185.915 338.376,186.300 338.276 C 186.685 338.175,186.370 338.093,185.600 338.093 C 184.830 338.093,184.515 338.175,184.900 338.276 M213.700 338.276 C 214.085 338.376,214.715 338.376,215.100 338.276 C 215.485 338.175,215.170 338.093,214.400 338.093 C 213.630 338.093,213.315 338.175,213.700 338.276 M291.850 345.650 C 291.709 346.353,291.669 347.002,291.759 347.092 C 291.850 347.183,292.048 346.691,292.200 346.000 C 292.352 345.309,292.393 344.659,292.291 344.558 C 292.189 344.456,291.991 344.947,291.850 345.650 M32.101 347.400 C 32.105 348.280,32.187 348.593,32.283 348.095 C 32.379 347.598,32.375 346.878,32.275 346.495 C 32.175 346.113,32.096 346.520,32.101 347.400 M337.600 349.400 C 336.628 350.390,335.923 351.200,336.033 351.200 C 336.143 351.200,337.028 350.390,338.000 349.400 C 338.972 348.410,339.677 347.600,339.567 347.600 C 339.457 347.600,338.572 348.410,337.600 349.400 M290.987 350.987 C 290.831 352.444,290.789 353.723,290.895 353.828 C 291.001 353.934,291.210 352.823,291.360 351.360 C 291.510 349.897,291.551 348.618,291.452 348.518 C 291.352 348.419,291.143 349.529,290.987 350.987 M32.868 352.600 C 32.862 353.040,33.011 353.760,33.200 354.200 C 33.638 355.219,33.638 354.168,33.200 352.800 C 32.943 351.996,32.877 351.957,32.868 352.600 M333.381 354.100 L 331.800 355.800 333.500 354.219 C 334.435 353.349,335.200 352.584,335.200 352.519 C 335.200 352.216,334.852 352.519,333.381 354.100 M278.950 357.000 C 278.951 359.420,279.016 360.358,279.096 359.085 C 279.176 357.812,279.175 355.832,279.094 354.685 C 279.014 353.538,278.949 354.580,278.950 357.000 M328.981 358.100 L 327.400 359.800 329.100 358.219 C 330.035 357.349,330.800 356.584,330.800 356.519 C 330.800 356.216,330.452 356.519,328.981 358.100 M290.524 362.200 C 290.526 363.520,290.601 364.012,290.690 363.293 C 290.779 362.574,290.777 361.494,290.686 360.893 C 290.595 360.292,290.522 360.880,290.524 362.200 M313.700 369.646 C 312.337 370.519,311.895 371.106,313.100 370.443 C 314.018 369.939,315.456 368.827,315.200 368.819 C 315.090 368.816,314.415 369.188,313.700 369.646 M44.600 374.800 C 45.906 376.120,47.065 377.200,47.175 377.200 C 47.285 377.200,46.306 376.120,45.000 374.800 C 43.694 373.480,42.535 372.400,42.425 372.400 C 42.315 372.400,43.294 373.480,44.600 374.800 M271.178 381.500 L 269.800 383.000 271.300 381.622 C 272.696 380.338,272.984 380.000,272.678 380.000 C 272.612 380.000,271.937 380.675,271.178 381.500 M52.800 381.379 C 52.800 381.489,53.340 381.859,54.000 382.200 C 54.660 382.541,55.200 382.731,55.200 382.621 C 55.200 382.511,54.660 382.141,54.000 381.800 C 53.340 381.459,52.800 381.269,52.800 381.379 M65.594 387.803 C 67.187 389.721,67.321 389.845,66.886 388.996 C 66.659 388.553,66.052 387.834,65.537 387.398 C 64.633 386.634,64.635 386.648,65.594 387.803 M122.500 388.300 C 140.705 388.358,170.495 388.358,188.700 388.300 C 206.905 388.242,192.010 388.195,155.600 388.195 C 119.190 388.195,104.295 388.242,122.500 388.300 M252.500 388.287 C 253.105 388.378,254.095 388.378,254.700 388.287 C 255.305 388.195,254.810 388.120,253.600 388.120 C 252.390 388.120,251.895 388.195,252.500 388.287 M67.314 392.200 C 67.317 393.300,67.395 393.703,67.487 393.095 C 67.579 392.486,67.577 391.586,67.482 391.095 C 67.387 390.603,67.311 391.100,67.314 392.200 " stroke="none" fill="#e06b7a" fill-rule="evenodd"></path><path id="path3" d="M125.200 63.576 C 125.200 67.929,125.043 70.850,124.800 71.000 C 124.580 71.136,124.400 71.629,124.400 72.095 C 124.400 73.010,123.557 75.673,123.164 76.000 C 123.031 76.110,122.810 76.650,122.673 77.200 C 122.535 77.750,121.652 79.370,120.711 80.800 L 119.000 83.400 119.117 94.200 C 119.181 100.140,119.397 110.395,119.597 116.989 L 119.960 128.977 118.880 130.334 C 112.687 138.113,112.970 146.453,119.654 153.102 L 121.760 155.197 121.980 158.298 L 122.200 161.400 244.900 161.501 L 367.600 161.601 367.600 138.592 L 367.600 115.583 368.653 113.991 C 369.232 113.116,369.952 112.400,370.253 112.400 C 370.554 112.400,370.800 112.220,370.800 112.000 C 370.800 111.780,371.484 111.600,372.320 111.600 C 373.156 111.600,374.056 111.384,374.320 111.120 C 374.833 110.607,375.004 107.028,374.500 107.337 C 374.335 107.439,374.141 106.326,374.069 104.865 C 373.997 103.404,373.810 102.117,373.654 102.004 C 373.498 101.892,373.318 101.080,373.253 100.200 C 373.188 99.320,372.969 98.429,372.767 98.220 C 372.565 98.011,372.400 97.439,372.400 96.949 C 372.400 96.107,372.277 96.070,370.182 96.287 C 366.308 96.687,364.889 95.498,361.958 89.400 C 360.795 86.980,359.699 84.940,359.522 84.867 C 359.345 84.793,359.200 84.556,359.200 84.339 C 359.200 83.976,356.951 80.461,356.424 80.000 C 356.298 79.890,355.669 79.080,355.024 78.200 C 351.966 74.021,344.249 67.356,339.100 64.447 C 338.275 63.981,336.965 63.240,336.188 62.800 C 335.411 62.360,334.511 62.000,334.188 62.000 C 333.865 62.000,333.570 61.775,333.532 61.500 C 333.495 61.225,333.339 62.440,333.185 64.200 C 332.745 69.226,332.315 72.005,331.943 72.235 C 331.754 72.352,331.600 72.799,331.600 73.229 C 331.600 73.659,331.440 74.323,331.244 74.705 C 331.048 75.087,330.470 76.300,329.959 77.400 C 327.360 83.001,321.625 88.735,316.200 91.157 C 315.540 91.452,314.687 91.852,314.305 92.047 C 313.923 92.241,313.284 92.400,312.885 92.400 C 312.486 92.400,311.989 92.562,311.780 92.759 C 310.888 93.602,300.196 94.356,299.468 93.628 C 299.232 93.392,298.367 93.200,297.544 93.200 C 296.721 93.200,295.936 93.020,295.800 92.800 C 295.664 92.580,295.201 92.400,294.771 92.400 C 294.341 92.400,293.677 92.240,293.295 92.045 C 292.913 91.850,291.344 91.085,289.810 90.345 C 286.811 88.899,280.343 82.966,279.187 80.600 C 278.865 79.940,278.511 79.310,278.401 79.200 C 277.923 78.724,277.200 77.161,277.200 76.605 C 277.200 76.272,277.020 76.000,276.800 76.000 C 276.580 76.000,276.400 75.561,276.400 75.024 C 276.400 74.487,276.220 73.936,276.000 73.800 C 275.780 73.664,275.600 73.034,275.600 72.400 C 275.600 71.766,275.420 71.136,275.200 71.000 C 274.957 70.850,274.800 67.929,274.800 63.576 L 274.800 56.400 252.019 56.400 L 229.237 56.400 229.060 62.900 C 228.873 69.725,228.554 72.658,227.958 73.026 C 227.761 73.148,227.600 73.676,227.600 74.200 C 227.600 74.724,227.420 75.264,227.200 75.400 C 226.980 75.536,226.800 75.997,226.800 76.424 C 226.800 76.851,226.620 77.200,226.400 77.200 C 226.180 77.200,226.000 77.560,226.000 78.000 C 226.000 78.440,225.864 78.800,225.698 78.800 C 225.531 78.800,225.171 79.295,224.896 79.900 C 223.092 83.872,215.192 90.695,211.500 91.469 C 210.895 91.596,210.400 91.858,210.400 92.050 C 210.400 92.243,209.860 92.400,209.200 92.400 C 208.540 92.400,208.000 92.562,208.000 92.760 C 208.000 93.545,196.601 94.361,195.868 93.628 C 195.632 93.392,194.767 93.200,193.944 93.200 C 193.121 93.200,192.336 93.020,192.200 92.800 C 192.064 92.580,191.601 92.400,191.171 92.400 C 190.741 92.400,190.077 92.236,189.695 92.035 C 189.313 91.834,187.960 91.188,186.689 90.600 C 184.582 89.625,178.816 85.423,178.789 84.843 C 178.782 84.709,178.062 83.797,177.189 82.814 C 176.315 81.832,175.600 80.812,175.600 80.548 C 175.600 80.283,175.465 80.007,175.300 79.933 C 174.813 79.717,172.400 74.752,172.400 73.967 C 172.400 73.571,172.239 73.148,172.042 73.026 C 171.446 72.658,171.127 69.725,170.940 62.900 L 170.763 56.400 147.981 56.400 L 125.200 56.400 125.200 63.576 M154.000 108.800 C 154.000 109.020,154.261 109.200,154.580 109.200 C 154.898 109.200,155.663 109.861,156.280 110.669 L 157.400 112.138 157.400 119.197 C 157.400 125.388,157.314 126.343,156.700 126.957 C 156.315 127.342,156.000 127.809,156.000 127.995 C 156.000 128.181,155.505 128.514,154.900 128.735 C 153.964 129.077,153.927 129.142,154.651 129.168 C 155.187 129.188,156.097 129.978,157.106 131.300 C 163.869 140.160,161.055 151.106,150.585 156.672 C 145.814 159.208,136.367 160.528,132.160 159.247 C 131.522 159.052,130.190 158.653,129.200 158.360 C 114.736 154.078,110.388 137.947,121.203 128.690 C 126.477 124.176,137.662 121.641,143.900 123.547 L 145.200 123.944 145.200 117.772 C 145.200 113.924,145.351 111.600,145.600 111.600 C 145.820 111.600,146.000 111.343,146.000 111.029 C 146.000 109.636,148.478 108.409,151.300 108.404 C 152.836 108.402,154.000 108.572,154.000 108.800 M253.171 109.971 C 255.062 111.862,255.333 113.174,255.137 119.479 L 255.000 123.871 256.600 123.489 C 277.124 118.594,293.628 139.452,279.900 152.938 C 274.534 158.210,263.159 161.282,256.560 159.241 C 255.922 159.044,254.379 158.582,253.131 158.214 C 240.329 154.440,235.030 139.910,243.216 131.029 C 244.143 130.023,245.194 129.189,245.551 129.175 C 246.013 129.157,245.954 129.050,245.349 128.806 C 243.116 127.904,242.800 126.669,242.800 118.838 C 242.800 114.857,242.937 111.600,243.105 111.600 C 243.273 111.600,243.588 111.195,243.805 110.700 C 244.022 110.205,244.605 109.622,245.100 109.405 C 245.595 109.188,246.000 108.873,246.000 108.705 C 246.000 107.466,251.666 108.466,253.171 109.971 M192.440 119.760 C 193.565 120.772,194.737 121.600,195.043 121.600 C 195.349 121.600,195.600 121.780,195.600 122.000 C 195.600 122.220,196.129 122.400,196.776 122.400 C 197.423 122.400,198.064 122.580,198.200 122.800 C 198.336 123.020,199.146 123.200,200.000 123.200 C 200.854 123.200,201.664 123.020,201.800 122.800 C 201.936 122.580,202.504 122.400,203.062 122.400 C 204.194 122.400,205.880 121.355,208.043 119.312 C 212.453 115.147,219.200 117.731,219.200 123.586 C 219.200 127.242,214.054 132.123,207.800 134.398 C 205.074 135.390,203.711 135.600,200.000 135.600 C 197.721 135.600,195.214 135.395,194.428 135.145 C 183.463 131.648,177.998 124.474,182.444 119.411 C 185.144 116.336,188.772 116.462,192.440 119.760 M199.898 173.900 L 367.597 174.001 367.701 224.500 L 367.805 275.000 367.802 224.400 L 367.800 173.800 200.000 173.799 L 32.200 173.799 199.898 173.900 M32.196 260.200 C 32.196 307.500,32.243 326.909,32.300 303.332 C 32.357 279.755,32.357 241.055,32.300 217.332 C 32.243 193.609,32.196 212.900,32.196 260.200 M80.624 199.547 C 79.978 199.686,87.078 199.800,96.403 199.800 C 105.728 199.800,112.827 199.686,112.179 199.547 C 111.530 199.408,104.430 199.295,96.400 199.295 C 88.370 199.295,81.271 199.408,80.624 199.547 M184.876 199.540 C 184.368 199.683,191.174 199.800,200.000 199.800 C 208.826 199.800,215.632 199.683,215.124 199.540 C 214.616 199.397,207.810 199.280,200.000 199.280 C 192.190 199.280,185.384 199.397,184.876 199.540 M288.623 199.547 C 287.975 199.686,294.691 199.800,303.546 199.800 C 312.402 199.800,319.232 199.683,318.724 199.540 C 317.537 199.206,290.182 199.213,288.623 199.547 M76.130 201.100 C 73.248 202.644,69.200 206.529,69.200 207.751 C 69.200 207.954,69.718 207.418,70.350 206.560 C 72.165 204.099,74.066 202.477,76.628 201.204 C 77.933 200.556,78.816 200.019,78.592 200.013 C 78.368 200.006,77.260 200.495,76.130 201.100 M113.600 200.098 C 113.923 200.418,117.600 201.971,117.600 201.788 C 117.600 201.696,117.105 201.369,116.500 201.061 C 115.302 200.452,113.278 199.780,113.600 200.098 M180.111 201.019 C 178.986 201.580,177.826 202.338,177.533 202.704 C 177.189 203.133,177.448 203.055,178.262 202.484 C 178.957 201.997,180.307 201.252,181.262 200.828 C 182.218 200.404,182.810 200.044,182.579 200.028 C 182.347 200.013,181.237 200.459,180.111 201.019 M217.200 200.098 C 217.523 200.418,221.200 201.971,221.200 201.788 C 221.200 201.696,220.705 201.369,220.100 201.061 C 218.902 200.452,216.878 199.780,217.200 200.098 M323.200 200.979 C 323.200 201.089,323.740 201.459,324.400 201.800 C 325.060 202.141,325.600 202.331,325.600 202.221 C 325.600 202.111,325.060 201.741,324.400 201.400 C 323.740 201.059,323.200 200.869,323.200 200.979 M118.220 202.344 C 118.429 202.533,119.410 203.372,120.400 204.210 L 122.200 205.732 120.400 203.884 C 119.410 202.868,118.429 202.028,118.220 202.018 C 117.980 202.007,117.980 202.127,118.220 202.344 M222.800 202.925 C 222.800 202.994,223.385 203.579,224.100 204.225 L 225.400 205.400 224.225 204.100 C 223.130 202.888,222.800 202.616,222.800 202.925 M327.600 204.200 C 328.346 204.970,329.047 205.600,329.157 205.600 C 329.267 205.600,328.746 204.970,328.000 204.200 C 327.254 203.430,326.553 202.800,326.443 202.800 C 326.333 202.800,326.854 203.430,327.600 204.200 M225.881 206.561 C 226.277 207.089,226.657 207.467,226.728 207.400 C 226.938 207.199,225.834 205.600,225.485 205.600 C 225.308 205.600,225.486 206.032,225.881 206.561 M123.478 208.595 C 123.844 209.362,124.214 209.919,124.301 209.832 C 124.484 209.649,123.270 207.200,122.996 207.200 C 122.895 207.200,123.112 207.828,123.478 208.595 M68.202 209.856 C 67.868 210.657,67.511 212.322,67.410 213.556 L 67.227 215.800 67.618 213.600 C 67.833 212.390,68.275 210.725,68.601 209.900 C 69.363 207.971,69.006 207.932,68.202 209.856 M331.379 209.900 C 331.694 210.725,332.032 211.760,332.130 212.200 C 332.297 212.955,332.310 212.952,332.354 212.149 C 332.400 211.292,331.354 208.400,330.998 208.400 C 330.893 208.400,331.064 209.075,331.379 209.900 M124.428 211.076 C 124.518 212.115,125.144 212.996,125.172 212.124 C 125.187 211.642,125.020 211.136,124.800 211.000 C 124.580 210.864,124.413 210.898,124.428 211.076 M89.700 211.899 C 93.385 211.965,99.415 211.965,103.100 211.899 C 106.785 211.833,103.770 211.779,96.400 211.779 C 89.030 211.779,86.015 211.833,89.700 211.899 M296.674 211.899 C 300.455 211.965,306.755 211.965,310.674 211.899 C 314.593 211.834,311.500 211.780,303.800 211.780 C 296.100 211.780,292.893 211.834,296.674 211.899 M171.052 212.900 C 170.705 214.197,170.755 243.711,171.106 244.262 C 171.268 244.515,171.400 237.360,171.400 228.362 C 171.400 219.363,171.376 212.000,171.347 212.000 C 171.317 212.000,171.185 212.405,171.052 212.900 M184.770 213.032 L 183.800 214.064 183.800 228.561 C 183.800 247.139,181.920 245.200,199.933 245.200 C 213.915 245.200,215.002 245.064,216.002 243.196 C 216.595 242.088,216.533 214.996,215.935 213.874 C 214.951 212.027,214.942 212.026,199.970 212.013 L 185.739 212.000 184.770 213.032 M228.600 228.400 C 228.600 237.378,228.732 244.516,228.894 244.262 C 229.056 244.008,229.188 236.870,229.188 228.400 C 229.188 219.930,229.056 212.792,228.894 212.538 C 228.732 212.284,228.600 219.422,228.600 228.400 M318.941 213.050 L 319.990 214.099 320.100 228.550 L 320.210 243.000 320.305 228.554 C 320.406 213.254,320.255 212.000,318.316 212.000 C 318.082 212.000,318.363 212.472,318.941 213.050 M332.582 228.400 C 332.582 236.870,332.635 240.335,332.699 236.100 C 332.764 231.865,332.764 224.935,332.699 220.700 C 332.635 216.465,332.582 219.930,332.582 228.400 M287.067 214.267 C 286.701 214.632,286.739 242.085,287.106 242.662 C 287.268 242.916,287.400 236.571,287.400 228.562 C 287.400 220.553,287.385 214.000,287.367 214.000 C 287.348 214.000,287.213 214.120,287.067 214.267 M67.416 243.367 C 67.754 247.241,70.244 251.608,73.600 254.212 C 74.150 254.639,73.646 254.001,72.481 252.794 C 69.963 250.187,68.391 247.159,67.709 243.600 L 67.210 241.000 67.416 243.367 M318.600 244.250 C 317.881 244.862,317.734 245.105,318.233 244.857 C 318.966 244.493,320.341 243.176,319.949 243.214 C 319.867 243.222,319.260 243.688,318.600 244.250 M274.806 244.233 C 274.809 244.655,274.995 245.270,275.218 245.600 C 275.515 246.038,275.552 245.876,275.356 245.000 C 275.027 243.529,274.798 243.210,274.806 244.233 M124.629 245.029 C 124.481 245.615,124.451 246.184,124.561 246.294 C 124.671 246.404,124.881 246.015,125.029 245.429 C 125.176 244.842,125.206 244.273,125.096 244.163 C 124.986 244.053,124.776 244.442,124.629 245.029 M332.054 244.689 C 331.950 246.393,330.041 249.991,328.128 252.088 C 327.068 253.250,326.649 253.840,327.197 253.400 C 329.777 251.328,332.622 246.453,332.281 244.688 L 332.109 243.800 332.054 244.689 M171.630 246.000 C 171.628 246.576,172.757 248.866,172.786 248.346 C 172.794 248.206,172.537 247.486,172.216 246.746 C 171.894 246.006,171.631 245.670,171.630 246.000 M173.473 249.907 C 173.862 250.626,174.898 251.886,175.775 252.707 L 177.369 254.200 175.784 252.400 C 174.913 251.410,173.877 250.150,173.483 249.600 C 172.790 248.634,172.789 248.644,173.473 249.907 M121.231 251.680 C 120.482 252.572,118.791 253.999,117.473 254.851 C 116.154 255.703,115.249 256.400,115.460 256.400 C 116.654 256.400,123.317 250.784,122.771 250.238 C 122.673 250.139,121.979 250.788,121.231 251.680 M223.600 252.882 C 222.390 254.011,221.760 254.738,222.200 254.499 C 222.969 254.080,226.353 250.784,225.981 250.815 C 225.882 250.824,224.810 251.754,223.600 252.882 M279.200 252.600 C 279.946 253.370,280.647 254.000,280.757 254.000 C 280.867 254.000,280.346 253.370,279.600 252.600 C 278.854 251.830,278.153 251.200,278.043 251.200 C 277.933 251.200,278.454 251.830,279.200 252.600 M89.300 257.499 C 93.205 257.565,99.595 257.565,103.500 257.499 C 107.405 257.434,104.210 257.380,96.400 257.380 C 88.590 257.380,85.395 257.434,89.300 257.499 M193.300 257.499 C 196.985 257.565,203.015 257.565,206.700 257.499 C 210.385 257.433,207.370 257.379,200.000 257.379 C 192.630 257.379,189.615 257.433,193.300 257.499 M297.325 257.499 C 301.024 257.566,306.964 257.565,310.525 257.499 C 314.086 257.433,311.060 257.379,303.800 257.379 C 296.540 257.379,293.626 257.433,297.325 257.499 M80.314 280.728 C 79.937 280.878,87.075 281.000,96.176 281.000 C 105.277 281.000,112.515 280.868,112.262 280.706 C 111.682 280.337,81.247 280.358,80.314 280.728 M184.315 280.728 C 183.938 280.878,190.996 281.000,200.000 281.000 C 209.004 281.000,216.062 280.878,215.685 280.728 C 215.308 280.579,208.250 280.456,200.000 280.456 C 191.750 280.456,184.692 280.579,184.315 280.728 M288.138 280.706 C 287.884 280.868,294.942 281.000,303.823 281.000 C 312.704 281.000,319.662 280.878,319.285 280.728 C 318.353 280.358,288.718 280.337,288.138 280.706 M77.200 281.641 C 75.846 282.170,72.402 284.523,72.401 284.919 C 72.400 285.094,73.075 284.697,73.900 284.037 C 74.725 283.376,76.075 282.556,76.900 282.213 C 77.725 281.870,78.400 281.502,78.400 281.395 C 78.400 281.163,78.453 281.152,77.200 281.641 M115.368 282.014 C 116.231 282.445,117.023 282.710,117.130 282.604 C 117.327 282.406,114.678 281.187,114.113 281.216 C 113.941 281.225,114.506 281.584,115.368 282.014 M179.100 282.629 C 177.605 283.440,177.696 283.778,179.200 283.000 C 179.860 282.659,180.400 282.294,180.400 282.190 C 180.400 281.932,180.357 281.947,179.100 282.629 M281.938 283.192 C 280.949 283.847,279.793 284.778,279.370 285.260 C 278.946 285.743,279.521 285.432,280.647 284.569 C 281.772 283.706,283.032 282.786,283.447 282.524 C 283.861 282.261,284.096 282.036,283.969 282.024 C 283.841 282.011,282.928 282.536,281.938 283.192 M117.600 282.873 C 121.497 286.409,122.180 286.952,120.600 285.255 C 119.720 284.310,118.640 283.347,118.200 283.114 C 117.760 282.882,117.490 282.773,117.600 282.873 M326.561 284.428 C 327.640 285.389,329.035 286.883,329.661 287.748 C 330.287 288.612,330.800 289.154,330.800 288.951 C 330.800 288.101,326.936 283.992,325.241 283.040 C 324.888 282.842,325.482 283.467,326.561 284.428 M175.498 285.537 C 174.501 286.603,173.396 288.034,173.043 288.717 C 172.013 290.709,172.312 290.773,173.431 288.800 C 173.993 287.810,175.198 286.235,176.109 285.300 C 177.021 284.365,177.664 283.600,177.538 283.600 C 177.412 283.600,176.494 284.472,175.498 285.537 M224.178 285.600 C 226.804 288.556,227.074 288.809,226.100 287.400 C 225.643 286.740,224.584 285.570,223.747 284.800 C 222.530 283.682,222.617 283.842,224.178 285.600 M70.413 286.981 C 68.629 289.574,67.625 292.160,67.404 294.734 L 67.210 297.000 67.731 294.400 C 68.332 291.406,69.235 289.163,70.541 287.422 C 71.714 285.857,72.099 285.200,71.843 285.200 C 71.730 285.200,71.087 286.001,70.413 286.981 M331.379 291.100 C 331.694 291.925,332.032 292.960,332.130 293.400 C 332.297 294.155,332.310 294.152,332.354 293.349 C 332.400 292.492,331.354 289.600,330.998 289.600 C 330.893 289.600,331.064 290.275,331.379 291.100 M359.902 292.191 C 359.299 292.723,358.490 293.334,358.106 293.549 C 357.721 293.764,357.513 294.047,357.644 294.177 C 357.774 294.308,358.673 293.698,359.640 292.824 C 360.608 291.949,361.310 291.231,361.200 291.229 C 361.090 291.227,360.506 291.660,359.902 292.191 M124.428 292.276 C 124.518 293.315,125.144 294.196,125.172 293.324 C 125.187 292.842,125.020 292.336,124.800 292.200 C 124.580 292.064,124.413 292.098,124.428 292.276 M171.043 293.833 C 170.709 294.702,170.790 324.433,171.128 325.286 C 171.278 325.663,171.400 318.598,171.400 309.586 C 171.400 300.574,171.374 293.200,171.343 293.200 C 171.311 293.200,171.176 293.485,171.043 293.833 M228.600 309.600 C 228.600 318.578,228.732 325.716,228.894 325.462 C 229.056 325.208,229.188 318.070,229.188 309.600 C 229.188 301.130,229.056 293.992,228.894 293.738 C 228.732 293.484,228.600 300.622,228.600 309.600 M288.765 293.713 C 287.279 294.854,287.199 295.665,287.228 309.474 C 287.261 325.498,287.303 325.721,289.612 322.400 C 291.828 319.214,297.033 313.727,299.931 311.525 C 301.179 310.576,302.260 309.665,302.333 309.500 C 302.407 309.335,302.722 309.200,303.033 309.200 C 303.345 309.200,303.600 309.050,303.600 308.868 C 303.600 308.685,304.093 308.280,304.695 307.968 C 305.297 307.655,306.914 306.725,308.288 305.900 C 309.662 305.075,310.881 304.400,310.997 304.400 C 311.114 304.400,312.062 304.022,313.104 303.560 C 316.263 302.161,316.539 302.054,318.300 301.555 L 320.000 301.073 320.000 298.140 C 320.000 295.699,319.854 295.038,319.128 294.203 L 318.256 293.200 303.828 293.213 C 293.117 293.222,289.236 293.351,288.765 293.713 M332.446 296.476 C 332.421 297.728,332.535 298.836,332.700 298.938 C 332.865 299.040,332.946 298.286,332.880 297.262 C 332.693 294.341,332.497 293.986,332.446 296.476 M346.800 298.000 C 345.996 298.257,345.957 298.323,346.600 298.332 C 347.040 298.338,347.760 298.189,348.200 298.000 C 349.219 297.562,348.168 297.562,346.800 298.000 M339.400 298.800 L 336.600 299.059 339.000 299.106 C 340.320 299.132,342.120 299.005,343.000 298.823 C 344.968 298.416,343.649 298.407,339.400 298.800 M349.400 310.000 C 348.629 310.331,348.631 310.345,349.476 310.372 C 349.958 310.387,350.464 310.220,350.600 310.000 C 350.892 309.527,350.501 309.527,349.400 310.000 M343.400 310.800 L 341.400 311.074 343.400 311.131 C 344.500 311.162,345.670 311.013,346.000 310.800 C 346.696 310.350,346.679 310.350,343.400 310.800 M330.400 311.600 C 329.006 311.893,329.008 311.895,330.800 311.924 C 331.790 311.941,333.320 311.805,334.200 311.623 L 335.800 311.292 333.800 311.299 C 332.700 311.302,331.170 311.438,330.400 311.600 M325.600 312.400 L 324.600 312.720 325.600 312.754 C 326.150 312.773,326.870 312.613,327.200 312.400 C 327.964 311.906,327.142 311.906,325.600 312.400 M322.600 313.200 C 321.829 313.531,321.831 313.545,322.676 313.572 C 323.158 313.587,323.664 313.420,323.800 313.200 C 324.092 312.727,323.701 312.727,322.600 313.200 M320.200 314.000 C 319.429 314.331,319.431 314.345,320.276 314.372 C 320.758 314.387,321.264 314.220,321.400 314.000 C 321.692 313.527,321.301 313.527,320.200 314.000 M316.006 315.824 C 313.275 317.133,308.000 320.570,308.000 321.040 C 308.000 321.150,309.125 320.442,310.500 319.466 C 311.875 318.489,314.395 317.032,316.100 316.227 C 317.805 315.422,319.200 314.682,319.200 314.582 C 319.200 314.298,319.151 314.317,316.006 315.824 M306.175 322.500 L 305.000 323.800 306.300 322.625 C 307.512 321.530,307.784 321.200,307.475 321.200 C 307.406 321.200,306.821 321.785,306.175 322.500 M67.416 324.567 C 67.867 329.735,72.223 335.591,76.900 337.317 C 78.234 337.809,77.591 337.252,75.783 336.349 C 71.841 334.380,68.739 329.934,67.724 324.800 L 67.210 322.200 67.416 324.567 M353.899 325.500 C 353.520 326.325,352.758 327.770,352.205 328.711 C 351.145 330.515,350.824 331.531,351.737 330.189 C 352.916 328.456,355.195 324.000,354.901 324.000 C 354.729 324.000,354.278 324.675,353.899 325.500 M124.846 325.467 C 124.821 325.724,124.684 326.264,124.541 326.667 C 124.340 327.236,124.394 327.297,124.779 326.942 C 125.052 326.691,125.189 326.151,125.084 325.742 C 124.979 325.334,124.872 325.210,124.846 325.467 M301.945 326.700 C 300.707 328.056,298.637 330.792,298.237 331.600 C 298.074 331.930,298.359 331.660,298.870 331.000 C 299.382 330.340,300.567 328.855,301.505 327.700 C 303.343 325.436,303.569 324.921,301.945 326.700 M173.213 330.656 C 173.231 331.144,174.357 332.576,174.561 332.371 C 174.655 332.277,174.387 331.775,173.966 331.256 C 173.545 330.736,173.206 330.466,173.213 330.656 M120.600 333.359 C 119.500 334.506,118.150 335.755,117.600 336.134 C 116.627 336.805,116.626 336.811,117.558 336.367 C 118.732 335.807,121.910 332.916,122.440 331.925 C 122.985 330.908,122.852 331.011,120.600 333.359 M349.074 333.900 C 346.975 337.192,346.495 338.088,347.465 336.902 C 348.489 335.651,351.247 331.200,350.999 331.200 C 350.887 331.200,350.020 332.415,349.074 333.900 M223.200 334.474 C 222.210 335.376,221.760 335.924,222.200 335.692 C 222.952 335.294,225.552 332.781,225.175 332.816 C 225.079 332.825,224.190 333.571,223.200 334.474 M296.240 334.840 C 295.845 335.508,295.611 336.144,295.719 336.253 C 295.828 336.361,296.206 335.869,296.560 335.160 C 296.914 334.451,297.148 333.815,297.081 333.747 C 297.013 333.680,296.635 334.172,296.240 334.840 M280.769 335.036 C 281.446 335.605,282.014 336.370,282.032 336.736 C 282.054 337.199,282.127 337.239,282.276 336.868 C 282.490 336.331,280.555 334.000,279.894 334.000 C 279.699 334.000,280.092 334.466,280.769 335.036 M112.800 338.000 C 112.267 338.345,112.267 338.388,112.800 338.388 C 113.130 338.388,113.670 338.213,114.000 338.000 C 114.533 337.655,114.533 337.612,114.000 337.612 C 113.670 337.612,113.130 337.787,112.800 338.000 M345.693 338.800 C 345.418 339.240,345.331 339.600,345.500 339.600 C 345.669 339.600,346.032 339.240,346.307 338.800 C 346.582 338.360,346.669 338.000,346.500 338.000 C 346.331 338.000,345.968 338.360,345.693 338.800 M89.725 338.699 C 93.424 338.766,99.364 338.765,102.925 338.699 C 106.486 338.633,103.460 338.579,96.200 338.579 C 88.940 338.579,86.026 338.633,89.725 338.699 M343.269 342.039 C 342.510 343.254,342.966 343.416,343.755 342.212 C 344.120 341.656,344.278 341.200,344.105 341.200 C 343.933 341.200,343.557 341.578,343.269 342.039 M279.873 344.153 C 279.723 344.545,279.611 345.166,279.625 345.533 C 279.642 345.975,279.781 345.874,280.037 345.234 C 280.249 344.703,280.361 344.082,280.285 343.854 C 280.209 343.627,280.024 343.761,279.873 344.153 M341.000 344.946 C 339.819 346.318,339.596 346.861,340.603 345.912 C 341.238 345.314,341.677 344.747,341.579 344.652 C 341.480 344.558,341.220 344.690,341.000 344.946 M292.046 346.267 C 292.021 346.524,291.884 347.064,291.741 347.467 C 291.540 348.036,291.594 348.097,291.979 347.742 C 292.252 347.491,292.389 346.951,292.284 346.542 C 292.179 346.134,292.072 346.010,292.046 346.267 M32.669 349.400 C 32.796 350.720,32.968 351.875,33.050 351.967 C 33.341 352.290,33.116 348.986,32.779 348.000 C 32.558 347.352,32.520 347.845,32.669 349.400 M338.795 347.500 C 338.793 347.665,337.101 349.564,335.036 351.720 C 332.971 353.876,331.474 355.575,331.711 355.496 C 332.415 355.262,339.742 347.200,339.251 347.200 C 339.003 347.200,338.798 347.335,338.795 347.500 M279.053 349.236 C 278.914 349.931,278.822 351.063,278.849 351.750 C 278.878 352.494,279.038 352.040,279.243 350.628 C 279.611 348.104,279.476 347.118,279.053 349.236 M291.001 354.072 C 290.849 355.902,290.794 357.940,290.880 358.600 C 290.965 359.260,291.184 357.857,291.366 355.482 C 291.549 353.108,291.603 351.070,291.487 350.954 C 291.371 350.838,291.152 352.241,291.001 354.072 M33.606 354.633 C 33.609 355.055,33.795 355.670,34.018 356.000 C 34.315 356.438,34.352 356.276,34.156 355.400 C 33.827 353.929,33.598 353.610,33.606 354.633 M34.432 357.476 C 34.414 357.958,34.580 358.464,34.800 358.600 C 35.020 358.736,35.200 359.101,35.200 359.412 C 35.200 360.064,37.127 364.400,37.417 364.400 C 37.524 364.400,37.361 363.815,37.055 363.100 C 35.750 360.047,34.945 358.062,34.661 357.200 C 34.536 356.821,34.452 356.923,34.432 357.476 M278.182 363.382 C 278.029 364.402,277.994 365.327,278.104 365.437 C 278.214 365.547,278.429 364.802,278.582 363.782 C 278.735 362.761,278.770 361.837,278.660 361.727 C 278.550 361.617,278.335 362.361,278.182 363.382 M319.074 365.589 C 316.694 367.335,314.399 368.873,313.974 369.008 C 313.548 369.143,313.200 369.426,313.200 369.636 C 313.200 370.095,314.183 369.487,319.312 365.855 C 322.681 363.469,324.015 362.377,323.524 362.408 C 323.456 362.412,321.453 363.843,319.074 365.589 M290.253 365.741 C 290.086 366.588,290.041 367.375,290.155 367.488 C 290.458 367.791,290.897 365.785,290.714 364.932 C 290.620 364.490,290.437 364.811,290.253 365.741 M38.409 366.300 C 38.414 366.465,38.785 367.050,39.233 367.600 L 40.048 368.600 39.414 367.300 C 38.811 366.065,38.389 365.645,38.409 366.300 M289.429 370.629 C 289.281 371.215,289.251 371.784,289.361 371.894 C 289.471 372.004,289.681 371.615,289.829 371.029 C 289.976 370.442,290.006 369.873,289.896 369.763 C 289.786 369.653,289.576 370.042,289.429 370.629 M42.330 371.900 C 43.212 372.945,44.792 374.610,45.842 375.600 C 46.891 376.590,46.366 375.885,44.675 374.033 C 42.984 372.182,41.600 370.517,41.600 370.333 C 41.600 370.150,41.403 370.000,41.163 370.000 C 40.922 370.000,41.447 370.855,42.330 371.900 M310.900 371.026 C 309.965 371.587,309.200 372.140,309.200 372.255 C 309.200 372.471,311.899 370.938,312.580 370.336 C 313.267 369.728,312.627 369.991,310.900 371.026 M307.200 373.233 L 306.200 374.048 307.500 373.414 C 308.215 373.065,308.800 372.694,308.800 372.590 C 308.800 372.192,308.163 372.448,307.200 373.233 M271.613 380.500 C 270.423 381.875,269.951 382.550,270.564 382.000 C 271.676 381.003,274.197 378.000,273.923 378.000 C 273.843 378.000,272.804 379.125,271.613 380.500 M50.000 379.097 C 50.000 379.414,50.719 379.919,53.200 381.341 C 55.087 382.424,54.647 381.979,52.100 380.229 C 50.945 379.436,50.000 378.926,50.000 379.097 M285.384 382.027 C 284.949 382.730,285.532 382.957,286.496 382.461 L 287.400 381.996 286.450 382.241 C 285.809 382.406,285.589 382.341,285.774 382.043 C 285.924 381.799,285.957 381.600,285.847 381.600 C 285.737 381.600,285.529 381.792,285.384 382.027 M54.800 382.196 C 54.800 382.470,57.249 383.684,57.432 383.501 C 57.519 383.414,56.962 383.044,56.195 382.678 C 55.428 382.312,54.800 382.095,54.800 382.196 M58.200 383.910 C 58.420 384.112,60.087 384.866,61.903 385.585 C 65.600 387.048,67.031 388.380,67.411 390.712 C 67.822 393.235,67.906 393.447,67.954 392.087 C 68.047 389.453,65.492 386.014,63.055 385.493 C 62.585 385.393,61.210 384.913,60.000 384.427 C 58.790 383.940,57.980 383.708,58.200 383.910 M264.600 385.438 C 263.500 385.972,263.050 386.294,263.600 386.154 C 264.772 385.855,266.800 384.863,266.800 384.590 C 266.800 384.353,266.965 384.289,264.600 385.438 M257.700 387.476 C 258.085 387.576,258.715 387.576,259.100 387.476 C 259.485 387.375,259.170 387.293,258.400 387.293 C 257.630 387.293,257.315 387.375,257.700 387.476 M86.498 389.035 C 85.781 389.600,84.996 390.453,84.754 390.931 C 84.494 391.441,84.784 391.255,85.456 390.481 C 86.085 389.755,87.320 388.908,88.200 388.599 C 89.474 388.150,89.596 388.032,88.800 388.022 C 88.250 388.015,87.214 388.471,86.498 389.035 M229.126 388.300 C 233.376 388.364,240.216 388.364,244.326 388.299 C 248.437 388.234,244.960 388.181,236.600 388.181 C 228.240 388.182,224.877 388.235,229.126 388.300 " stroke="none" fill="#e38b9b" fill-rule="evenodd"></path><path id="path4" d="M80.770 213.032 L 79.800 214.063 79.680 227.830 C 79.514 247.030,77.749 245.200,96.433 245.200 C 111.346 245.200,111.360 245.198,112.620 242.760 C 113.494 241.071,113.473 215.687,112.596 213.992 C 111.580 212.027,111.358 212.000,96.096 212.000 L 81.739 212.000 80.770 213.032 M186.623 292.781 C 185.690 292.969,184.668 293.538,184.123 294.172 L 183.200 295.245 183.200 309.653 L 183.200 324.062 184.369 325.231 L 185.538 326.400 199.915 326.400 C 218.942 326.400,217.194 328.131,217.198 309.287 C 217.200 295.628,217.073 294.722,214.952 293.331 C 213.735 292.533,190.123 292.075,186.623 292.781 M80.831 293.836 L 79.600 294.871 79.600 309.466 L 79.600 324.062 80.769 325.231 L 81.938 326.400 96.338 326.400 L 110.738 326.400 111.969 325.169 L 113.200 323.938 113.200 309.612 L 113.200 295.285 112.040 294.042 L 110.879 292.800 96.470 292.800 L 82.061 292.800 80.831 293.836 " stroke="none" fill="#97dde0" fill-rule="evenodd"></path></g></svg>