<svg id="svg" version="1.1" xmlns="http://www.w3.org/2000/svg" xmlns:xlink="http://www.w3.org/1999/xlink" width="400" height="400" viewBox="0, 0, 400,400"><g id="svgg"><path id="path0" d="M140.600 35.024 C 140.160 35.126,138.810 35.419,137.600 35.675 C 119.063 39.598,109.718 62.236,119.714 79.000 C 121.446 81.905,126.317 87.083,128.276 88.103 C 128.894 88.424,130.390 89.214,131.600 89.858 C 132.810 90.501,134.610 91.265,135.600 91.555 C 136.590 91.846,137.813 92.245,138.319 92.442 C 139.513 92.908,149.687 92.908,150.881 92.442 C 151.387 92.245,152.610 91.846,153.600 91.555 C 175.956 84.998,180.724 53.258,161.331 40.089 C 155.484 36.119,145.930 33.784,140.600 35.024 M251.000 171.048 C 249.450 171.197,247.484 171.669,245.000 172.489 C 243.461 172.996,238.744 175.267,238.130 175.795 C 237.872 176.018,236.792 176.909,235.730 177.775 C 228.103 184.001,223.631 195.925,225.636 204.694 C 227.420 212.501,230.615 218.056,235.712 222.211 C 236.784 223.085,237.872 223.982,238.130 224.205 C 238.612 224.620,243.568 227.064,245.000 227.594 C 248.205 228.778,249.389 228.948,254.400 228.940 C 259.373 228.933,260.793 228.729,263.800 227.585 C 264.240 227.418,265.230 227.051,266.000 226.771 C 266.770 226.490,267.878 225.932,268.462 225.530 C 269.046 225.129,269.656 224.800,269.819 224.800 C 270.912 224.800,276.638 219.199,278.660 216.153 C 286.244 204.726,284.945 189.631,275.548 179.993 C 273.254 177.640,271.305 176.000,270.803 176.000 C 270.582 176.000,270.400 175.820,270.400 175.600 C 270.400 175.380,270.203 175.200,269.962 175.200 C 269.721 175.200,269.046 174.871,268.462 174.470 C 267.878 174.068,266.770 173.510,266.000 173.229 C 265.230 172.949,264.240 172.582,263.800 172.415 C 260.817 171.281,255.023 170.662,251.000 171.048 M148.400 307.600 C 148.070 307.813,147.316 307.991,146.724 307.994 C 146.132 307.997,145.536 308.180,145.400 308.400 C 145.264 308.620,144.822 308.800,144.417 308.800 C 142.293 308.800,136.545 312.673,132.942 316.531 C 130.253 319.410,126.789 325.242,126.797 326.876 C 126.799 327.248,126.639 327.652,126.442 327.774 C 125.587 328.303,124.878 338.881,125.543 341.200 C 125.764 341.970,126.237 343.615,126.596 344.856 C 128.475 351.367,136.895 361.600,140.372 361.600 C 140.607 361.600,140.800 361.780,140.800 362.000 C 140.800 362.220,141.042 362.400,141.339 362.400 C 141.635 362.400,142.466 362.694,143.185 363.053 C 148.243 365.576,158.540 365.853,164.200 363.617 C 180.926 357.012,188.231 338.556,180.277 323.000 C 179.088 320.676,178.672 319.956,178.000 319.063 C 174.153 313.949,168.730 310.086,163.000 308.375 C 162.120 308.113,160.987 307.741,160.481 307.549 C 159.230 307.074,149.148 307.117,148.400 307.600 " stroke="none" fill="#7bbbec" fill-rule="evenodd"></path><path id="path1" d="M143.000 14.800 C 142.864 15.021,141.070 15.200,139.000 15.200 C 136.930 15.200,135.136 15.379,135.000 15.600 C 134.864 15.820,134.043 16.000,133.176 16.000 C 132.309 16.000,131.600 16.180,131.600 16.400 C 131.600 16.620,131.060 16.800,130.400 16.800 C 129.740 16.800,129.200 16.980,129.200 17.200 C 129.200 17.420,128.660 17.600,128.000 17.600 C 127.340 17.600,126.800 17.780,126.800 18.000 C 126.800 18.220,126.350 18.400,125.800 18.400 C 125.250 18.400,124.800 18.580,124.800 18.800 C 124.800 19.020,124.440 19.200,124.000 19.200 C 123.560 19.200,123.200 19.380,123.200 19.600 C 123.200 19.820,122.840 20.000,122.400 20.000 C 121.960 20.000,121.600 20.180,121.600 20.400 C 121.600 20.620,121.322 20.800,120.983 20.800 C 120.644 20.800,119.980 21.160,119.508 21.600 C 119.036 22.040,118.413 22.400,118.125 22.400 C 117.836 22.400,117.600 22.580,117.600 22.800 C 117.600 23.020,117.306 23.200,116.947 23.200 C 116.588 23.200,116.003 23.524,115.647 23.919 C 115.291 24.314,114.370 25.061,113.600 25.578 C 111.879 26.734,106.800 31.870,106.800 32.454 C 106.800 32.688,106.260 33.383,105.600 34.000 C 104.940 34.617,104.400 35.369,104.400 35.672 C 104.400 35.975,104.040 36.483,103.600 36.800 C 103.160 37.117,102.800 37.697,102.800 38.088 C 102.800 38.480,102.620 38.800,102.400 38.800 C 102.180 38.800,102.000 39.120,102.000 39.512 C 102.000 39.903,101.640 40.483,101.200 40.800 C 100.760 41.117,100.400 41.787,100.400 42.288 C 100.400 42.790,100.220 43.200,100.000 43.200 C 99.780 43.200,99.600 43.560,99.600 44.000 C 99.600 44.440,99.420 44.800,99.200 44.800 C 98.980 44.800,98.800 45.239,98.800 45.776 C 98.800 46.313,98.620 46.864,98.400 47.000 C 98.180 47.136,98.000 47.676,98.000 48.200 C 98.000 48.724,97.820 49.264,97.600 49.400 C 97.380 49.536,97.200 50.051,97.200 50.544 C 97.200 51.037,96.975 51.925,96.700 52.517 L 96.200 53.594 62.300 53.597 C 39.969 53.599,28.400 53.737,28.400 54.000 C 28.400 54.220,27.810 54.400,27.088 54.400 C 26.235 54.400,25.575 54.680,25.200 55.200 C 24.883 55.640,24.380 56.000,24.083 56.000 C 23.351 56.000,22.400 57.000,22.400 57.771 C 22.400 58.117,22.220 58.400,22.000 58.400 C 21.780 58.400,21.600 58.670,21.600 59.000 C 21.600 59.330,21.420 59.600,21.200 59.600 C 20.980 59.600,20.800 60.395,20.800 61.367 C 20.800 62.416,20.597 63.208,20.300 63.317 C 19.900 63.463,19.900 63.606,20.300 64.030 C 20.575 64.322,20.800 65.424,20.800 66.480 C 20.800 67.536,20.980 68.400,21.200 68.400 C 21.420 68.400,21.600 68.676,21.600 69.013 C 21.600 69.913,24.053 72.214,26.031 73.169 C 27.730 73.990,28.148 74.000,62.075 74.000 C 92.319 74.000,96.400 74.071,96.400 74.600 C 96.400 74.930,96.580 75.200,96.800 75.200 C 97.020 75.200,97.200 75.920,97.200 76.800 C 97.200 77.680,97.380 78.400,97.600 78.400 C 97.820 78.400,98.000 78.940,98.000 79.600 C 98.000 80.260,98.147 80.800,98.328 80.800 C 98.508 80.800,98.900 81.700,99.200 82.800 C 99.500 83.900,99.892 84.800,100.072 84.800 C 100.253 84.800,100.400 85.160,100.400 85.600 C 100.400 86.040,100.580 86.400,100.800 86.400 C 101.020 86.400,101.200 86.760,101.200 87.200 C 101.200 87.640,101.380 88.000,101.600 88.000 C 101.820 88.000,102.000 88.236,102.000 88.525 C 102.000 88.813,102.360 89.436,102.800 89.908 C 103.240 90.380,103.600 90.914,103.600 91.095 C 103.600 91.276,103.960 91.683,104.400 92.000 C 104.840 92.317,105.200 92.811,105.200 93.098 C 105.200 93.384,105.922 94.379,106.803 95.309 C 112.198 100.998,113.997 102.800,114.281 102.801 C 114.456 102.801,115.230 103.341,116.000 104.000 C 116.770 104.659,117.610 105.199,117.867 105.199 C 118.123 105.200,118.393 105.355,118.467 105.545 C 118.657 106.035,124.122 108.800,124.902 108.800 C 125.260 108.800,125.664 108.980,125.800 109.200 C 125.936 109.420,126.397 109.600,126.824 109.600 C 127.251 109.600,127.600 109.780,127.600 110.000 C 127.600 110.220,128.140 110.400,128.800 110.400 C 129.460 110.400,130.000 110.580,130.000 110.800 C 130.000 111.020,130.720 111.200,131.600 111.200 C 132.480 111.200,133.200 111.380,133.200 111.600 C 133.200 111.822,134.267 112.000,135.600 112.000 C 136.933 112.000,138.000 112.178,138.000 112.400 C 138.000 112.651,140.467 112.800,144.600 112.800 C 148.733 112.800,151.200 112.651,151.200 112.400 C 151.200 112.178,152.267 112.000,153.600 112.000 C 154.933 112.000,156.000 111.822,156.000 111.600 C 156.000 111.380,156.630 111.200,157.400 111.200 C 158.170 111.200,158.800 111.020,158.800 110.800 C 158.800 110.580,159.340 110.400,160.000 110.400 C 160.660 110.400,161.200 110.220,161.200 110.000 C 161.200 109.780,161.740 109.600,162.400 109.600 C 163.060 109.600,163.600 109.420,163.600 109.200 C 163.600 108.980,163.902 108.800,164.270 108.800 C 165.168 108.800,170.800 105.999,170.800 105.552 C 170.800 105.359,171.036 105.200,171.325 105.200 C 171.613 105.200,172.236 104.840,172.708 104.400 C 173.180 103.960,173.669 103.600,173.794 103.600 C 173.919 103.600,174.831 102.790,175.821 101.800 C 176.811 100.810,177.769 100.000,177.949 100.000 C 178.453 100.000,179.732 98.751,180.817 97.200 C 181.355 96.430,182.472 95.103,183.298 94.252 C 184.124 93.400,184.800 92.538,184.800 92.335 C 184.800 92.132,185.160 91.580,185.600 91.108 C 186.040 90.636,186.624 89.744,186.897 89.125 C 187.171 88.506,187.531 88.000,187.698 88.000 C 187.864 88.000,188.000 87.640,188.000 87.200 C 188.000 86.760,188.180 86.400,188.400 86.400 C 188.620 86.400,188.800 86.040,188.800 85.600 C 188.800 85.160,188.980 84.800,189.200 84.800 C 189.420 84.800,189.600 84.451,189.600 84.024 C 189.600 83.597,189.780 83.136,190.000 83.000 C 190.220 82.864,190.400 82.313,190.400 81.776 C 190.400 81.239,190.571 80.800,190.780 80.800 C 190.989 80.800,191.282 79.720,191.432 78.400 C 191.581 77.080,191.860 76.000,192.052 76.000 C 192.243 76.000,192.400 75.550,192.400 75.000 L 192.400 74.000 282.325 74.000 L 372.250 74.000 373.969 73.169 C 375.947 72.214,378.400 69.913,378.400 69.013 C 378.400 68.676,378.580 68.400,378.800 68.400 C 379.020 68.400,379.200 67.536,379.200 66.480 C 379.200 65.424,379.425 64.321,379.700 64.030 C 380.100 63.606,380.100 63.463,379.700 63.317 C 379.403 63.208,379.200 62.416,379.200 61.367 C 379.200 60.395,379.020 59.600,378.800 59.600 C 378.580 59.600,378.400 59.330,378.400 59.000 C 378.400 58.670,378.264 58.400,378.098 58.400 C 377.931 58.400,377.556 57.860,377.264 57.200 C 376.972 56.540,376.428 56.000,376.055 56.000 C 375.682 56.000,375.117 55.640,374.800 55.200 C 374.467 54.737,373.765 54.400,373.135 54.400 C 372.537 54.400,371.936 54.220,371.800 54.000 C 371.636 53.735,341.263 53.600,281.976 53.600 C 192.667 53.600,192.400 53.598,192.400 52.800 C 192.400 52.360,192.220 52.000,192.000 52.000 C 191.780 52.000,191.600 51.376,191.600 50.614 C 191.600 49.120,190.765 46.348,189.555 43.825 C 189.140 42.959,188.800 42.014,188.800 41.725 C 188.800 41.436,188.665 41.197,188.500 41.194 C 188.335 41.190,187.760 40.290,187.221 39.194 C 186.683 38.097,186.110 37.200,185.948 37.200 C 185.786 37.200,185.538 36.834,185.396 36.387 C 185.254 35.940,184.702 35.138,184.169 34.605 C 183.636 34.072,183.200 33.448,183.200 33.218 C 183.200 32.988,183.020 32.800,182.800 32.800 C 182.580 32.800,182.400 32.617,182.400 32.393 C 182.400 31.867,177.878 27.347,175.800 25.795 C 174.921 25.138,173.852 24.285,173.425 23.900 C 172.998 23.515,172.413 23.200,172.125 23.200 C 171.836 23.200,171.600 23.020,171.600 22.800 C 171.600 22.580,171.330 22.400,171.000 22.400 C 170.670 22.400,170.400 22.220,170.400 22.000 C 170.400 21.780,170.130 21.600,169.800 21.600 C 169.470 21.600,169.200 21.420,169.200 21.200 C 169.200 20.980,168.840 20.800,168.400 20.800 C 167.960 20.800,167.600 20.620,167.600 20.400 C 167.600 20.180,167.240 20.000,166.800 20.000 C 166.360 20.000,166.000 19.820,166.000 19.600 C 166.000 19.380,165.640 19.200,165.200 19.200 C 164.760 19.200,164.400 19.020,164.400 18.800 C 164.400 18.580,163.860 18.400,163.200 18.400 C 162.540 18.400,162.000 18.220,162.000 18.000 C 162.000 17.780,161.651 17.600,161.224 17.600 C 160.797 17.600,160.336 17.420,160.200 17.200 C 160.064 16.980,159.434 16.800,158.800 16.800 C 158.166 16.800,157.536 16.620,157.400 16.400 C 157.264 16.180,156.544 16.000,155.800 16.000 C 155.056 16.000,154.336 15.820,154.200 15.600 C 154.064 15.379,152.270 15.200,150.200 15.200 C 148.130 15.200,146.336 15.021,146.200 14.800 C 146.064 14.580,145.344 14.400,144.600 14.400 C 143.856 14.400,143.136 14.580,143.000 14.800 M152.459 35.158 C 165.942 39.024,174.989 51.322,174.266 64.800 C 174.020 69.381,173.640 71.928,173.158 72.226 C 172.961 72.348,172.800 72.876,172.800 73.400 C 172.800 73.924,172.620 74.464,172.400 74.600 C 172.180 74.736,172.000 75.104,172.000 75.418 C 172.000 75.732,171.235 77.282,170.300 78.861 C 163.317 90.656,149.696 96.177,136.400 92.602 C 127.426 90.189,118.489 81.384,116.099 72.600 C 115.859 71.720,115.469 70.259,115.232 69.354 C 110.013 49.448,131.968 29.281,152.459 35.158 M247.200 151.561 C 247.200 151.760,246.345 152.021,245.300 152.140 C 241.988 152.519,240.400 152.877,240.400 153.244 C 240.400 153.440,239.781 153.600,239.024 153.600 C 238.267 153.600,237.536 153.780,237.400 154.000 C 237.264 154.220,236.803 154.400,236.376 154.400 C 235.949 154.400,235.600 154.580,235.600 154.800 C 235.600 155.020,235.240 155.200,234.800 155.200 C 234.360 155.200,234.000 155.380,234.000 155.600 C 234.000 155.820,233.766 156.000,233.480 156.000 C 232.744 156.000,230.807 156.941,230.803 157.300 C 230.801 157.465,230.455 157.600,230.033 157.600 C 229.612 157.600,229.207 157.735,229.133 157.900 C 229.060 158.065,228.318 158.547,227.485 158.971 C 226.652 159.395,225.438 160.250,224.789 160.871 C 224.139 161.492,223.444 162.000,223.245 162.000 C 222.763 162.000,216.800 167.841,216.800 168.313 C 216.800 168.516,216.305 169.206,215.700 169.848 C 215.095 170.489,214.345 171.506,214.032 172.107 C 213.720 172.708,213.315 173.200,213.132 173.200 C 212.950 173.200,212.800 173.384,212.800 173.608 C 212.800 173.832,212.310 174.777,211.710 175.708 C 210.381 177.772,208.403 182.668,208.401 183.900 C 208.401 184.395,208.220 184.800,208.000 184.800 C 207.780 184.800,207.600 185.340,207.600 186.000 C 207.600 186.660,207.420 187.200,207.200 187.200 C 206.980 187.200,206.800 187.920,206.800 188.800 L 206.800 190.400 116.400 190.400 C 56.400 190.400,26.000 190.535,26.000 190.800 C 26.000 191.020,25.807 191.200,25.571 191.200 C 25.336 191.200,24.917 191.425,24.642 191.700 C 24.366 191.975,23.571 192.650,22.874 193.200 C 22.177 193.750,21.606 194.515,21.604 194.900 C 21.602 195.285,21.420 195.600,21.200 195.600 C 20.980 195.600,20.800 196.410,20.800 197.400 C 20.800 198.390,20.620 199.200,20.400 199.200 C 20.180 199.200,20.000 199.560,20.000 200.000 C 20.000 200.440,20.180 200.800,20.400 200.800 C 20.620 200.800,20.800 201.610,20.800 202.600 C 20.800 203.590,20.980 204.400,21.200 204.400 C 21.420 204.400,21.600 204.684,21.600 205.031 C 21.600 205.804,24.647 208.800,25.433 208.800 C 25.745 208.800,26.000 208.980,26.000 209.200 C 26.000 209.465,56.400 209.600,116.400 209.600 L 206.800 209.600 206.800 211.200 C 206.800 212.080,206.980 212.800,207.200 212.800 C 207.420 212.800,207.600 213.340,207.600 214.000 C 207.600 214.660,207.780 215.200,208.000 215.200 C 208.220 215.200,208.400 215.601,208.400 216.090 C 208.400 217.392,210.382 222.336,211.679 224.272 C 212.296 225.192,212.800 226.137,212.800 226.372 C 212.800 226.607,212.950 226.800,213.132 226.800 C 213.315 226.800,213.720 227.295,214.032 227.900 C 214.345 228.505,215.095 229.477,215.700 230.060 C 216.305 230.644,216.800 231.327,216.800 231.580 C 216.800 232.097,222.257 237.600,222.769 237.600 C 222.951 237.600,223.762 238.207,224.573 238.949 C 225.383 239.691,226.710 240.636,227.523 241.049 C 228.335 241.462,229.060 241.935,229.133 242.100 C 229.207 242.265,229.612 242.400,230.033 242.400 C 230.455 242.400,230.800 242.580,230.800 242.800 C 230.800 243.020,231.160 243.200,231.600 243.200 C 232.040 243.200,232.400 243.380,232.400 243.600 C 232.400 243.820,232.760 244.000,233.200 244.000 C 233.640 244.000,234.000 244.180,234.000 244.400 C 234.000 244.620,234.360 244.800,234.800 244.800 C 235.240 244.800,235.600 244.980,235.600 245.200 C 235.600 245.420,235.949 245.600,236.376 245.600 C 236.803 245.600,237.264 245.780,237.400 246.000 C 237.536 246.220,238.267 246.400,239.024 246.400 C 239.781 246.400,240.400 246.560,240.400 246.756 C 240.400 247.123,241.988 247.481,245.300 247.860 C 246.345 247.979,247.200 248.240,247.200 248.439 C 247.200 248.640,250.299 248.800,254.200 248.800 C 258.600 248.800,261.200 248.651,261.200 248.400 C 261.200 248.178,262.267 248.000,263.600 248.000 C 264.933 248.000,266.000 247.822,266.000 247.600 C 266.000 247.380,266.619 247.200,267.376 247.200 C 268.133 247.200,268.864 247.020,269.000 246.800 C 269.136 246.580,269.777 246.400,270.424 246.400 C 271.071 246.400,271.600 246.220,271.600 246.000 C 271.600 245.780,271.960 245.600,272.400 245.600 C 272.840 245.600,273.200 245.420,273.200 245.200 C 273.200 244.980,273.650 244.800,274.200 244.800 C 274.750 244.800,275.200 244.620,275.200 244.400 C 275.200 244.180,275.560 244.000,276.000 244.000 C 276.440 244.000,276.800 243.820,276.800 243.600 C 276.800 243.380,277.160 243.200,277.600 243.200 C 278.040 243.200,278.400 243.041,278.400 242.847 C 278.400 242.653,279.427 242.007,280.682 241.413 C 281.938 240.819,283.264 239.988,283.629 239.566 C 283.995 239.145,284.485 238.800,284.720 238.800 C 284.954 238.800,286.553 237.367,288.273 235.615 C 292.437 231.374,293.200 230.506,293.200 230.011 C 293.200 229.781,293.740 229.028,294.400 228.337 C 295.060 227.646,295.600 226.838,295.600 226.541 C 295.600 226.243,295.780 226.000,296.000 226.000 C 296.220 226.000,296.400 225.730,296.400 225.400 C 296.400 225.070,296.546 224.800,296.725 224.800 C 296.904 224.800,297.298 224.170,297.600 223.400 C 297.902 222.630,298.296 222.000,298.475 222.000 C 298.654 222.000,298.800 221.651,298.800 221.224 C 298.800 220.797,298.980 220.336,299.200 220.200 C 299.420 220.064,299.600 219.603,299.600 219.176 C 299.600 218.749,299.780 218.400,300.000 218.400 C 300.220 218.400,300.400 217.860,300.400 217.200 C 300.400 216.540,300.580 216.000,300.800 216.000 C 301.020 216.000,301.200 215.460,301.200 214.800 C 301.200 214.140,301.380 213.600,301.600 213.600 C 301.820 213.600,302.000 212.957,302.000 212.171 C 302.000 209.422,299.505 209.600,338.110 209.600 C 370.050 209.600,373.194 209.542,374.424 208.928 C 376.105 208.090,378.400 205.830,378.400 205.013 C 378.400 204.676,378.580 204.400,378.800 204.400 C 379.020 204.400,379.200 203.590,379.200 202.600 C 379.200 201.610,379.380 200.800,379.600 200.800 C 379.820 200.800,380.000 200.440,380.000 200.000 C 380.000 199.560,379.820 199.200,379.600 199.200 C 379.380 199.200,379.200 198.390,379.200 197.400 C 379.200 196.410,379.020 195.600,378.800 195.600 C 378.580 195.600,378.398 195.285,378.396 194.900 C 378.394 194.515,377.823 193.750,377.126 193.200 C 376.429 192.650,375.634 191.975,375.358 191.700 C 375.083 191.425,374.664 191.200,374.429 191.200 C 374.193 191.200,374.000 191.020,374.000 190.800 C 374.000 190.536,361.924 190.400,338.571 190.400 C 299.458 190.400,302.000 190.579,302.000 187.829 C 302.000 187.043,301.820 186.400,301.600 186.400 C 301.380 186.400,301.200 185.860,301.200 185.200 C 301.200 184.540,301.020 184.000,300.800 184.000 C 300.580 184.000,300.400 183.460,300.400 182.800 C 300.400 182.140,300.220 181.600,300.000 181.600 C 299.780 181.600,299.600 181.240,299.600 180.800 C 299.600 180.360,299.420 180.000,299.200 180.000 C 298.980 180.000,298.800 179.565,298.800 179.033 C 298.800 178.502,298.665 178.007,298.500 177.933 C 298.124 177.766,296.825 175.636,296.529 174.700 C 296.407 174.315,296.148 174.000,295.953 174.000 C 295.759 174.000,295.600 173.757,295.600 173.459 C 295.600 173.162,295.060 172.354,294.400 171.663 C 293.740 170.972,293.200 170.219,293.200 169.989 C 293.200 169.494,292.437 168.626,288.273 164.385 C 286.553 162.633,284.954 161.200,284.720 161.200 C 284.485 161.200,283.995 160.855,283.629 160.434 C 283.264 160.012,281.938 159.181,280.682 158.587 C 279.427 157.993,278.400 157.347,278.400 157.153 C 278.400 156.959,278.040 156.800,277.600 156.800 C 277.160 156.800,276.800 156.620,276.800 156.400 C 276.800 156.180,276.440 156.000,276.000 156.000 C 275.560 156.000,275.200 155.820,275.200 155.600 C 275.200 155.380,274.750 155.200,274.200 155.200 C 273.650 155.200,273.200 155.020,273.200 154.800 C 273.200 154.580,272.840 154.400,272.400 154.400 C 271.960 154.400,271.600 154.220,271.600 154.000 C 271.600 153.780,271.071 153.600,270.424 153.600 C 269.777 153.600,269.136 153.420,269.000 153.200 C 268.864 152.980,268.133 152.800,267.376 152.800 C 266.619 152.800,266.000 152.620,266.000 152.400 C 266.000 152.178,264.933 152.000,263.600 152.000 C 262.267 152.000,261.200 151.822,261.200 151.600 C 261.200 151.349,258.600 151.200,254.200 151.200 C 250.299 151.200,247.200 151.360,247.200 151.561 M258.284 170.438 C 266.392 171.577,272.982 175.452,278.478 182.312 C 286.013 191.716,286.003 207.844,278.457 217.753 C 277.166 219.447,272.095 224.215,270.962 224.799 C 270.323 225.129,269.710 225.491,269.600 225.605 C 269.384 225.827,265.907 227.503,264.600 228.014 C 249.949 233.748,232.567 225.889,226.749 210.900 C 226.557 210.405,226.234 209.595,226.030 209.100 C 225.286 207.290,225.077 205.695,224.913 200.600 C 224.742 195.293,225.008 193.649,226.787 189.000 C 228.879 183.531,233.996 177.414,238.736 174.711 C 245.818 170.674,251.353 169.464,258.284 170.438 M148.800 287.600 C 148.800 287.826,147.667 288.000,146.200 288.000 C 144.733 288.000,143.600 288.174,143.600 288.400 C 143.600 288.620,142.880 288.800,142.000 288.800 C 141.120 288.800,140.400 288.980,140.400 289.200 C 140.400 289.420,139.860 289.600,139.200 289.600 C 138.540 289.600,138.000 289.780,138.000 290.000 C 138.000 290.220,137.460 290.400,136.800 290.400 C 136.140 290.400,135.600 290.580,135.600 290.800 C 135.600 291.020,135.328 291.200,134.995 291.200 C 134.662 291.200,134.077 291.369,133.695 291.574 C 133.313 291.780,131.965 292.432,130.700 293.021 C 129.435 293.611,128.400 294.209,128.400 294.349 C 128.400 294.490,127.880 294.835,127.245 295.116 C 126.610 295.397,125.575 296.118,124.945 296.718 C 124.315 297.318,123.170 298.255,122.400 298.800 C 120.563 300.100,116.800 303.866,116.800 304.405 C 116.800 304.637,116.185 305.442,115.433 306.193 C 114.682 306.945,113.949 307.929,113.806 308.380 C 113.663 308.831,113.378 309.200,113.173 309.200 C 112.968 309.200,112.800 309.470,112.800 309.800 C 112.800 310.130,112.639 310.400,112.442 310.400 C 111.926 310.400,108.918 316.725,108.588 318.504 C 108.435 319.332,108.150 320.107,107.955 320.228 C 107.760 320.349,107.600 321.067,107.600 321.824 C 107.600 322.581,107.420 323.200,107.200 323.200 C 106.980 323.200,106.800 323.830,106.800 324.600 L 106.800 326.000 67.275 326.000 C 28.085 326.000,27.736 326.007,26.031 326.831 C 24.053 327.786,21.600 330.087,21.600 330.987 C 21.600 331.324,21.420 331.600,21.200 331.600 C 20.980 331.600,20.800 332.464,20.800 333.520 C 20.800 334.576,20.575 335.678,20.300 335.970 C 19.900 336.394,19.900 336.537,20.300 336.683 C 20.597 336.792,20.800 337.584,20.800 338.633 C 20.800 339.605,20.980 340.400,21.200 340.400 C 21.420 340.400,21.600 340.670,21.600 341.000 C 21.600 341.330,21.736 341.600,21.902 341.600 C 22.069 341.600,22.444 342.140,22.736 342.800 C 23.028 343.460,23.572 344.000,23.945 344.000 C 24.318 344.000,24.883 344.360,25.200 344.800 C 25.533 345.263,26.235 345.600,26.865 345.600 C 27.463 345.600,28.064 345.780,28.200 346.000 C 28.362 346.262,41.937 346.400,67.624 346.400 L 106.800 346.400 106.800 348.000 C 106.800 348.880,106.980 349.600,107.200 349.600 C 107.420 349.600,107.600 350.140,107.600 350.800 C 107.600 351.460,107.780 352.000,108.000 352.000 C 108.220 352.000,108.400 352.477,108.400 353.060 C 108.400 354.135,110.307 358.488,110.885 358.733 C 111.058 358.807,111.200 359.212,111.200 359.633 C 111.200 360.055,111.359 360.400,111.553 360.400 C 111.748 360.400,112.007 360.715,112.129 361.100 C 112.459 362.142,113.704 364.109,114.500 364.846 C 114.885 365.202,115.200 365.691,115.200 365.933 C 115.200 366.554,123.518 374.800,124.144 374.800 C 124.428 374.800,125.083 375.250,125.600 375.800 C 126.117 376.350,126.696 376.800,126.886 376.800 C 127.077 376.800,127.620 377.160,128.092 377.600 C 128.564 378.040,129.187 378.400,129.475 378.400 C 129.764 378.400,130.000 378.580,130.000 378.800 C 130.000 379.020,130.360 379.200,130.800 379.200 C 131.240 379.200,131.600 379.380,131.600 379.600 C 131.600 379.820,131.960 380.000,132.400 380.000 C 132.840 380.000,133.200 380.180,133.200 380.400 C 133.200 380.620,133.560 380.800,134.000 380.800 C 134.440 380.800,134.800 380.980,134.800 381.200 C 134.800 381.420,135.340 381.600,136.000 381.600 C 136.660 381.600,137.200 381.780,137.200 382.000 C 137.200 382.220,137.740 382.400,138.400 382.400 C 139.060 382.400,139.600 382.580,139.600 382.800 C 139.600 383.020,140.140 383.200,140.800 383.200 C 141.460 383.200,142.000 383.380,142.000 383.600 C 142.000 383.820,142.799 384.000,143.776 384.000 C 144.753 384.000,145.664 384.180,145.800 384.400 C 145.952 384.646,149.271 384.800,154.424 384.800 C 159.741 384.800,162.800 384.654,162.800 384.400 C 162.800 384.180,163.599 384.000,164.576 384.000 C 165.553 384.000,166.464 383.820,166.600 383.600 C 166.736 383.380,167.377 383.200,168.024 383.200 C 168.671 383.200,169.200 383.020,169.200 382.800 C 169.200 382.580,169.740 382.400,170.400 382.400 C 171.060 382.400,171.600 382.220,171.600 382.000 C 171.600 381.780,172.050 381.600,172.600 381.600 C 173.150 381.600,173.600 381.420,173.600 381.200 C 173.600 380.980,173.960 380.800,174.400 380.800 C 174.840 380.800,175.200 380.620,175.200 380.400 C 175.200 380.180,175.560 380.000,176.000 380.000 C 176.440 380.000,176.800 379.820,176.800 379.600 C 176.800 379.380,177.160 379.200,177.600 379.200 C 178.040 379.200,178.400 379.020,178.400 378.800 C 178.400 378.580,178.720 378.400,179.112 378.400 C 179.503 378.400,180.083 378.040,180.400 377.600 C 180.717 377.160,181.257 376.800,181.600 376.800 C 181.943 376.800,182.483 376.440,182.800 376.000 C 183.117 375.560,183.663 375.200,184.013 375.200 C 184.907 375.200,193.200 366.905,193.200 366.011 C 193.200 365.781,193.740 365.028,194.400 364.337 C 195.060 363.646,195.600 362.838,195.600 362.541 C 195.600 362.243,195.780 362.000,196.000 362.000 C 196.220 362.000,196.400 361.640,196.400 361.200 C 196.400 360.760,196.580 360.400,196.800 360.400 C 197.020 360.400,197.204 360.175,197.209 359.900 C 197.214 359.625,197.570 358.950,198.000 358.400 C 198.430 357.850,198.786 357.085,198.791 356.700 C 198.796 356.315,198.980 356.000,199.200 356.000 C 199.420 356.000,199.600 355.640,199.600 355.200 C 199.600 354.760,199.780 354.400,200.000 354.400 C 200.220 354.400,200.400 353.860,200.400 353.200 C 200.400 352.540,200.580 352.000,200.800 352.000 C 201.020 352.000,201.200 351.460,201.200 350.800 C 201.200 350.140,201.380 349.600,201.600 349.600 C 201.820 349.600,202.000 348.880,202.000 348.000 L 202.000 346.400 286.776 346.400 C 342.863 346.400,371.636 346.265,371.800 346.000 C 371.936 345.780,372.537 345.600,373.135 345.600 C 373.765 345.600,374.467 345.263,374.800 344.800 C 375.117 344.360,375.682 344.000,376.055 344.000 C 376.428 344.000,376.972 343.460,377.264 342.800 C 377.556 342.140,377.931 341.600,378.098 341.600 C 378.264 341.600,378.400 341.330,378.400 341.000 C 378.400 340.670,378.580 340.400,378.800 340.400 C 379.020 340.400,379.200 339.605,379.200 338.633 C 379.200 337.584,379.403 336.792,379.700 336.683 C 380.100 336.537,380.100 336.394,379.700 335.970 C 379.425 335.679,379.200 334.576,379.200 333.520 C 379.200 332.464,379.020 331.600,378.800 331.600 C 378.580 331.600,378.400 331.324,378.400 330.987 C 378.400 330.087,375.947 327.786,373.969 326.831 L 372.250 326.000 287.125 326.000 L 202.000 326.000 202.000 324.624 C 202.000 323.867,201.820 323.136,201.600 323.000 C 201.380 322.864,201.200 322.223,201.200 321.576 C 201.200 320.929,201.020 320.400,200.800 320.400 C 200.580 320.400,200.400 319.871,200.400 319.224 C 200.400 318.577,200.220 317.936,200.000 317.800 C 199.780 317.664,199.600 317.203,199.600 316.776 C 199.600 316.349,199.420 316.000,199.200 316.000 C 198.980 316.000,198.800 315.640,198.800 315.200 C 198.800 314.760,198.620 314.400,198.400 314.400 C 198.180 314.400,198.000 314.040,198.000 313.600 C 198.000 313.160,197.854 312.800,197.675 312.800 C 197.496 312.800,197.102 312.170,196.800 311.400 C 196.498 310.630,196.143 310.000,196.012 310.000 C 195.880 310.000,195.473 309.492,195.106 308.872 C 194.740 308.252,193.801 307.047,193.020 306.194 C 192.239 305.341,191.600 304.500,191.600 304.325 C 191.600 303.645,188.254 300.085,186.400 298.793 C 185.630 298.257,184.601 297.422,184.113 296.940 C 183.625 296.457,182.860 295.946,182.413 295.804 C 181.966 295.662,181.600 295.400,181.600 295.222 C 181.600 295.043,181.060 294.673,180.400 294.400 C 179.740 294.127,179.200 293.715,179.200 293.485 C 179.200 293.255,179.092 293.174,178.960 293.306 C 178.753 293.514,177.121 292.847,174.705 291.568 C 174.323 291.366,173.738 291.200,173.405 291.200 C 173.072 291.200,172.800 291.020,172.800 290.800 C 172.800 290.580,172.350 290.400,171.800 290.400 C 171.250 290.400,170.800 290.220,170.800 290.000 C 170.800 289.780,170.260 289.600,169.600 289.600 C 168.940 289.600,168.400 289.420,168.400 289.200 C 168.400 288.980,167.691 288.800,166.824 288.800 C 165.957 288.800,165.136 288.620,165.000 288.400 C 164.864 288.180,163.593 288.000,162.176 288.000 C 160.725 288.000,159.600 287.825,159.600 287.600 C 159.600 287.353,157.533 287.200,154.200 287.200 C 150.867 287.200,148.800 287.353,148.800 287.600 M162.000 307.243 C 164.457 308.080,164.959 308.280,167.000 309.234 C 182.508 316.485,189.250 338.209,180.016 351.177 C 179.567 351.808,179.200 352.429,179.200 352.557 C 179.200 352.990,177.817 354.583,174.997 357.400 C 165.336 367.049,151.050 368.699,138.800 361.581 C 138.250 361.261,137.710 360.909,137.600 360.798 C 137.490 360.686,136.770 360.126,136.000 359.553 C 133.696 357.837,132.241 356.339,130.263 353.648 C 128.557 351.325,127.911 350.153,126.713 347.200 C 126.489 346.650,126.148 345.887,125.953 345.505 C 125.759 345.123,125.600 344.394,125.600 343.885 C 125.600 343.376,125.410 342.770,125.177 342.537 C 124.920 342.280,124.752 339.896,124.748 336.464 C 124.744 331.250,125.043 329.097,126.049 327.105 C 126.242 326.723,126.400 326.154,126.400 325.839 C 126.400 323.836,131.673 316.226,134.800 313.716 C 136.010 312.745,137.317 311.692,137.705 311.375 C 138.092 311.059,138.514 310.800,138.643 310.800 C 138.771 310.800,139.354 310.471,139.938 310.070 C 140.522 309.668,141.630 309.110,142.400 308.829 C 143.170 308.549,144.160 308.178,144.600 308.005 C 148.680 306.404,158.299 305.982,162.000 307.243 " stroke="none" fill="#046cf3" fill-rule="evenodd"></path><path id="path2" d="M143.091 34.289 C 143.801 34.377,145.061 34.379,145.891 34.292 C 146.721 34.205,146.140 34.133,144.600 34.131 C 143.060 34.129,142.381 34.200,143.091 34.289 M138.200 34.800 C 137.181 35.238,138.232 35.238,139.600 34.800 C 140.404 34.543,140.443 34.477,139.800 34.468 C 139.360 34.462,138.640 34.611,138.200 34.800 M149.600 34.800 C 150.150 34.976,150.960 35.120,151.400 35.120 C 152.033 35.120,151.992 35.054,151.200 34.800 C 150.650 34.624,149.840 34.480,149.400 34.480 C 148.767 34.480,148.808 34.546,149.600 34.800 M133.300 36.234 C 132.585 36.546,132.000 36.890,132.000 36.998 C 132.000 37.176,135.176 36.051,135.567 35.735 C 135.995 35.388,134.462 35.726,133.300 36.234 M153.633 35.735 C 154.019 36.047,157.200 37.177,157.200 37.002 C 157.200 36.763,154.451 35.600,153.884 35.600 C 153.655 35.600,153.542 35.661,153.633 35.735 M127.030 39.811 C 125.727 40.795,124.781 41.600,124.929 41.600 C 125.077 41.600,126.298 40.790,127.643 39.800 C 128.988 38.810,129.933 38.005,129.744 38.011 C 129.555 38.017,128.334 38.827,127.030 39.811 M160.600 39.016 C 161.480 39.619,162.695 40.570,163.300 41.131 C 163.905 41.691,164.399 41.981,164.398 41.775 C 164.396 41.381,160.324 38.301,159.487 38.060 C 159.219 37.983,159.720 38.413,160.600 39.016 M121.634 44.953 L 120.669 46.200 121.813 45.112 C 122.443 44.514,122.877 43.953,122.779 43.865 C 122.680 43.777,122.165 44.267,121.634 44.953 M166.400 43.937 C 166.400 44.138,166.681 44.535,167.025 44.821 C 167.609 45.306,169.744 48.401,170.735 50.200 C 170.977 50.640,171.181 50.810,171.188 50.578 C 171.195 50.346,170.637 49.266,169.949 48.178 C 168.530 45.933,166.400 43.389,166.400 43.937 M119.302 48.100 C 118.736 48.815,117.940 50.400,118.146 50.400 C 118.242 50.400,118.693 49.770,119.147 49.000 C 119.973 47.601,120.049 47.157,119.302 48.100 M115.056 59.284 C 114.921 59.788,114.830 60.830,114.852 61.600 C 114.886 62.734,114.962 62.589,115.252 60.839 C 115.620 58.625,115.496 57.643,115.056 59.284 M173.800 63.775 C 173.800 66.716,173.932 68.914,174.094 68.661 C 174.460 68.086,174.442 60.048,174.072 59.114 C 173.922 58.736,173.800 60.834,173.800 63.775 M114.828 66.633 C 114.844 67.495,115.017 68.560,115.214 69.000 C 115.448 69.522,115.488 69.037,115.332 67.600 C 115.043 64.958,114.789 64.470,114.828 66.633 M173.246 70.667 C 173.221 70.924,173.084 71.464,172.941 71.867 C 172.740 72.436,172.794 72.497,173.179 72.142 C 173.452 71.891,173.589 71.351,173.484 70.942 C 173.379 70.534,173.272 70.410,173.246 70.667 M115.612 71.200 C 115.612 71.530,115.787 72.070,116.000 72.400 C 116.345 72.933,116.388 72.933,116.388 72.400 C 116.388 72.070,116.213 71.530,116.000 71.200 C 115.655 70.667,115.612 70.667,115.612 71.200 M119.265 79.600 C 119.602 80.150,120.129 81.005,120.435 81.500 C 120.742 81.995,121.138 82.400,121.317 82.400 C 121.495 82.400,121.146 81.725,120.542 80.900 C 119.141 78.986,118.473 78.306,119.265 79.600 M165.027 84.948 C 161.482 88.572,161.624 88.697,165.332 85.214 C 166.931 83.712,169.191 81.072,168.727 81.248 C 168.657 81.275,166.992 82.940,165.027 84.948 M123.000 84.344 C 123.880 85.292,125.320 86.623,126.200 87.303 C 128.065 88.742,127.583 88.233,124.000 84.980 C 122.140 83.292,121.856 83.111,123.000 84.344 M137.200 92.782 C 137.530 93.005,138.145 93.191,138.567 93.194 C 139.590 93.202,139.271 92.973,137.800 92.644 C 136.924 92.448,136.762 92.485,137.200 92.782 M150.800 92.800 C 149.976 93.064,149.941 93.126,150.600 93.154 C 151.040 93.173,151.670 93.013,152.000 92.800 C 152.701 92.347,152.214 92.347,150.800 92.800 M141.300 93.476 C 141.685 93.576,142.315 93.576,142.700 93.476 C 143.085 93.375,142.770 93.293,142.000 93.293 C 141.230 93.293,140.915 93.375,141.300 93.476 M146.500 93.476 C 146.885 93.576,147.515 93.576,147.900 93.476 C 148.285 93.375,147.970 93.293,147.200 93.293 C 146.430 93.293,146.115 93.375,146.500 93.476 M253.300 170.287 C 253.905 170.378,254.895 170.378,255.500 170.287 C 256.105 170.195,255.610 170.120,254.400 170.120 C 253.190 170.120,252.695 170.195,253.300 170.287 M260.033 170.943 C 260.125 171.021,260.830 171.201,261.600 171.342 C 262.585 171.523,262.822 171.482,262.400 171.206 C 261.858 170.850,259.637 170.603,260.033 170.943 M245.400 171.485 C 244.960 171.591,244.432 171.837,244.227 172.032 C 244.022 172.227,244.451 172.215,245.181 172.005 C 247.243 171.414,247.417 171.000,245.400 171.485 M263.233 171.735 C 263.619 172.047,266.800 173.177,266.800 173.002 C 266.800 172.763,264.051 171.600,263.484 171.600 C 263.255 171.600,263.142 171.661,263.233 171.735 M270.400 174.925 C 270.400 175.024,271.061 175.609,271.868 176.225 C 272.676 176.841,273.211 177.141,273.056 176.891 C 272.740 176.379,270.400 174.647,270.400 174.925 M275.581 179.400 C 278.474 182.617,278.667 182.799,277.698 181.400 C 277.241 180.740,276.092 179.480,275.145 178.600 C 273.685 177.243,273.751 177.365,275.581 179.400 M228.614 185.035 C 228.241 185.604,228.027 186.161,228.139 186.272 C 228.250 186.383,228.629 185.918,228.981 185.237 C 229.759 183.733,229.544 183.615,228.614 185.035 M281.246 187.400 C 281.253 187.620,281.606 188.520,282.029 189.400 C 282.452 190.280,282.686 190.550,282.549 190.000 C 282.267 188.867,281.225 186.788,281.246 187.400 M225.049 194.215 C 224.912 194.573,224.820 195.436,224.844 196.133 C 224.882 197.237,224.933 197.171,225.236 195.625 C 225.593 193.805,225.494 193.057,225.049 194.215 M283.693 196.000 C 283.693 196.770,283.775 197.085,283.876 196.700 C 283.976 196.315,283.976 195.685,283.876 195.300 C 283.775 194.915,283.693 195.230,283.693 196.000 M283.888 201.166 C 283.729 203.238,283.673 205.006,283.763 205.096 C 284.010 205.343,284.500 199.515,284.327 198.385 C 284.244 197.843,284.047 199.095,283.888 201.166 M224.806 204.033 C 224.809 204.785,224.992 205.670,225.212 206.000 C 225.491 206.419,225.533 206.058,225.350 204.800 C 225.025 202.559,224.798 202.240,224.806 204.033 M283.000 207.200 C 282.848 207.891,282.807 208.541,282.909 208.642 C 283.011 208.744,283.209 208.253,283.350 207.550 C 283.491 206.847,283.531 206.198,283.441 206.108 C 283.350 206.017,283.152 206.509,283.000 207.200 M225.628 207.876 C 225.613 208.358,225.780 208.864,226.000 209.000 C 226.473 209.292,226.473 208.901,226.000 207.800 C 225.669 207.029,225.655 207.031,225.628 207.876 M281.122 212.456 C 280.529 213.745,280.121 214.800,280.215 214.800 C 280.506 214.800,282.453 210.756,282.323 210.424 C 282.255 210.252,281.715 211.167,281.122 212.456 M275.826 220.313 C 274.068 222.304,273.895 222.585,275.160 221.400 C 276.658 219.996,278.681 217.577,278.327 217.613 C 278.257 217.620,277.132 218.835,275.826 220.313 M233.393 221.193 C 234.248 222.069,235.011 222.723,235.087 222.646 C 235.258 222.476,232.417 219.600,232.079 219.600 C 231.946 219.600,232.537 220.317,233.393 221.193 M235.783 223.173 C 236.139 223.748,239.619 226.115,239.817 225.916 C 239.906 225.828,238.976 225.080,237.752 224.256 C 236.528 223.431,235.642 222.944,235.783 223.173 M242.000 227.014 C 242.000 227.293,244.906 228.431,245.291 228.303 C 245.482 228.239,244.820 227.884,243.819 227.513 C 242.819 227.142,242.000 226.917,242.000 227.014 M246.400 228.794 C 246.730 229.011,247.435 229.191,247.967 229.194 C 249.251 229.202,248.925 228.975,247.200 228.658 C 246.215 228.477,245.978 228.518,246.400 228.794 M261.000 228.800 C 259.893 229.082,259.877 229.109,260.800 229.147 C 261.350 229.169,262.070 229.013,262.400 228.800 C 263.081 228.360,262.729 228.360,261.000 228.800 M252.900 229.891 C 253.725 229.978,255.075 229.978,255.900 229.891 C 256.725 229.805,256.050 229.734,254.400 229.734 C 252.750 229.734,252.075 229.805,252.900 229.891 M151.505 306.683 C 152.002 306.779,152.722 306.775,153.105 306.675 C 153.487 306.575,153.080 306.496,152.200 306.501 C 151.320 306.505,151.007 306.587,151.505 306.683 M156.100 306.676 C 156.485 306.776,157.115 306.776,157.500 306.676 C 157.885 306.575,157.570 306.493,156.800 306.493 C 156.030 306.493,155.715 306.575,156.100 306.676 M147.200 307.206 C 146.778 307.482,147.015 307.523,148.000 307.342 C 149.725 307.025,150.051 306.798,148.767 306.806 C 148.235 306.809,147.530 306.989,147.200 307.206 M159.233 306.943 C 159.325 307.021,160.030 307.201,160.800 307.342 C 161.785 307.523,162.022 307.482,161.600 307.206 C 161.058 306.850,158.837 306.603,159.233 306.943 M140.000 310.033 L 139.000 310.848 140.300 310.214 C 141.015 309.865,141.600 309.494,141.600 309.390 C 141.600 308.992,140.963 309.248,140.000 310.033 M175.200 315.400 C 176.395 316.610,177.463 317.600,177.573 317.600 C 177.683 317.600,176.795 316.610,175.600 315.400 C 174.405 314.190,173.337 313.200,173.227 313.200 C 173.117 313.200,174.005 314.190,175.200 315.400 M133.000 315.200 C 132.368 315.860,132.019 316.390,132.225 316.378 C 132.578 316.357,134.639 314.000,134.305 314.000 C 134.220 314.000,133.632 314.540,133.000 315.200 M178.066 318.200 C 178.298 318.890,180.868 323.200,181.046 323.200 C 181.291 323.200,179.789 320.410,178.785 319.000 C 178.315 318.340,177.991 317.980,178.066 318.200 M125.049 329.815 C 124.912 330.173,124.821 330.946,124.846 331.533 C 124.880 332.332,124.970 332.198,125.204 331.000 C 125.535 329.300,125.462 328.740,125.049 329.815 M183.751 336.000 C 183.751 338.530,183.816 339.565,183.896 338.300 C 183.975 337.035,183.975 334.965,183.896 333.700 C 183.816 332.435,183.751 333.470,183.751 336.000 M124.800 341.110 C 124.800 341.793,124.977 342.462,125.194 342.596 C 125.440 342.748,125.494 342.345,125.337 341.520 C 125.000 339.751,124.800 339.599,124.800 341.110 M182.712 344.000 C 182.576 344.550,182.350 345.450,182.210 346.000 C 182.052 346.622,182.197 346.479,182.592 345.621 C 182.942 344.862,183.168 343.962,183.094 343.621 C 183.010 343.231,182.868 343.372,182.712 344.000 M180.678 349.405 C 180.312 350.172,180.095 350.800,180.196 350.800 C 180.470 350.800,181.684 348.351,181.501 348.168 C 181.414 348.081,181.044 348.638,180.678 349.405 M128.009 350.300 C 128.014 350.465,128.385 351.050,128.833 351.600 L 129.648 352.600 129.014 351.300 C 128.411 350.065,127.989 349.645,128.009 350.300 M130.847 354.400 C 132.461 356.566,133.205 357.371,133.185 356.929 C 133.176 356.748,132.345 355.700,131.337 354.600 L 129.505 352.600 130.847 354.400 M174.800 357.144 C 172.930 359.041,171.940 360.204,172.600 359.729 C 174.145 358.615,179.049 353.427,178.349 353.647 C 178.267 353.673,176.670 355.246,174.800 357.144 M133.633 357.700 C 133.725 357.755,134.340 358.250,135.000 358.800 L 136.200 359.800 135.230 358.700 C 134.697 358.095,134.082 357.600,133.864 357.600 C 133.645 357.600,133.542 357.645,133.633 357.700 M167.033 362.700 C 166.869 362.865,165.984 363.305,165.067 363.678 C 164.150 364.050,163.627 364.365,163.904 364.378 C 164.442 364.401,168.000 362.819,168.000 362.556 C 168.000 362.288,167.348 362.385,167.033 362.700 M141.600 363.014 C 141.600 363.293,144.506 364.431,144.891 364.303 C 145.082 364.239,144.420 363.884,143.419 363.513 C 142.419 363.142,141.600 362.917,141.600 363.014 M147.600 365.200 C 148.150 365.376,148.960 365.520,149.400 365.520 C 150.033 365.520,149.992 365.454,149.200 365.200 C 148.650 365.024,147.840 364.880,147.400 364.880 C 146.767 364.880,146.808 364.946,147.600 365.200 M152.313 365.895 C 153.476 365.976,155.276 365.976,156.313 365.893 C 157.351 365.811,156.400 365.745,154.200 365.746 C 152.000 365.747,151.151 365.814,152.313 365.895 " stroke="none" fill="#2f8aec" fill-rule="evenodd"></path><path id="path3" d="M123.775 42.900 L 122.600 44.200 123.900 43.025 C 124.615 42.379,125.200 41.794,125.200 41.725 C 125.200 41.416,124.870 41.688,123.775 42.900 M114.893 64.000 C 114.893 64.770,114.975 65.085,115.076 64.700 C 115.176 64.315,115.176 63.685,115.076 63.300 C 114.975 62.915,114.893 63.230,114.893 64.000 M143.905 93.483 C 144.402 93.579,145.122 93.575,145.505 93.475 C 145.887 93.375,145.480 93.296,144.600 93.301 C 143.720 93.305,143.407 93.387,143.905 93.483 M224.934 200.000 C 224.934 201.650,225.005 202.325,225.091 201.500 C 225.178 200.675,225.178 199.325,225.091 198.500 C 225.005 197.675,224.934 198.350,224.934 200.000 " stroke="none" fill="#3c94ec" fill-rule="evenodd"></path><path id="path4" d="M140.480 34.740 C 139.973 34.883,141.944 35.000,144.859 35.000 C 147.774 35.000,149.628 34.886,148.979 34.747 C 147.425 34.414,141.649 34.409,140.480 34.740 M136.600 35.600 C 136.096 35.817,136.022 35.944,136.400 35.944 C 136.730 35.944,137.360 35.789,137.800 35.600 C 138.304 35.383,138.378 35.256,138.000 35.256 C 137.670 35.256,137.040 35.411,136.600 35.600 M151.400 35.600 C 151.840 35.789,152.470 35.944,152.800 35.944 C 153.178 35.944,153.104 35.817,152.600 35.600 C 152.160 35.411,151.530 35.256,151.200 35.256 C 150.822 35.256,150.896 35.383,151.400 35.600 M159.200 38.524 C 159.200 38.617,159.965 39.198,160.900 39.815 C 161.835 40.432,162.389 40.680,162.131 40.368 C 161.634 39.767,159.200 38.236,159.200 38.524 M121.944 45.100 C 120.675 46.632,120.219 47.342,120.681 47.065 C 121.193 46.758,122.969 44.400,122.689 44.400 C 122.598 44.400,122.263 44.715,121.944 45.100 M167.375 45.732 C 167.991 46.539,168.576 47.200,168.675 47.200 C 168.953 47.200,167.221 44.860,166.709 44.544 C 166.459 44.389,166.759 44.924,167.375 45.732 M170.516 50.858 C 171.442 52.760,172.260 54.261,172.332 54.193 C 172.526 54.011,170.187 49.135,169.457 48.200 C 169.114 47.760,169.590 48.956,170.516 50.858 M115.693 58.800 C 115.693 59.570,115.775 59.885,115.876 59.500 C 115.976 59.115,115.976 58.485,115.876 58.100 C 115.775 57.715,115.693 58.030,115.693 58.800 M173.400 64.044 C 173.400 67.689,173.510 69.466,173.670 68.400 C 174.023 66.049,174.027 61.410,173.677 59.444 C 173.519 58.556,173.400 60.532,173.400 64.044 M115.342 63.800 C 115.341 65.780,115.408 66.640,115.492 65.712 C 115.576 64.784,115.577 63.164,115.495 62.112 C 115.412 61.060,115.343 61.820,115.342 63.800 M115.654 68.738 C 115.595 69.761,116.773 74.160,117.036 73.898 C 117.125 73.809,116.941 72.850,116.627 71.768 C 116.313 70.686,115.978 69.350,115.882 68.800 C 115.713 67.822,115.708 67.821,115.654 68.738 M172.267 72.667 C 171.887 73.900,171.646 74.979,171.730 75.064 C 171.815 75.149,172.201 74.214,172.587 72.987 C 172.973 71.759,173.214 70.681,173.123 70.590 C 173.032 70.498,172.646 71.433,172.267 72.667 M118.800 78.148 C 118.800 78.563,121.107 81.896,121.609 82.206 C 121.829 82.341,121.438 81.586,120.740 80.526 C 119.273 78.297,118.800 77.717,118.800 78.148 M168.560 80.463 C 167.983 81.378,166.225 83.395,164.655 84.945 C 162.557 87.016,162.307 87.356,163.710 86.226 C 166.109 84.293,170.625 78.800,169.814 78.800 C 169.702 78.800,169.138 79.548,168.560 80.463 M123.400 84.400 C 124.259 85.280,125.037 86.000,125.128 86.000 C 125.465 86.000,122.586 82.866,122.219 82.834 C 122.009 82.815,122.541 83.520,123.400 84.400 M160.100 88.446 C 158.737 89.319,158.295 89.906,159.500 89.243 C 160.418 88.739,161.856 87.627,161.600 87.619 C 161.490 87.616,160.815 87.988,160.100 88.446 M128.400 88.420 C 129.787 89.361,130.578 89.635,129.600 88.836 C 129.050 88.386,128.420 88.017,128.200 88.015 C 127.980 88.013,128.070 88.196,128.400 88.420 M130.976 89.961 C 131.202 90.326,133.600 91.284,133.600 91.008 C 133.600 90.855,131.208 89.600,130.915 89.600 C 130.826 89.600,130.853 89.762,130.976 89.961 M142.515 93.096 C 143.788 93.176,145.768 93.175,146.915 93.094 C 148.062 93.014,147.020 92.949,144.600 92.950 C 142.180 92.951,141.242 93.016,142.515 93.096 M251.200 170.753 C 250.430 170.889,251.960 171.006,254.600 171.012 C 257.864 171.021,258.824 170.934,257.600 170.742 C 255.468 170.407,253.134 170.411,251.200 170.753 M246.800 171.600 C 246.267 171.945,246.267 171.988,246.800 171.988 C 247.130 171.988,247.670 171.813,248.000 171.600 C 248.533 171.255,248.533 171.212,248.000 171.212 C 247.670 171.212,247.130 171.387,246.800 171.600 M271.600 176.360 C 271.600 176.602,271.739 176.800,271.909 176.800 C 272.079 176.800,273.099 177.609,274.177 178.599 C 275.254 179.588,276.202 180.332,276.282 180.251 C 276.363 180.170,275.342 179.163,274.015 178.013 C 272.687 176.862,271.600 176.119,271.600 176.360 M234.975 178.100 L 233.800 179.400 235.100 178.225 C 235.815 177.579,236.400 176.994,236.400 176.925 C 236.400 176.616,236.070 176.888,234.975 178.100 M232.363 180.700 C 230.650 182.611,229.869 183.600,230.075 183.600 C 230.185 183.600,231.034 182.700,231.961 181.600 C 233.745 179.485,234.035 178.836,232.363 180.700 M229.000 185.200 C 228.659 185.860,228.469 186.400,228.579 186.400 C 228.689 186.400,229.059 185.860,229.400 185.200 C 229.741 184.540,229.931 184.000,229.821 184.000 C 229.711 184.000,229.341 184.540,229.000 185.200 M225.649 193.800 C 225.616 194.240,225.496 195.050,225.383 195.600 L 225.177 196.600 225.606 195.619 C 225.842 195.079,225.961 194.269,225.872 193.819 C 225.713 193.021,225.707 193.021,225.649 193.800 M283.073 194.800 C 283.204 195.790,283.376 196.675,283.456 196.767 C 283.757 197.114,283.528 194.564,283.190 193.800 C 282.953 193.266,282.914 193.598,283.073 194.800 M283.254 204.000 C 283.219 204.550,283.096 205.450,282.983 206.000 L 282.777 207.000 283.207 206.015 C 283.443 205.474,283.565 204.574,283.478 204.015 L 283.320 203.000 283.254 204.000 M225.462 205.000 C 225.596 205.880,225.772 206.675,225.853 206.767 C 226.156 207.110,225.929 204.968,225.581 204.200 C 225.329 203.642,225.293 203.885,225.462 205.000 M229.000 214.800 C 229.341 215.460,229.711 216.000,229.821 216.000 C 229.931 216.000,229.741 215.460,229.400 214.800 C 229.059 214.140,228.689 213.600,228.579 213.600 C 228.469 213.600,228.659 214.140,229.000 214.800 M231.200 218.125 C 231.200 218.194,231.785 218.779,232.500 219.425 L 233.800 220.600 232.625 219.300 C 231.530 218.088,231.200 217.816,231.200 218.125 M274.994 220.580 C 274.551 221.031,273.291 222.181,272.194 223.136 L 270.200 224.871 272.700 222.977 C 275.200 221.082,276.252 220.078,275.957 219.870 C 275.871 219.809,275.437 220.129,274.994 220.580 M235.643 222.600 C 236.803 223.590,237.925 224.400,238.136 224.400 C 238.347 224.400,237.818 223.890,236.960 223.267 C 236.102 222.643,235.153 221.833,234.851 221.467 C 234.549 221.100,234.129 220.800,233.918 220.800 C 233.707 220.800,234.484 221.610,235.643 222.600 M268.400 225.636 C 267.736 226.179,267.669 226.315,268.200 226.040 C 269.505 225.366,270.228 224.812,269.800 224.815 C 269.580 224.817,268.950 225.186,268.400 225.636 M240.400 225.790 C 240.400 226.095,242.856 227.277,243.062 227.071 C 243.165 226.968,242.671 226.595,241.963 226.242 C 240.576 225.550,240.400 225.499,240.400 225.790 M251.705 229.346 C 253.015 229.543,255.174 229.540,256.705 229.340 C 259.206 229.013,259.041 228.988,254.400 228.994 C 250.062 228.999,249.705 229.046,251.705 229.346 M152.313 307.095 C 153.476 307.176,155.276 307.176,156.313 307.093 C 157.351 307.011,156.400 306.945,154.200 306.946 C 152.000 306.947,151.151 307.014,152.313 307.095 M147.200 307.600 C 146.376 307.864,146.341 307.926,147.000 307.954 C 147.440 307.973,148.070 307.813,148.400 307.600 C 149.101 307.147,148.614 307.147,147.200 307.600 M171.200 312.274 C 171.970 312.893,173.680 314.385,175.000 315.588 L 177.400 317.776 175.438 315.711 C 174.359 314.576,172.649 313.084,171.638 312.397 C 170.045 311.315,169.987 311.299,171.200 312.274 M135.000 313.951 C 134.340 314.571,133.172 315.780,132.405 316.639 C 131.638 317.498,132.223 317.035,133.705 315.612 C 135.187 314.188,136.400 312.973,136.400 312.912 C 136.400 312.681,136.168 312.853,135.000 313.951 M128.292 322.352 C 127.542 323.621,126.739 325.600,126.974 325.600 C 127.189 325.600,129.219 321.486,129.075 321.342 C 129.011 321.277,128.658 321.732,128.292 322.352 M180.200 322.800 C 180.541 323.460,180.911 324.000,181.021 324.000 C 181.131 324.000,180.941 323.460,180.600 322.800 C 180.259 322.140,179.889 321.600,179.779 321.600 C 179.669 321.600,179.859 322.140,180.200 322.800 M125.649 329.200 C 125.616 329.530,125.489 330.250,125.367 330.800 C 125.175 331.664,125.207 331.703,125.599 331.088 C 125.848 330.697,125.975 329.977,125.881 329.488 C 125.786 329.000,125.682 328.870,125.649 329.200 M183.081 331.600 C 183.206 332.810,183.374 333.875,183.454 333.967 C 183.735 334.287,183.517 331.391,183.187 330.400 C 182.971 329.754,182.934 330.180,183.081 331.600 M124.931 336.200 C 124.933 337.740,125.005 338.321,125.092 337.491 C 125.179 336.661,125.177 335.401,125.089 334.691 C 125.000 333.981,124.929 334.660,124.931 336.200 M183.264 339.050 C 183.229 339.738,183.111 340.908,183.001 341.650 L 182.803 343.000 183.224 341.658 C 183.455 340.920,183.573 339.750,183.486 339.058 L 183.328 337.800 183.264 339.050 M125.458 342.000 C 125.775 343.725,126.002 344.051,125.994 342.767 C 125.991 342.235,125.811 341.530,125.594 341.200 C 125.318 340.778,125.277 341.015,125.458 342.000 M182.200 344.400 C 182.050 344.873,182.017 345.350,182.127 345.460 C 182.237 345.570,182.450 345.273,182.600 344.800 C 182.750 344.327,182.783 343.850,182.673 343.740 C 182.563 343.630,182.350 343.927,182.200 344.400 M130.003 352.701 C 130.483 353.715,135.133 358.800,135.582 358.800 C 135.741 358.800,134.866 357.765,133.636 356.500 C 132.406 355.235,130.990 353.660,130.489 353.000 C 129.889 352.210,129.723 352.108,130.003 352.701 M173.600 357.909 L 171.400 360.104 173.441 358.464 C 175.604 356.727,176.727 355.563,176.149 355.657 C 175.957 355.689,174.810 356.702,173.600 357.909 M146.200 364.400 C 146.640 364.589,147.270 364.744,147.600 364.744 C 147.978 364.744,147.904 364.617,147.400 364.400 C 146.960 364.211,146.330 364.056,146.000 364.056 C 145.622 364.056,145.696 364.183,146.200 364.400 M161.400 364.400 C 160.896 364.617,160.822 364.744,161.200 364.744 C 161.530 364.744,162.160 364.589,162.600 364.400 C 163.104 364.183,163.178 364.056,162.800 364.056 C 162.470 364.056,161.840 364.211,161.400 364.400 M149.600 365.184 C 150.580 365.514,154.295 365.742,153.967 365.453 C 153.875 365.372,152.630 365.203,151.200 365.077 C 149.570 364.934,148.973 364.974,149.600 365.184 M156.400 365.200 L 154.600 365.480 156.200 365.500 C 157.080 365.511,158.250 365.376,158.800 365.200 C 160.063 364.795,159.002 364.795,156.400 365.200 " stroke="none" fill="#4494ec" fill-rule="evenodd"></path></g></svg>