<svg id="svg" version="1.1" xmlns="http://www.w3.org/2000/svg" xmlns:xlink="http://www.w3.org/1999/xlink" width="400" height="400" viewBox="0, 0, 400,400"><g id="svgg"><path id="path0" d="M54.506 79.247 C 43.772 83.372,45.370 98.652,56.800 101.182 C 58.883 101.643,78.664 101.748,78.932 101.300 C 79.031 101.135,78.936 100.100,78.720 99.000 C 78.112 95.898,77.863 85.275,78.345 83.000 C 78.578 81.900,78.861 80.415,78.974 79.700 L 79.180 78.400 67.890 78.421 C 57.567 78.440,56.421 78.511,54.506 79.247 M178.977 79.700 C 180.137 86.774,180.235 90.657,179.411 96.800 C 179.101 99.110,178.982 101.137,179.148 101.304 C 179.713 101.877,341.611 101.460,343.290 100.881 C 352.373 97.751,354.082 85.742,346.200 80.428 C 343.056 78.308,346.950 78.400,260.035 78.400 L 178.764 78.400 178.977 79.700 M54.506 196.447 C 45.503 199.907,44.752 212.421,53.264 217.135 C 56.352 218.845,55.952 218.838,139.400 218.716 L 219.400 218.600 219.212 216.400 C 218.888 212.620,218.983 199.901,219.352 197.700 L 219.703 195.600 138.152 195.621 C 57.419 195.641,56.579 195.650,54.506 196.447 M319.757 197.878 C 320.329 200.876,320.330 213.117,319.759 216.107 C 319.196 219.057,318.494 218.902,331.448 218.698 C 342.702 218.522,343.744 218.354,346.490 216.271 C 353.616 210.865,352.706 200.987,344.689 196.702 C 343.062 195.833,342.562 195.796,331.157 195.678 L 319.314 195.557 319.757 197.878 M54.513 313.644 C 46.976 316.541,44.799 326.845,50.561 332.344 C 53.770 335.406,53.667 335.387,67.078 335.522 L 79.157 335.643 78.939 334.122 C 78.819 333.285,78.560 331.970,78.363 331.200 C 77.892 329.362,77.896 318.848,78.367 317.360 C 78.569 316.722,78.822 315.435,78.929 314.500 L 79.124 312.800 67.862 312.821 C 57.579 312.840,56.419 312.911,54.513 313.644 M178.976 314.096 C 180.283 322.064,180.283 326.332,178.977 334.300 L 178.764 335.600 260.282 335.598 C 347.360 335.595,343.573 335.689,346.480 333.471 C 353.532 328.092,352.702 317.959,344.881 313.961 L 343.000 313.000 260.881 312.896 L 178.762 312.792 178.976 314.096 " stroke="none" fill="#bbe3fb" fill-rule="evenodd"></path><path id="path1" d="M124.600 55.464 C 118.905 56.360,118.406 56.467,118.173 56.844 C 118.052 57.040,117.688 57.200,117.365 57.200 C 111.146 57.200,98.725 69.782,96.043 78.800 C 95.748 79.790,95.362 81.050,95.184 81.600 C 93.976 85.340,94.029 97.476,95.257 98.235 C 95.445 98.352,95.600 98.889,95.600 99.429 C 95.600 99.969,95.762 100.723,95.959 101.105 C 96.157 101.487,97.061 103.332,97.969 105.205 C 100.395 110.209,103.572 114.117,107.800 117.299 C 111.178 119.841,112.120 120.400,115.300 121.753 C 129.450 127.773,146.496 123.642,155.628 111.980 C 156.383 111.016,157.315 109.873,157.700 109.438 C 158.085 109.004,158.400 108.428,158.400 108.158 C 158.400 107.888,158.544 107.607,158.720 107.533 C 159.159 107.350,161.600 102.193,161.600 101.449 C 161.600 101.118,161.760 100.748,161.956 100.627 C 163.132 99.901,163.952 89.982,163.248 85.000 C 162.623 80.576,162.300 79.360,161.153 77.105 C 160.959 76.723,160.800 76.138,160.800 75.805 C 160.800 75.472,160.620 75.200,160.400 75.200 C 160.180 75.200,160.000 74.840,160.000 74.400 C 160.000 73.960,159.854 73.600,159.675 73.600 C 159.496 73.600,159.102 72.970,158.800 72.200 C 158.498 71.430,158.104 70.800,157.925 70.800 C 157.746 70.800,157.600 70.622,157.600 70.405 C 157.600 69.825,156.543 68.574,153.385 65.415 C 150.226 62.257,148.975 61.200,148.395 61.200 C 148.178 61.200,148.000 61.020,148.000 60.800 C 148.000 60.580,147.745 60.400,147.433 60.400 C 147.122 60.400,146.807 60.265,146.733 60.100 C 146.605 59.812,143.580 58.279,141.700 57.549 C 141.205 57.357,140.395 57.034,139.900 56.830 C 138.405 56.216,136.488 55.887,129.600 55.065 C 128.830 54.973,126.580 55.152,124.600 55.464 M360.800 141.200 C 360.470 141.413,359.840 141.595,359.400 141.604 C 356.854 141.655,352.855 146.370,352.020 150.307 C 350.647 156.777,356.445 164.000,363.013 164.000 C 367.976 164.000,373.063 160.124,374.422 155.307 C 376.374 148.390,370.529 140.783,363.281 140.806 C 362.247 140.809,361.130 140.987,360.800 141.200 M59.435 258.813 C 53.444 261.802,53.373 269.427,59.308 272.455 C 62.767 274.220,67.641 272.558,69.223 269.074 C 72.212 262.490,65.715 255.679,59.435 258.813 M122.400 289.815 C 81.126 298.097,87.003 359.199,129.074 359.200 C 147.953 359.200,162.754 344.851,163.869 325.468 C 165.129 303.577,144.066 285.468,122.400 289.815 " stroke="none" fill="#eb8b2a" fill-rule="evenodd"></path><path id="path2" d="M62.324 78.299 C 65.473 78.367,70.513 78.367,73.524 78.299 C 76.536 78.231,73.960 78.176,67.800 78.176 C 61.640 78.176,59.176 78.232,62.324 78.299 M178.635 78.344 C 178.518 78.533,178.593 79.478,178.801 80.444 L 179.180 82.200 178.998 80.301 L 178.816 78.402 260.308 78.300 L 341.800 78.198 260.324 78.099 C 215.224 78.044,178.752 78.153,178.635 78.344 M79.049 79.015 C 78.912 79.373,78.815 79.966,78.834 80.333 C 78.853 80.700,79.027 80.469,79.221 79.820 C 79.598 78.558,79.465 77.933,79.049 79.015 M52.944 79.569 C 52.253 79.990,51.547 80.575,51.375 80.868 C 51.203 81.160,51.414 81.093,51.843 80.718 C 52.273 80.342,53.248 79.765,54.012 79.433 C 54.775 79.102,55.130 78.825,54.800 78.817 C 54.470 78.809,53.635 79.148,52.944 79.569 M345.591 79.883 C 346.135 80.277,347.215 81.132,347.991 81.782 L 349.400 82.964 348.318 81.779 C 347.723 81.127,346.643 80.272,345.918 79.879 C 344.649 79.192,344.637 79.192,345.591 79.883 M49.510 82.500 C 48.117 84.338,47.517 85.568,47.742 86.122 C 47.855 86.399,47.950 86.324,47.968 85.945 C 47.986 85.585,48.633 84.370,49.407 83.245 C 50.972 80.969,51.040 80.481,49.510 82.500 M78.256 83.284 C 78.121 83.788,78.036 85.370,78.067 86.800 C 78.124 89.400,78.124 89.400,78.398 86.000 C 78.688 82.404,78.656 81.793,78.256 83.284 M179.746 89.800 C 179.747 92.000,179.814 92.849,179.895 91.687 C 179.976 90.524,179.976 88.724,179.893 87.687 C 179.811 86.649,179.745 87.600,179.746 89.800 M351.068 87.800 C 351.371 89.777,351.602 90.114,351.594 88.567 C 351.591 87.925,351.416 87.130,351.205 86.800 C 350.945 86.391,350.901 86.710,351.068 87.800 M47.043 87.433 C 46.725 88.262,46.781 91.611,47.128 92.486 C 47.278 92.863,47.400 91.738,47.400 89.986 C 47.400 86.520,47.398 86.507,47.043 87.433 M78.040 93.233 C 78.062 94.645,78.217 96.250,78.384 96.800 C 78.551 97.350,78.599 96.270,78.490 94.400 C 78.254 90.334,77.984 89.636,78.040 93.233 M351.246 91.267 C 351.221 91.634,351.096 92.264,350.970 92.667 C 350.752 93.362,350.763 93.363,351.197 92.687 C 351.448 92.296,351.573 91.666,351.473 91.287 C 351.311 90.668,351.288 90.666,351.246 91.267 M347.721 97.847 C 346.577 99.034,345.963 99.834,346.355 99.624 C 347.074 99.239,350.000 96.169,350.000 95.799 C 350.000 95.490,349.929 95.553,347.721 97.847 M49.200 96.925 C 49.200 96.994,49.785 97.579,50.500 98.225 L 51.800 99.400 50.625 98.100 C 49.530 96.888,49.200 96.616,49.200 96.925 M178.893 98.800 C 178.893 99.570,178.975 99.885,179.076 99.500 C 179.176 99.115,179.176 98.485,179.076 98.100 C 178.975 97.715,178.893 98.030,178.893 98.800 M55.600 101.194 C 55.930 101.411,56.635 101.591,57.167 101.594 C 58.451 101.602,58.125 101.375,56.400 101.058 C 55.415 100.877,55.178 100.918,55.600 101.194 M341.600 101.200 C 340.776 101.464,340.741 101.526,341.400 101.554 C 341.840 101.573,342.470 101.413,342.800 101.200 C 343.501 100.747,343.014 100.747,341.600 101.200 M263.000 172.578 C 242.187 176.763,229.704 197.837,236.200 217.823 C 245.905 247.687,286.922 250.586,300.949 222.400 C 313.674 196.832,290.922 166.963,263.000 172.578 M138.071 195.500 C 215.223 195.596,219.553 195.639,219.748 196.301 C 219.908 196.843,219.935 196.820,219.872 196.200 C 219.789 195.403,219.494 195.400,138.195 195.399 L 56.600 195.397 138.071 195.500 M325.124 195.499 C 328.273 195.567,333.313 195.567,336.324 195.499 C 339.336 195.431,336.760 195.376,330.600 195.376 C 324.440 195.376,321.976 195.432,325.124 195.499 M52.167 197.323 C 50.179 198.693,47.593 201.995,47.609 203.144 C 47.614 203.505,47.953 203.062,48.363 202.160 C 49.315 200.062,51.662 197.715,53.760 196.763 C 54.662 196.353,55.105 196.014,54.744 196.009 C 54.383 196.004,53.223 196.596,52.167 197.323 M345.200 197.033 C 346.190 197.596,347.537 198.539,348.194 199.128 C 349.236 200.064,349.287 200.078,348.594 199.239 C 347.724 198.187,344.494 195.997,343.822 196.005 C 343.590 196.007,344.210 196.470,345.200 197.033 M219.018 199.818 C 218.865 200.839,218.822 201.755,218.922 201.855 C 219.022 201.955,219.229 201.202,219.382 200.182 C 219.535 199.161,219.578 198.245,219.478 198.145 C 219.378 198.045,219.171 198.798,219.018 199.818 M319.881 200.800 C 320.006 202.010,320.174 203.075,320.254 203.167 C 320.535 203.487,320.317 200.591,319.987 199.600 C 319.771 198.954,319.734 199.380,319.881 200.800 M351.058 204.800 C 351.375 206.525,351.602 206.851,351.594 205.567 C 351.591 205.035,351.411 204.330,351.194 204.000 C 350.918 203.578,350.877 203.815,351.058 204.800 M47.049 204.615 C 46.912 204.973,46.827 206.196,46.861 207.333 L 46.922 209.400 47.187 206.800 C 47.472 204.018,47.444 203.587,47.049 204.615 M351.254 208.267 C 351.225 208.744,351.096 209.464,350.970 209.867 C 350.752 210.561,350.764 210.562,351.196 209.888 C 351.447 209.497,351.575 208.777,351.481 208.288 C 351.309 207.401,351.309 207.401,351.254 208.267 M320.060 211.650 C 320.027 212.228,319.911 213.308,319.801 214.050 L 319.603 215.400 320.024 214.057 C 320.255 213.319,320.372 212.239,320.282 211.657 L 320.120 210.600 320.060 211.650 M218.895 212.800 C 218.895 213.350,219.032 214.340,219.200 215.000 C 219.472 216.070,219.505 216.092,219.505 215.200 C 219.505 214.650,219.368 213.660,219.200 213.000 C 218.928 211.930,218.895 211.908,218.895 212.800 M347.721 215.047 C 346.577 216.234,345.963 217.034,346.355 216.824 C 347.074 216.439,350.000 213.369,350.000 212.999 C 350.000 212.690,349.929 212.753,347.721 215.047 M49.200 214.125 C 49.200 214.194,49.785 214.779,50.500 215.425 L 51.800 216.600 50.625 215.300 C 49.530 214.088,49.200 213.816,49.200 214.125 M319.084 217.600 C 318.877 218.391,319.430 219.103,319.893 218.640 C 320.025 218.508,319.940 218.400,319.704 218.400 C 319.468 218.400,319.369 218.040,319.484 217.600 C 319.599 217.160,319.603 216.800,319.493 216.800 C 319.383 216.800,319.199 217.160,319.084 217.600 M55.600 218.394 C 55.930 218.611,56.635 218.791,57.167 218.794 C 58.451 218.802,58.125 218.575,56.400 218.258 C 55.415 218.077,55.178 218.118,55.600 218.394 M341.400 218.400 C 340.293 218.682,340.277 218.709,341.200 218.747 C 341.750 218.769,342.470 218.613,342.800 218.400 C 343.481 217.960,343.129 217.960,341.400 218.400 M56.137 312.706 C 55.883 312.868,60.965 312.947,67.431 312.883 L 79.187 312.766 78.993 314.083 L 78.799 315.400 79.183 314.234 C 79.393 313.593,79.473 312.918,79.359 312.734 C 79.105 312.323,56.782 312.296,56.137 312.706 M178.635 312.744 C 178.518 312.933,178.593 313.878,178.801 314.844 L 179.180 316.600 178.997 314.696 L 178.814 312.792 260.992 312.896 C 306.190 312.953,342.862 312.878,342.485 312.728 C 341.471 312.325,178.884 312.341,178.635 312.744 M52.145 314.500 C 50.199 315.801,47.600 319.131,47.600 320.324 C 47.600 320.672,48.064 320.026,48.631 318.887 C 49.704 316.735,51.764 314.810,54.062 313.813 C 54.798 313.493,55.105 313.224,54.745 313.216 C 54.385 313.207,53.215 313.785,52.145 314.500 M346.800 314.925 C 346.800 314.994,347.385 315.579,348.100 316.225 L 349.400 317.400 348.225 316.100 C 347.130 314.888,346.800 314.616,346.800 314.925 M78.256 317.684 C 78.121 318.188,78.036 319.770,78.067 321.200 C 78.124 323.800,78.124 323.800,78.398 320.400 C 78.688 316.804,78.656 316.193,78.256 317.684 M179.746 324.200 C 179.747 326.400,179.814 327.249,179.895 326.087 C 179.976 324.924,179.976 323.124,179.893 322.087 C 179.811 321.049,179.745 322.000,179.746 324.200 M351.058 322.000 C 351.375 323.725,351.602 324.051,351.594 322.767 C 351.591 322.235,351.411 321.530,351.194 321.200 C 350.918 320.778,350.877 321.015,351.058 322.000 M47.043 321.833 C 46.725 322.662,46.781 326.011,47.128 326.886 C 47.278 327.263,47.400 326.138,47.400 324.386 C 47.400 320.920,47.398 320.907,47.043 321.833 M78.040 327.433 C 78.062 328.955,78.215 330.650,78.380 331.200 C 78.546 331.750,78.594 330.580,78.488 328.600 C 78.256 324.278,77.984 323.571,78.040 327.433 M351.246 325.667 C 351.221 326.034,351.096 326.664,350.970 327.067 C 350.752 327.762,350.763 327.763,351.197 327.087 C 351.448 326.696,351.573 326.066,351.473 325.687 C 351.311 325.068,351.288 325.066,351.246 325.667 M348.226 331.913 C 346.815 333.603,346.788 333.675,347.960 332.600 C 349.071 331.582,350.288 329.970,349.914 330.013 C 349.851 330.020,349.092 330.875,348.226 331.913 M49.200 331.325 C 49.200 331.394,49.785 331.979,50.500 332.625 L 51.800 333.800 50.625 332.500 C 49.530 331.288,49.200 331.016,49.200 331.325 M178.893 333.200 C 178.893 333.970,178.975 334.285,179.076 333.900 C 179.176 333.515,179.176 332.885,179.076 332.500 C 178.975 332.115,178.893 332.430,178.893 333.200 M178.406 335.300 C 178.400 335.965,182.527 335.995,260.300 335.901 L 342.200 335.802 260.623 335.700 C 195.971 335.619,178.980 335.495,178.729 335.099 C 178.504 334.744,178.410 334.802,178.406 335.300 M67.800 335.600 L 56.200 335.818 67.676 335.909 C 74.995 335.967,79.242 335.855,79.400 335.600 C 79.536 335.380,79.592 335.241,79.524 335.291 C 79.456 335.341,74.180 335.480,67.800 335.600 " stroke="none" fill="#3453c3" fill-rule="evenodd"></path><path id="path3" d="M73.600 31.600 C 73.283 32.040,72.787 32.400,72.499 32.400 C 72.211 32.400,71.858 32.715,71.715 33.100 C 71.572 33.485,71.128 34.091,70.728 34.447 C 70.118 34.989,70.000 35.727,70.000 39.000 C 70.000 42.273,70.118 43.011,70.728 43.553 C 71.128 43.909,71.572 44.515,71.715 44.900 C 71.858 45.285,72.211 45.600,72.499 45.600 C 72.787 45.600,73.283 45.960,73.600 46.400 C 74.108 47.104,74.635 47.200,78.013 47.200 C 81.296 47.200,81.973 47.085,82.708 46.400 C 83.180 45.960,83.754 45.600,83.983 45.600 C 84.212 45.600,84.400 45.448,84.400 45.262 C 84.400 45.076,84.850 44.401,85.400 43.762 C 86.309 42.704,86.399 42.268,86.400 38.909 L 86.400 35.217 84.191 33.009 L 81.983 30.800 78.080 30.800 C 74.635 30.800,74.109 30.894,73.600 31.600 M119.800 39.200 C 119.664 39.420,118.753 39.600,117.776 39.600 C 116.799 39.600,116.000 39.780,116.000 40.000 C 116.000 40.220,115.280 40.400,114.400 40.400 C 113.520 40.400,112.800 40.580,112.800 40.800 C 112.800 41.020,112.361 41.200,111.824 41.200 C 111.287 41.200,110.750 41.357,110.632 41.548 C 110.514 41.740,109.862 42.008,109.185 42.143 C 107.664 42.447,102.800 44.835,102.800 45.277 C 102.800 45.455,102.440 45.600,102.000 45.600 C 101.560 45.600,101.200 45.768,101.200 45.973 C 101.200 46.178,100.834 46.462,100.387 46.604 C 99.940 46.746,99.138 47.298,98.605 47.831 C 98.072 48.364,97.464 48.800,97.253 48.800 C 96.894 48.800,95.091 50.560,90.100 55.786 C 88.945 56.995,88.000 58.102,88.000 58.245 C 88.000 58.389,87.684 58.797,87.297 59.153 C 86.911 59.509,86.340 60.295,86.030 60.900 L 85.465 62.000 68.756 62.000 C 58.048 62.000,51.958 62.144,51.800 62.400 C 51.664 62.620,51.034 62.800,50.400 62.800 C 49.766 62.800,49.136 62.980,49.000 63.200 C 48.864 63.420,48.403 63.600,47.976 63.600 C 47.549 63.600,47.200 63.780,47.200 64.000 C 47.200 64.220,46.966 64.400,46.680 64.400 C 45.944 64.400,44.007 65.341,44.003 65.700 C 44.001 65.865,43.732 66.000,43.403 66.000 C 43.075 66.000,42.582 66.360,42.307 66.800 C 42.032 67.240,41.577 67.600,41.295 67.600 C 40.623 67.600,36.400 71.830,36.400 72.503 C 36.400 72.789,36.040 73.283,35.600 73.600 C 35.160 73.917,34.796 74.362,34.791 74.588 C 34.786 74.815,34.430 75.450,34.000 76.000 C 33.570 76.550,33.214 77.315,33.209 77.700 C 33.204 78.085,33.020 78.400,32.800 78.400 C 32.580 78.400,32.400 78.749,32.400 79.176 C 32.400 79.603,32.220 80.064,32.000 80.200 C 31.780 80.336,31.600 80.966,31.600 81.600 C 31.600 82.234,31.420 82.864,31.200 83.000 C 30.663 83.332,30.663 96.268,31.200 96.600 C 31.420 96.736,31.600 97.467,31.600 98.224 C 31.600 98.981,31.780 99.600,32.000 99.600 C 32.220 99.600,32.400 99.949,32.400 100.376 C 32.400 100.803,32.580 101.264,32.800 101.400 C 33.020 101.536,33.200 101.997,33.200 102.424 C 33.200 102.851,33.380 103.200,33.600 103.200 C 33.820 103.200,34.000 103.470,34.000 103.800 C 34.000 104.130,34.180 104.400,34.400 104.400 C 34.620 104.400,34.800 104.720,34.800 105.112 C 34.800 105.503,35.160 106.083,35.600 106.400 C 36.040 106.717,36.400 107.121,36.400 107.297 C 36.400 107.827,40.743 112.000,41.295 112.000 C 41.577 112.000,42.032 112.360,42.307 112.800 C 42.582 113.240,43.060 113.600,43.370 113.600 C 43.680 113.600,43.993 113.735,44.067 113.900 C 44.259 114.332,47.572 116.000,48.238 116.000 C 48.547 116.000,48.800 116.180,48.800 116.400 C 48.800 116.620,49.419 116.800,50.176 116.800 C 50.933 116.800,51.664 116.980,51.800 117.200 C 51.958 117.456,58.048 117.600,68.756 117.600 L 85.465 117.600 86.030 118.700 C 86.340 119.305,86.911 120.091,87.297 120.447 C 87.684 120.803,88.000 121.276,88.000 121.499 C 88.000 121.721,88.711 122.600,89.580 123.452 C 91.544 125.377,91.676 125.509,94.535 128.421 C 95.819 129.730,97.058 130.800,97.288 130.800 C 97.518 130.800,97.997 131.116,98.353 131.503 C 98.709 131.889,99.495 132.460,100.100 132.770 C 100.705 133.081,101.200 133.485,101.200 133.668 C 101.200 133.850,101.560 134.000,102.000 134.000 C 102.440 134.000,102.800 134.153,102.800 134.340 C 102.800 134.527,104.015 135.270,105.500 135.990 C 110.767 138.544,113.575 139.600,115.105 139.600 C 115.571 139.600,116.064 139.780,116.200 140.000 C 116.336 140.220,117.236 140.400,118.200 140.400 C 119.164 140.400,120.064 140.580,120.200 140.800 C 120.352 141.046,123.730 141.200,129.000 141.200 C 134.270 141.200,137.648 141.046,137.800 140.800 C 137.936 140.580,138.847 140.400,139.824 140.400 C 140.801 140.400,141.600 140.220,141.600 140.000 C 141.600 139.780,142.219 139.600,142.976 139.600 C 143.733 139.600,144.464 139.420,144.600 139.200 C 144.736 138.980,145.276 138.800,145.800 138.800 C 146.324 138.800,146.864 138.620,147.000 138.400 C 147.136 138.180,147.597 138.000,148.024 138.000 C 148.451 138.000,148.800 137.820,148.800 137.600 C 148.800 137.380,149.143 137.200,149.562 137.200 C 150.378 137.200,153.712 135.599,153.933 135.100 C 154.007 134.935,154.322 134.800,154.633 134.800 C 154.945 134.800,155.200 134.664,155.200 134.498 C 155.200 134.331,155.720 133.965,156.355 133.684 C 156.990 133.403,158.068 132.639,158.751 131.986 C 159.434 131.334,160.177 130.800,160.403 130.800 C 160.628 130.800,162.149 129.495,163.781 127.900 C 165.414 126.305,166.986 124.802,167.275 124.560 C 168.185 123.796,170.000 121.620,170.000 121.292 C 170.000 121.118,170.360 120.717,170.800 120.400 C 171.240 120.083,171.600 119.580,171.600 119.283 C 171.600 117.523,167.583 117.600,259.571 117.600 C 317.190 117.600,346.400 117.465,346.400 117.200 C 346.400 116.980,347.120 116.800,348.000 116.800 C 348.880 116.800,349.600 116.620,349.600 116.400 C 349.600 116.180,349.949 116.000,350.376 116.000 C 350.803 116.000,351.264 115.820,351.400 115.600 C 351.536 115.380,351.997 115.200,352.424 115.200 C 352.851 115.200,353.200 115.020,353.200 114.800 C 353.200 114.580,353.470 114.400,353.800 114.400 C 354.130 114.400,354.400 114.220,354.400 114.000 C 354.400 113.780,354.720 113.600,355.112 113.600 C 355.503 113.600,356.083 113.240,356.400 112.800 C 356.717 112.360,357.121 112.000,357.297 112.000 C 357.715 112.000,362.000 107.715,362.000 107.297 C 362.000 107.121,362.360 106.717,362.800 106.400 C 363.240 106.083,363.600 105.518,363.600 105.145 C 363.600 104.772,363.735 104.407,363.900 104.333 C 364.332 104.141,366.000 100.828,366.000 100.162 C 366.000 99.853,366.180 99.600,366.400 99.600 C 366.620 99.600,366.800 98.981,366.800 98.224 C 366.800 97.467,366.980 96.736,367.200 96.600 C 367.440 96.451,367.600 93.737,367.600 89.800 C 367.600 85.863,367.440 83.149,367.200 83.000 C 366.980 82.864,366.800 82.133,366.800 81.376 C 366.800 80.619,366.620 80.000,366.400 80.000 C 366.180 80.000,366.000 79.640,366.000 79.200 C 366.000 78.760,365.820 78.400,365.600 78.400 C 365.380 78.400,365.200 77.950,365.200 77.400 C 365.200 76.850,365.050 76.400,364.868 76.400 C 364.685 76.400,364.281 75.905,363.970 75.300 C 363.660 74.695,363.089 73.909,362.703 73.553 C 362.316 73.197,362.000 72.698,362.000 72.444 C 362.000 71.928,357.798 67.600,357.297 67.600 C 357.121 67.600,356.717 67.240,356.400 66.800 C 356.083 66.360,355.586 66.000,355.295 66.000 C 355.004 66.000,354.380 65.640,353.908 65.200 C 353.436 64.760,352.633 64.400,352.125 64.400 C 351.616 64.400,351.200 64.220,351.200 64.000 C 351.200 63.780,350.840 63.600,350.400 63.600 C 349.960 63.600,349.600 63.420,349.600 63.200 C 349.600 62.980,348.981 62.800,348.224 62.800 C 347.467 62.800,346.736 62.620,346.600 62.400 C 346.436 62.135,316.957 61.998,259.476 61.995 L 172.600 61.990 171.600 60.535 C 171.050 59.734,170.420 58.806,170.200 58.472 C 169.443 57.322,160.808 48.800,160.401 48.800 C 160.176 48.800,159.466 48.297,158.822 47.681 C 158.179 47.066,157.145 46.302,156.526 45.982 C 155.907 45.663,155.310 45.307,155.200 45.191 C 154.679 44.644,150.054 42.455,148.905 42.212 C 148.192 42.062,147.506 41.772,147.381 41.569 C 147.255 41.366,146.623 41.200,145.976 41.200 C 145.329 41.200,144.800 41.020,144.800 40.800 C 144.800 40.580,144.080 40.400,143.200 40.400 C 142.320 40.400,141.600 40.220,141.600 40.000 C 141.600 39.780,140.891 39.600,140.024 39.600 C 139.157 39.600,138.336 39.420,138.200 39.200 C 138.047 38.953,134.537 38.800,129.000 38.800 C 123.463 38.800,119.953 38.953,119.800 39.200 M268.800 39.600 C 268.483 40.040,267.987 40.400,267.699 40.400 C 267.411 40.400,267.058 40.715,266.915 41.100 C 266.772 41.485,266.328 42.091,265.928 42.447 C 265.321 42.987,265.200 43.723,265.200 46.891 L 265.200 50.689 266.900 52.491 C 270.652 56.468,276.148 56.468,279.900 52.491 L 281.600 50.689 281.600 46.891 C 281.600 43.723,281.479 42.987,280.872 42.447 C 280.472 42.091,280.028 41.485,279.885 41.100 C 279.742 40.715,279.389 40.400,279.101 40.400 C 278.813 40.400,278.317 40.040,278.000 39.600 C 277.489 38.891,276.965 38.800,273.400 38.800 C 269.835 38.800,269.311 38.891,268.800 39.600 M137.800 55.585 C 169.125 63.993,173.844 106.207,145.146 121.296 C 135.124 126.565,124.027 126.612,113.106 121.430 C 104.510 117.352,97.252 108.580,94.877 99.400 C 94.650 98.520,94.269 97.059,94.032 96.154 C 93.794 95.248,93.600 92.416,93.600 89.859 C 93.600 66.816,115.725 49.660,137.800 55.585 M79.668 79.000 C 78.287 87.370,78.300 96.451,79.697 100.137 C 80.369 101.911,79.885 101.987,67.915 101.994 C 55.222 102.001,53.838 101.735,50.471 98.646 C 44.588 93.249,45.998 82.457,53.005 79.254 C 53.662 78.953,54.470 78.557,54.800 78.374 C 56.282 77.550,79.809 78.143,79.668 79.000 M343.505 78.366 C 343.887 78.568,344.848 79.014,345.640 79.357 C 354.613 83.245,353.456 97.603,343.885 101.144 L 341.570 102.000 260.285 101.994 C 212.271 101.990,178.765 101.839,178.426 101.624 C 177.958 101.328,177.934 100.978,178.297 99.731 C 179.152 96.790,179.631 89.970,179.218 86.599 C 179.002 84.839,178.745 82.680,178.645 81.800 C 178.546 80.920,178.339 79.705,178.186 79.100 L 177.907 78.000 260.359 78.000 C 309.509 78.000,343.091 78.148,343.505 78.366 M292.000 125.600 C 291.493 126.040,290.925 126.400,290.739 126.400 C 290.552 126.400,290.400 126.588,290.400 126.817 C 290.400 127.046,290.040 127.620,289.600 128.092 C 288.915 128.828,288.800 129.504,288.800 132.800 C 288.800 136.096,288.915 136.772,289.600 137.508 C 290.040 137.980,290.400 138.542,290.400 138.756 C 290.400 138.971,290.760 139.260,291.200 139.400 C 291.640 139.540,292.000 139.793,292.000 139.963 C 292.000 141.100,299.087 141.713,300.926 140.735 C 306.091 137.989,306.976 130.429,302.616 126.300 L 301.032 124.800 296.977 124.800 C 293.497 124.800,292.792 124.913,292.000 125.600 M355.600 125.206 C 354.830 125.399,353.705 125.677,353.100 125.825 C 352.495 125.973,352.000 126.252,352.000 126.447 C 352.000 126.641,351.728 126.800,351.395 126.800 C 350.839 126.800,349.276 127.523,348.800 128.001 C 348.690 128.111,348.105 128.456,347.500 128.768 C 346.895 129.080,346.400 129.485,346.400 129.668 C 346.400 129.850,346.175 130.004,345.900 130.009 C 345.210 130.022,341.200 134.157,341.200 134.856 C 341.200 135.168,340.840 135.683,340.400 136.000 C 339.960 136.317,339.600 136.814,339.600 137.105 C 339.600 137.396,339.240 138.020,338.800 138.492 C 338.360 138.964,338.000 139.666,338.000 140.052 C 338.000 140.437,337.820 140.864,337.600 141.000 C 337.380 141.136,337.200 141.597,337.200 142.024 C 337.200 142.451,337.020 142.800,336.800 142.800 C 336.580 142.800,336.400 143.329,336.400 143.976 C 336.400 144.623,336.220 145.264,336.000 145.400 C 335.760 145.549,335.600 148.263,335.600 152.200 C 335.600 156.137,335.760 158.851,336.000 159.000 C 336.220 159.136,336.400 159.867,336.400 160.624 C 336.400 161.381,336.580 162.000,336.800 162.000 C 337.020 162.000,337.200 162.349,337.200 162.776 C 337.200 163.203,337.380 163.664,337.600 163.800 C 337.820 163.936,338.000 164.363,338.000 164.748 C 338.000 165.134,338.360 165.836,338.800 166.308 C 339.240 166.780,339.600 167.404,339.600 167.695 C 339.600 167.986,339.960 168.483,340.400 168.800 C 340.840 169.117,341.200 169.596,341.200 169.865 C 341.200 170.518,344.365 173.698,345.941 174.629 C 346.634 175.038,347.200 175.514,347.200 175.686 C 347.200 175.859,347.560 176.000,348.000 176.000 C 348.440 176.000,348.800 176.180,348.800 176.400 C 348.800 176.620,349.070 176.800,349.400 176.800 C 349.730 176.800,350.000 176.980,350.000 177.200 C 350.000 177.420,350.349 177.600,350.776 177.600 C 351.203 177.600,351.664 177.780,351.800 178.000 C 351.936 178.220,352.397 178.400,352.824 178.400 C 353.251 178.400,353.600 178.580,353.600 178.800 C 353.600 179.020,354.320 179.200,355.200 179.200 C 356.080 179.200,356.800 179.380,356.800 179.600 C 356.800 179.851,359.267 180.000,363.400 180.000 C 367.533 180.000,370.000 179.851,370.000 179.600 C 370.000 179.380,370.619 179.200,371.376 179.200 C 372.133 179.200,372.864 179.020,373.000 178.800 C 373.136 178.580,373.597 178.400,374.024 178.400 C 374.451 178.400,374.800 178.220,374.800 178.000 C 374.800 177.780,375.210 177.600,375.712 177.600 C 376.213 177.600,376.883 177.240,377.200 176.800 C 377.517 176.360,378.097 176.000,378.488 176.000 C 378.880 176.000,379.200 175.832,379.200 175.627 C 379.200 175.422,379.584 175.132,380.053 174.983 C 381.039 174.670,385.595 170.402,385.598 169.788 C 385.599 169.562,385.960 169.117,386.400 168.800 C 386.840 168.483,387.200 167.903,387.200 167.512 C 387.200 167.120,387.335 166.799,387.500 166.797 C 387.859 166.793,388.800 164.856,388.800 164.120 C 388.800 163.834,388.980 163.600,389.200 163.600 C 389.420 163.600,389.600 163.251,389.600 162.824 C 389.600 162.397,389.780 161.936,390.000 161.800 C 390.220 161.664,390.400 161.034,390.400 160.400 C 390.400 159.766,390.580 159.136,390.800 159.000 C 391.039 158.852,391.200 156.204,391.200 152.400 C 391.200 148.596,391.039 145.948,390.800 145.800 C 390.580 145.664,390.400 145.111,390.400 144.571 C 390.400 144.031,390.232 143.277,390.026 142.895 C 389.820 142.513,389.248 141.255,388.755 140.100 C 388.261 138.945,387.709 138.000,387.529 138.000 C 387.348 138.000,387.200 137.680,387.200 137.288 C 387.200 136.897,386.840 136.317,386.400 136.000 C 385.960 135.683,385.600 135.205,385.600 134.938 C 385.600 134.305,381.295 130.000,380.662 130.000 C 380.395 130.000,379.917 129.640,379.600 129.200 C 379.283 128.760,378.703 128.400,378.312 128.400 C 377.920 128.400,377.600 128.240,377.600 128.043 C 377.600 127.717,377.003 127.422,372.800 125.673 C 371.161 124.991,357.896 124.631,355.600 125.206 M81.200 141.200 C 80.883 141.640,80.417 142.000,80.165 142.000 C 78.203 142.000,76.638 149.844,78.065 152.526 C 78.662 153.650,80.750 155.738,81.874 156.335 C 84.506 157.735,92.340 156.207,92.391 154.283 C 92.396 154.109,92.760 153.580,93.200 153.108 C 94.085 152.158,94.442 144.400,93.600 144.400 C 93.380 144.400,93.200 144.206,93.200 143.969 C 93.200 143.409,90.991 141.200,90.431 141.200 C 90.194 141.200,90.000 141.020,90.000 140.800 C 90.000 139.941,81.840 140.312,81.200 141.200 M198.400 141.200 C 198.083 141.640,197.633 142.000,197.401 142.000 C 197.168 142.000,196.713 142.329,196.389 142.730 C 193.125 146.777,194.535 153.922,199.074 156.335 C 201.636 157.698,209.600 156.153,209.600 154.294 C 209.600 154.114,209.960 153.580,210.400 153.108 C 211.285 152.158,211.642 144.400,210.800 144.400 C 210.580 144.400,210.400 144.206,210.400 143.969 C 210.400 143.409,208.191 141.200,207.631 141.200 C 207.394 141.200,207.200 141.020,207.200 140.800 C 207.200 139.941,199.040 140.312,198.400 141.200 M366.805 140.906 C 370.219 142.107,374.400 146.106,374.400 148.172 C 374.400 148.491,374.580 148.864,374.800 149.000 C 376.935 150.320,374.083 159.170,370.689 161.760 C 366.043 165.303,360.449 165.245,355.686 161.605 C 345.610 153.905,354.851 136.702,366.805 140.906 M260.200 156.400 C 260.064 156.620,259.243 156.800,258.376 156.800 C 257.509 156.800,256.800 156.980,256.800 157.200 C 256.800 157.420,256.080 157.600,255.200 157.600 C 254.320 157.600,253.600 157.780,253.600 158.000 C 253.600 158.220,253.132 158.400,252.560 158.400 C 251.514 158.400,250.278 158.859,246.600 160.614 C 244.101 161.806,242.241 162.908,242.067 163.300 C 241.993 163.465,241.705 163.600,241.426 163.600 C 241.147 163.600,240.354 164.140,239.663 164.800 C 238.972 165.460,238.224 166.000,237.999 166.000 C 237.065 166.000,227.674 176.002,226.451 178.300 L 225.972 179.200 139.010 179.200 C 81.466 179.200,51.964 179.335,51.800 179.600 C 51.664 179.820,50.933 180.000,50.176 180.000 C 49.419 180.000,48.800 180.180,48.800 180.400 C 48.800 180.620,48.547 180.800,48.238 180.800 C 47.572 180.800,44.259 182.468,44.067 182.900 C 43.993 183.065,43.680 183.200,43.370 183.200 C 43.060 183.200,42.582 183.560,42.307 184.000 C 42.032 184.440,41.577 184.800,41.295 184.800 C 40.623 184.800,36.400 189.030,36.400 189.703 C 36.400 189.989,36.040 190.483,35.600 190.800 C 35.160 191.117,34.800 191.607,34.800 191.888 C 34.800 192.170,34.620 192.400,34.400 192.400 C 34.180 192.400,34.000 192.670,34.000 193.000 C 34.000 193.330,33.820 193.600,33.600 193.600 C 33.380 193.600,33.200 194.050,33.200 194.600 C 33.200 195.150,33.020 195.600,32.800 195.600 C 32.580 195.600,32.400 195.960,32.400 196.400 C 32.400 196.840,32.220 197.200,32.000 197.200 C 31.780 197.200,31.600 197.819,31.600 198.576 C 31.600 199.333,31.420 200.064,31.200 200.200 C 30.663 200.532,30.663 213.468,31.200 213.800 C 31.420 213.936,31.600 214.667,31.600 215.424 C 31.600 216.181,31.780 216.800,32.000 216.800 C 32.220 216.800,32.400 217.053,32.400 217.362 C 32.400 217.880,33.939 221.140,34.401 221.600 C 34.511 221.710,34.856 222.295,35.168 222.900 C 35.480 223.505,35.885 224.000,36.068 224.000 C 36.250 224.000,36.400 224.184,36.400 224.409 C 36.400 225.002,40.689 229.200,41.295 229.200 C 41.577 229.200,42.032 229.560,42.307 230.000 C 42.582 230.440,43.060 230.800,43.370 230.800 C 43.680 230.800,43.993 230.935,44.067 231.100 C 44.259 231.532,47.572 233.200,48.238 233.200 C 48.547 233.200,48.800 233.380,48.800 233.600 C 48.800 233.820,49.520 234.000,50.400 234.000 C 51.280 234.000,52.000 234.180,52.000 234.400 C 52.000 234.665,81.235 234.800,138.906 234.800 L 225.811 234.800 226.800 236.400 C 227.344 237.280,227.926 238.000,228.094 238.000 C 228.262 238.000,228.400 238.203,228.400 238.451 C 228.400 239.010,237.463 248.000,238.027 248.000 C 238.252 248.000,238.872 248.436,239.405 248.969 C 239.938 249.502,240.740 250.054,241.187 250.196 C 241.634 250.338,242.000 250.622,242.000 250.827 C 242.000 251.032,242.270 251.200,242.600 251.200 C 242.930 251.200,243.200 251.380,243.200 251.600 C 243.200 251.820,243.455 252.000,243.767 252.000 C 244.078 252.000,244.393 252.135,244.467 252.300 C 244.688 252.799,248.022 254.400,248.838 254.400 C 249.257 254.400,249.600 254.580,249.600 254.800 C 249.600 255.020,249.872 255.200,250.205 255.200 C 250.538 255.200,251.123 255.358,251.505 255.551 C 252.661 256.135,255.004 256.800,255.905 256.800 C 256.371 256.800,256.864 256.980,257.000 257.200 C 257.136 257.420,257.946 257.600,258.800 257.600 C 259.654 257.600,260.464 257.780,260.600 258.000 C 260.752 258.246,264.130 258.400,269.400 258.400 C 274.670 258.400,278.048 258.246,278.200 258.000 C 278.336 257.780,279.236 257.600,280.200 257.600 C 281.164 257.600,282.064 257.420,282.200 257.200 C 282.336 256.980,282.829 256.800,283.295 256.800 C 284.600 256.800,288.346 255.469,291.295 253.956 C 291.677 253.760,292.262 253.600,292.595 253.600 C 292.928 253.600,293.200 253.420,293.200 253.200 C 293.200 252.980,293.436 252.800,293.725 252.800 C 294.013 252.800,294.636 252.440,295.108 252.000 C 295.580 251.560,296.244 251.200,296.583 251.200 C 296.922 251.200,297.200 251.020,297.200 250.800 C 297.200 250.580,297.443 250.400,297.741 250.400 C 298.038 250.400,298.846 249.860,299.537 249.200 C 300.228 248.540,300.982 248.000,301.214 248.000 C 301.770 248.000,310.400 239.291,310.400 238.729 C 310.400 238.490,310.716 238.003,311.103 237.647 C 311.489 237.291,312.060 236.505,312.370 235.900 L 312.935 234.800 329.644 234.800 C 340.352 234.800,346.442 234.656,346.600 234.400 C 346.736 234.180,347.467 234.000,348.224 234.000 C 348.981 234.000,349.600 233.820,349.600 233.600 C 349.600 233.380,349.949 233.200,350.376 233.200 C 350.803 233.200,351.264 233.020,351.400 232.800 C 351.536 232.580,351.997 232.400,352.424 232.400 C 352.851 232.400,353.200 232.220,353.200 232.000 C 353.200 231.780,353.470 231.600,353.800 231.600 C 354.130 231.600,354.400 231.420,354.400 231.200 C 354.400 230.980,354.720 230.800,355.112 230.800 C 355.503 230.800,356.083 230.440,356.400 230.000 C 356.717 229.560,357.121 229.200,357.297 229.200 C 357.473 229.200,358.603 228.214,359.809 227.009 C 361.014 225.803,362.000 224.673,362.000 224.497 C 362.000 224.321,362.360 223.917,362.800 223.600 C 363.240 223.283,363.600 222.703,363.600 222.312 C 363.600 221.920,363.780 221.600,364.000 221.600 C 364.220 221.600,364.400 221.330,364.400 221.000 C 364.400 220.670,364.580 220.400,364.800 220.400 C 365.020 220.400,365.200 220.051,365.200 219.624 C 365.200 219.197,365.380 218.736,365.600 218.600 C 365.820 218.464,366.000 218.003,366.000 217.576 C 366.000 217.149,366.180 216.800,366.400 216.800 C 366.620 216.800,366.800 216.181,366.800 215.424 C 366.800 214.667,366.980 213.936,367.200 213.800 C 367.440 213.651,367.600 210.937,367.600 207.000 C 367.600 203.063,367.440 200.349,367.200 200.200 C 366.980 200.064,366.800 199.333,366.800 198.576 C 366.800 197.819,366.620 197.200,366.400 197.200 C 366.180 197.200,366.000 196.840,366.000 196.400 C 366.000 195.960,365.820 195.600,365.600 195.600 C 365.380 195.600,365.200 195.366,365.200 195.080 C 365.200 194.344,364.259 192.407,363.900 192.403 C 363.735 192.401,363.600 192.170,363.600 191.888 C 363.600 191.607,363.240 191.117,362.800 190.800 C 362.360 190.483,362.000 189.989,362.000 189.703 C 362.000 189.145,357.832 184.800,357.297 184.800 C 357.121 184.800,356.717 184.440,356.400 184.000 C 356.083 183.560,355.503 183.200,355.112 183.200 C 354.720 183.200,354.399 183.065,354.397 182.900 C 354.393 182.541,352.456 181.600,351.720 181.600 C 351.434 181.600,351.200 181.420,351.200 181.200 C 351.200 180.980,350.840 180.800,350.400 180.800 C 349.960 180.800,349.600 180.620,349.600 180.400 C 349.600 180.180,348.981 180.000,348.224 180.000 C 347.467 180.000,346.736 179.820,346.600 179.600 C 346.442 179.344,340.352 179.200,329.644 179.200 L 312.935 179.200 312.370 178.100 C 312.060 177.495,311.489 176.709,311.103 176.353 C 310.716 175.997,310.400 175.586,310.400 175.439 C 310.400 174.855,301.780 166.000,301.212 166.000 C 300.981 166.000,300.228 165.460,299.537 164.800 C 298.846 164.140,298.038 163.600,297.741 163.600 C 297.443 163.600,297.200 163.420,297.200 163.200 C 297.200 162.980,296.840 162.800,296.400 162.800 C 295.960 162.800,295.600 162.665,295.600 162.499 C 295.600 161.833,288.083 158.400,286.626 158.400 C 286.062 158.400,285.600 158.220,285.600 158.000 C 285.600 157.780,284.880 157.600,284.000 157.600 C 283.120 157.600,282.400 157.420,282.400 157.200 C 282.400 156.980,281.601 156.800,280.624 156.800 C 279.647 156.800,278.736 156.620,278.600 156.400 C 278.447 156.153,274.937 156.000,269.400 156.000 C 263.863 156.000,260.353 156.153,260.200 156.400 M276.711 172.608 C 304.074 178.317,314.165 212.314,294.328 231.967 C 275.787 250.336,244.770 242.990,236.205 218.200 C 227.459 192.887,250.361 167.111,276.711 172.608 M220.230 196.500 C 219.073 202.268,219.073 211.684,220.229 217.474 C 220.600 219.331,225.103 219.243,136.800 219.116 L 55.800 219.000 53.951 218.145 C 44.857 213.940,44.269 200.447,53.005 196.454 C 53.662 196.153,54.470 195.759,54.800 195.577 C 55.130 195.396,92.545 195.236,137.945 195.224 L 220.491 195.200 220.230 196.500 M343.505 195.556 C 343.887 195.751,344.890 196.246,345.734 196.656 C 354.156 200.742,353.730 213.365,345.016 217.927 L 343.000 218.983 331.135 218.991 C 324.609 218.996,319.151 218.882,319.006 218.738 C 318.861 218.594,319.026 216.441,319.371 213.954 C 320.141 208.414,320.147 205.388,319.395 200.200 C 319.076 198.000,318.812 195.975,318.808 195.700 C 318.798 195.101,342.348 194.963,343.505 195.556 M56.600 242.045 C 55.500 242.241,54.287 242.581,53.905 242.801 C 53.523 243.020,52.938 243.200,52.605 243.200 C 52.272 243.200,52.000 243.380,52.000 243.600 C 52.000 243.820,51.640 244.000,51.200 244.000 C 50.760 244.000,50.400 244.180,50.400 244.400 C 50.400 244.620,50.080 244.800,49.688 244.800 C 49.297 244.800,48.717 245.160,48.400 245.600 C 48.083 246.040,47.618 246.400,47.366 246.400 C 46.982 246.400,44.482 248.942,42.979 250.862 C 42.299 251.730,41.200 254.077,41.200 254.661 C 41.200 254.958,41.020 255.200,40.800 255.200 C 40.580 255.200,40.400 255.560,40.400 256.000 C 40.400 256.440,40.220 256.800,40.000 256.800 C 39.780 256.800,39.600 257.340,39.600 258.000 C 39.600 258.660,39.420 259.200,39.200 259.200 C 38.660 259.200,38.660 271.866,39.200 272.200 C 39.420 272.336,39.600 272.761,39.600 273.144 C 39.600 274.019,40.499 275.993,40.900 275.997 C 41.065 275.999,41.200 276.242,41.200 276.539 C 41.200 277.228,42.394 279.640,43.076 280.329 C 43.364 280.619,43.600 280.996,43.600 281.166 C 43.600 281.638,46.898 284.800,47.391 284.800 C 47.629 284.800,48.083 285.160,48.400 285.600 C 48.717 286.040,49.297 286.400,49.688 286.400 C 50.080 286.400,50.400 286.580,50.400 286.800 C 50.400 287.020,50.760 287.200,51.200 287.200 C 51.640 287.200,52.000 287.380,52.000 287.600 C 52.000 287.820,52.360 288.000,52.800 288.000 C 53.240 288.000,53.600 288.180,53.600 288.400 C 53.600 288.620,54.129 288.800,54.776 288.800 C 55.423 288.800,56.064 288.980,56.200 289.200 C 56.546 289.759,67.395 289.711,69.172 289.143 C 71.492 288.400,75.749 286.274,76.447 285.509 C 76.803 285.119,77.284 284.800,77.515 284.800 C 78.098 284.800,81.600 281.248,81.600 280.657 C 81.600 280.393,81.960 279.917,82.400 279.600 C 82.840 279.283,83.200 278.703,83.200 278.312 C 83.200 277.920,83.380 277.600,83.600 277.600 C 83.820 277.600,84.000 277.240,84.000 276.800 C 84.000 276.360,84.180 276.000,84.400 276.000 C 84.620 276.000,84.800 275.640,84.800 275.200 C 84.800 274.760,84.980 274.400,85.200 274.400 C 85.420 274.400,85.600 273.860,85.600 273.200 C 85.600 272.540,85.780 272.000,86.000 272.000 C 86.250 272.000,86.400 269.600,86.400 265.600 C 86.400 261.600,86.250 259.200,86.000 259.200 C 85.780 259.200,85.600 258.660,85.600 258.000 C 85.600 257.340,85.420 256.800,85.200 256.800 C 84.980 256.800,84.800 256.440,84.800 256.000 C 84.800 255.560,84.620 255.200,84.400 255.200 C 84.180 255.200,84.000 254.840,84.000 254.400 C 84.000 253.960,83.820 253.600,83.600 253.600 C 83.380 253.600,83.200 253.280,83.200 252.888 C 83.200 252.497,82.840 251.917,82.400 251.600 C 81.960 251.283,81.600 250.807,81.600 250.543 C 81.600 249.952,78.098 246.400,77.515 246.400 C 77.284 246.400,76.803 246.075,76.447 245.678 C 73.634 242.536,63.876 240.751,56.600 242.045 M152.869 241.997 C 152.051 242.190,150.856 243.044,149.769 244.211 L 148.000 246.111 148.000 250.056 C 148.000 252.419,148.160 254.000,148.400 254.000 C 148.620 254.000,148.800 254.198,148.800 254.440 C 148.800 254.682,149.385 255.463,150.100 256.175 C 153.584 259.647,159.171 259.432,162.700 255.691 L 164.400 253.889 164.400 250.000 L 164.400 246.111 162.642 244.223 C 160.342 241.753,157.059 241.005,152.869 241.997 M65.651 258.169 C 70.691 260.294,72.098 267.559,68.220 271.437 C 64.535 275.122,57.802 273.974,55.323 269.237 C 51.919 262.734,58.854 255.303,65.651 258.169 M315.692 266.000 C 315.220 266.440,314.646 266.800,314.417 266.800 C 314.188 266.800,314.000 266.952,314.000 267.138 C 314.000 267.324,313.550 267.999,313.000 268.638 C 312.091 269.696,312.001 270.132,312.000 273.491 L 312.000 277.183 314.209 279.391 L 316.417 281.600 320.320 281.600 C 323.765 281.600,324.291 281.506,324.800 280.800 C 325.117 280.360,325.613 280.000,325.901 280.000 C 326.189 280.000,326.542 279.685,326.685 279.300 C 326.828 278.915,327.272 278.309,327.672 277.953 C 328.806 276.945,328.748 269.628,327.600 268.800 C 327.160 268.483,326.800 267.987,326.800 267.699 C 326.800 267.411,326.485 267.058,326.100 266.915 C 325.715 266.772,325.109 266.328,324.753 265.928 C 323.756 264.807,316.915 264.861,315.692 266.000 M119.800 273.600 C 119.664 273.820,118.753 274.000,117.776 274.000 C 116.799 274.000,116.000 274.180,116.000 274.400 C 116.000 274.620,115.393 274.800,114.650 274.800 C 113.291 274.800,110.989 275.483,108.400 276.653 C 104.523 278.406,102.800 279.327,102.800 279.647 C 102.800 279.841,102.440 280.000,102.000 280.000 C 101.560 280.000,101.200 280.180,101.200 280.400 C 101.200 280.620,100.957 280.800,100.659 280.800 C 100.362 280.800,99.554 281.340,98.863 282.000 C 98.172 282.660,97.441 283.200,97.239 283.200 C 96.741 283.200,88.000 292.137,88.000 292.645 C 88.000 292.789,87.684 293.197,87.297 293.553 C 86.911 293.909,86.340 294.695,86.030 295.300 L 85.465 296.400 68.756 296.400 C 58.048 296.400,51.958 296.544,51.800 296.800 C 51.664 297.020,50.933 297.200,50.176 297.200 C 49.419 297.200,48.800 297.380,48.800 297.600 C 48.800 297.820,48.440 298.000,48.000 298.000 C 47.560 298.000,47.200 298.180,47.200 298.400 C 47.200 298.620,46.966 298.800,46.680 298.800 C 45.944 298.800,44.007 299.741,44.003 300.100 C 44.001 300.265,43.732 300.400,43.403 300.400 C 43.075 300.400,42.582 300.760,42.307 301.200 C 42.032 301.640,41.577 302.000,41.295 302.000 C 40.623 302.000,36.400 306.230,36.400 306.903 C 36.400 307.189,36.040 307.683,35.600 308.000 C 35.160 308.317,34.800 308.807,34.800 309.088 C 34.800 309.370,34.665 309.601,34.500 309.603 C 34.141 309.607,33.200 311.544,33.200 312.280 C 33.200 312.566,33.020 312.800,32.800 312.800 C 32.580 312.800,32.400 313.160,32.400 313.600 C 32.400 314.040,32.220 314.400,32.000 314.400 C 31.780 314.400,31.600 315.019,31.600 315.776 C 31.600 316.533,31.420 317.264,31.200 317.400 C 30.663 317.732,30.663 330.668,31.200 331.000 C 31.420 331.136,31.600 331.867,31.600 332.624 C 31.600 333.381,31.780 334.000,32.000 334.000 C 32.220 334.000,32.400 334.360,32.400 334.800 C 32.400 335.240,32.580 335.600,32.800 335.600 C 33.020 335.600,33.200 336.050,33.200 336.600 C 33.200 337.150,33.380 337.600,33.600 337.600 C 33.820 337.600,34.000 337.870,34.000 338.200 C 34.000 338.530,34.180 338.800,34.400 338.800 C 34.620 338.800,34.800 339.036,34.800 339.325 C 34.800 339.613,35.160 340.236,35.600 340.708 C 36.040 341.180,36.400 341.668,36.400 341.792 C 36.400 342.255,40.803 346.400,41.295 346.400 C 41.577 346.400,42.032 346.760,42.307 347.200 C 42.582 347.640,43.075 348.000,43.403 348.000 C 43.732 348.000,44.001 348.135,44.003 348.300 C 44.007 348.659,45.944 349.600,46.680 349.600 C 46.966 349.600,47.200 349.780,47.200 350.000 C 47.200 350.220,47.560 350.400,48.000 350.400 C 48.440 350.400,48.800 350.580,48.800 350.800 C 48.800 351.020,49.419 351.200,50.176 351.200 C 50.933 351.200,51.664 351.380,51.800 351.600 C 51.958 351.856,58.048 352.000,68.756 352.000 L 85.465 352.000 86.030 353.100 C 86.340 353.705,86.911 354.491,87.297 354.847 C 87.684 355.203,88.000 355.606,88.000 355.742 C 88.000 356.033,89.170 357.499,89.921 358.149 C 90.208 358.397,90.838 359.012,91.321 359.515 C 95.198 363.549,96.930 365.200,97.288 365.200 C 97.518 365.200,97.997 365.516,98.353 365.903 C 98.709 366.289,99.495 366.860,100.100 367.170 C 100.705 367.481,101.200 367.885,101.200 368.068 C 101.200 368.250,101.560 368.400,102.000 368.400 C 102.440 368.400,102.800 368.553,102.800 368.740 C 102.800 369.159,107.640 371.558,111.000 372.804 C 111.440 372.967,112.303 373.303,112.919 373.550 C 113.534 373.798,114.443 374.000,114.939 374.000 C 115.434 374.000,116.065 374.225,116.340 374.500 C 116.718 374.878,119.765 375.000,128.800 375.000 C 137.834 375.000,140.882 374.878,141.260 374.500 C 141.535 374.225,142.116 374.000,142.552 374.000 C 143.404 374.000,145.767 373.320,146.895 372.751 C 147.277 372.558,147.862 372.400,148.195 372.400 C 148.528 372.400,148.800 372.220,148.800 372.000 C 148.800 371.780,149.079 371.600,149.419 371.600 C 150.195 371.600,154.475 369.526,155.200 368.799 C 155.310 368.689,155.907 368.337,156.526 368.018 C 157.145 367.698,158.179 366.934,158.822 366.319 C 159.466 365.703,160.170 365.200,160.388 365.200 C 160.942 365.200,170.000 356.201,170.000 355.651 C 170.000 355.403,170.150 355.200,170.332 355.200 C 170.515 355.200,170.920 354.705,171.232 354.100 C 171.545 353.495,172.012 352.775,172.271 352.500 C 172.646 352.103,190.627 352.000,259.571 352.000 C 317.190 352.000,346.400 351.865,346.400 351.600 C 346.400 351.380,347.120 351.200,348.000 351.200 C 348.880 351.200,349.600 351.020,349.600 350.800 C 349.600 350.580,349.949 350.400,350.376 350.400 C 350.803 350.400,351.264 350.220,351.400 350.000 C 351.536 349.780,351.997 349.600,352.424 349.600 C 352.851 349.600,353.200 349.420,353.200 349.200 C 353.200 348.980,353.470 348.800,353.800 348.800 C 354.130 348.800,354.400 348.620,354.400 348.400 C 354.400 348.180,354.720 348.000,355.112 348.000 C 355.503 348.000,356.083 347.640,356.400 347.200 C 356.717 346.760,357.121 346.400,357.297 346.400 C 357.768 346.400,362.000 342.088,362.000 341.609 C 362.000 341.384,362.150 341.200,362.332 341.200 C 362.515 341.200,362.920 340.705,363.232 340.100 C 363.544 339.495,363.889 338.910,363.999 338.800 C 364.461 338.340,366.000 335.080,366.000 334.562 C 366.000 334.253,366.180 334.000,366.400 334.000 C 366.620 334.000,366.800 333.381,366.800 332.624 C 366.800 331.867,366.980 331.136,367.200 331.000 C 367.440 330.851,367.600 328.137,367.600 324.200 C 367.600 320.263,367.440 317.549,367.200 317.400 C 366.980 317.264,366.800 316.533,366.800 315.776 C 366.800 315.019,366.620 314.400,366.400 314.400 C 366.180 314.400,366.000 314.040,366.000 313.600 C 366.000 313.160,365.820 312.800,365.600 312.800 C 365.380 312.800,365.200 312.350,365.200 311.800 C 365.200 311.250,365.020 310.800,364.800 310.800 C 364.580 310.800,364.400 310.530,364.400 310.200 C 364.400 309.870,364.220 309.600,364.000 309.600 C 363.780 309.600,363.600 309.370,363.600 309.088 C 363.600 308.807,363.240 308.317,362.800 308.000 C 362.360 307.683,362.000 307.189,362.000 306.903 C 362.000 306.345,357.832 302.000,357.297 302.000 C 357.121 302.000,356.717 301.640,356.400 301.200 C 356.083 300.760,355.586 300.400,355.295 300.400 C 355.004 300.400,354.380 300.040,353.908 299.600 C 353.436 299.160,352.633 298.800,352.125 298.800 C 351.616 298.800,351.200 298.620,351.200 298.400 C 351.200 298.180,350.840 298.000,350.400 298.000 C 349.960 298.000,349.600 297.820,349.600 297.600 C 349.600 297.380,348.981 297.200,348.224 297.200 C 347.467 297.200,346.736 297.020,346.600 296.800 C 346.436 296.535,316.961 296.400,259.471 296.400 L 172.589 296.400 171.600 294.800 C 171.056 293.920,170.474 293.200,170.306 293.200 C 170.138 293.200,170.000 293.018,170.000 292.796 C 170.000 292.266,160.931 283.200,160.401 283.200 C 160.176 283.200,159.434 282.666,158.751 282.014 C 158.068 281.361,156.990 280.597,156.355 280.316 C 155.720 280.035,155.200 279.669,155.200 279.502 C 155.200 279.336,155.003 279.200,154.762 279.200 C 154.521 279.200,153.846 278.864,153.262 278.454 C 152.678 278.044,151.480 277.460,150.600 277.156 C 149.720 276.853,148.910 276.508,148.800 276.391 C 148.390 275.954,144.084 274.800,142.865 274.800 C 142.169 274.800,141.600 274.620,141.600 274.400 C 141.600 274.180,140.891 274.000,140.024 274.000 C 139.157 274.000,138.336 273.820,138.200 273.600 C 138.047 273.353,134.537 273.200,129.000 273.200 C 123.463 273.200,119.953 273.353,119.800 273.600 M135.123 289.222 C 139.875 290.290,140.679 290.564,144.600 292.447 C 150.986 295.515,157.205 301.554,159.998 307.400 C 160.313 308.060,160.860 309.050,161.213 309.600 C 165.571 316.386,165.317 331.827,160.718 339.718 C 160.103 340.772,159.600 341.727,159.600 341.840 C 159.600 342.347,156.070 347.189,154.424 348.939 C 150.820 352.770,145.692 355.937,139.400 358.217 C 136.228 359.367,125.053 359.799,121.200 358.920 C 117.582 358.095,112.005 355.860,111.667 355.100 C 111.593 354.935,111.358 354.800,111.145 354.800 C 109.687 354.800,102.489 348.386,100.090 344.951 C 97.694 341.519,95.873 337.363,93.966 330.972 C 93.459 329.269,93.506 319.452,94.032 317.446 C 94.269 316.541,94.660 315.080,94.900 314.200 C 96.690 307.632,105.709 295.216,108.700 295.202 C 108.975 295.201,109.200 295.048,109.200 294.863 C 109.200 294.677,110.055 294.092,111.100 293.563 C 112.145 293.033,113.060 292.465,113.133 292.300 C 113.207 292.135,113.524 292.000,113.839 292.000 C 114.395 292.000,114.828 291.827,116.695 290.862 C 117.187 290.608,117.941 290.400,118.371 290.400 C 118.801 290.400,119.264 290.220,119.400 290.000 C 119.536 289.780,120.222 289.587,120.924 289.572 C 121.626 289.556,122.560 289.389,123.000 289.200 C 124.148 288.707,132.901 288.723,135.123 289.222 M79.668 313.400 C 78.308 321.642,78.327 331.890,79.706 334.568 C 80.605 336.315,79.483 336.472,67.200 336.319 C 56.365 336.183,55.701 336.131,53.800 335.268 C 44.514 331.053,44.276 318.102,53.400 313.437 L 55.400 312.414 67.600 312.507 C 79.552 312.598,79.797 312.616,79.668 313.400 M344.919 313.380 C 354.202 317.626,354.059 331.018,344.686 335.257 L 342.600 336.200 261.600 336.316 C 174.559 336.441,177.779 336.496,178.186 334.874 C 179.552 329.421,179.550 318.962,178.182 313.500 L 177.907 312.400 260.342 312.400 L 342.776 312.400 344.919 313.380 M268.800 367.600 C 268.483 368.040,267.987 368.400,267.699 368.400 C 267.411 368.400,267.055 368.715,266.908 369.100 C 266.761 369.485,266.316 370.149,265.920 370.575 C 265.334 371.207,265.200 372.042,265.200 375.067 L 265.200 378.783 267.409 380.991 L 269.617 383.200 273.520 383.200 C 276.965 383.200,277.491 383.106,278.000 382.400 C 278.317 381.960,278.813 381.600,279.101 381.600 C 279.389 381.600,279.742 381.285,279.885 380.900 C 280.028 380.515,280.472 379.909,280.872 379.553 C 281.482 379.011,281.600 378.273,281.600 375.000 C 281.600 371.727,281.482 370.989,280.872 370.447 C 280.472 370.091,280.028 369.485,279.885 369.100 C 279.742 368.715,279.389 368.400,279.101 368.400 C 278.813 368.400,278.317 368.040,278.000 367.600 C 277.489 366.891,276.965 366.800,273.400 366.800 C 269.835 366.800,269.311 366.891,268.800 367.600 " stroke="none" fill="#040404" fill-rule="evenodd"></path><path id="path4" d="M122.600 54.953 C 107.852 58.074,97.730 68.130,94.061 83.306 C 93.479 85.711,93.460 93.975,94.032 96.154 C 94.269 97.059,94.650 98.520,94.877 99.400 C 97.252 108.580,104.510 117.352,113.106 121.430 C 117.385 123.460,118.091 123.702,122.877 124.778 C 143.006 129.302,164.399 111.370,164.400 89.973 C 164.400 68.252,143.298 50.571,122.600 54.953 M133.800 55.590 C 137.136 56.016,138.687 56.332,139.900 56.830 C 140.395 57.034,141.205 57.357,141.700 57.549 C 143.580 58.279,146.605 59.812,146.733 60.100 C 146.807 60.265,147.122 60.400,147.433 60.400 C 147.745 60.400,148.000 60.580,148.000 60.800 C 148.000 61.020,148.178 61.200,148.395 61.200 C 149.505 61.200,157.600 69.295,157.600 70.405 C 157.600 70.622,157.746 70.800,157.925 70.800 C 158.104 70.800,158.498 71.430,158.800 72.200 C 159.102 72.970,159.496 73.600,159.675 73.600 C 159.854 73.600,160.000 73.960,160.000 74.400 C 160.000 74.840,160.180 75.200,160.400 75.200 C 160.620 75.200,160.800 75.472,160.800 75.805 C 160.800 76.138,160.959 76.723,161.153 77.105 C 163.273 81.272,164.154 88.642,163.246 94.600 C 162.472 99.672,162.315 100.405,161.956 100.627 C 161.760 100.748,161.600 101.118,161.600 101.449 C 161.600 102.193,159.159 107.350,158.720 107.533 C 158.544 107.607,158.400 107.888,158.400 108.158 C 158.400 108.428,158.085 109.004,157.700 109.438 C 157.315 109.873,156.383 111.016,155.628 111.980 C 146.496 123.642,129.450 127.773,115.300 121.753 C 112.120 120.400,111.178 119.841,107.800 117.299 C 103.572 114.117,100.395 110.209,97.969 105.205 C 97.061 103.332,96.157 101.487,95.959 101.105 C 95.762 100.723,95.600 99.969,95.600 99.429 C 95.600 98.889,95.445 98.352,95.257 98.235 C 94.029 97.476,93.976 85.340,95.184 81.600 C 95.362 81.050,95.748 79.790,96.043 78.800 C 98.725 69.782,111.146 57.200,117.365 57.200 C 117.688 57.200,118.052 57.040,118.173 56.844 C 118.294 56.649,118.979 56.385,119.696 56.259 C 124.919 55.342,128.403 54.922,129.600 55.065 C 130.370 55.157,132.260 55.393,133.800 55.590 M55.000 78.400 C 54.708 78.873,55.099 78.873,56.200 78.400 C 56.971 78.069,56.969 78.055,56.124 78.028 C 55.642 78.013,55.136 78.180,55.000 78.400 M79.114 78.338 C 79.404 78.523,79.521 78.997,79.383 79.432 C 79.159 80.138,79.176 80.143,79.591 79.497 C 80.084 78.730,79.831 77.996,79.076 78.006 C 78.737 78.010,78.748 78.106,79.114 78.338 M178.006 78.700 C 178.009 79.085,178.164 79.640,178.350 79.933 C 178.574 80.285,178.674 80.048,178.644 79.234 C 178.599 77.961,177.995 77.455,178.006 78.700 M342.200 78.400 C 343.301 78.873,343.692 78.873,343.400 78.400 C 343.264 78.180,342.758 78.013,342.276 78.028 C 341.431 78.055,341.429 78.069,342.200 78.400 M50.955 80.590 C 50.271 81.130,49.406 82.073,49.033 82.686 L 48.356 83.800 49.278 82.747 C 49.785 82.169,50.740 81.229,51.400 80.660 C 52.926 79.344,52.601 79.293,50.955 80.590 M347.515 81.020 C 348.455 81.825,349.708 83.514,350.407 84.920 C 351.085 86.284,351.519 86.950,351.370 86.400 C 350.724 84.017,347.395 79.600,346.245 79.600 C 346.031 79.600,346.603 80.239,347.515 81.020 M78.662 83.142 C 78.491 84.540,78.438 85.772,78.545 85.879 C 78.832 86.165,79.297 82.685,79.122 81.563 C 79.040 81.033,78.833 81.744,78.662 83.142 M178.885 83.200 C 178.877 83.970,179.010 85.500,179.182 86.600 C 179.485 88.548,179.494 88.559,179.517 87.000 C 179.530 86.120,179.397 84.590,179.220 83.600 C 178.925 81.942,178.899 81.911,178.885 83.200 M47.000 86.400 C 46.850 86.873,46.817 87.350,46.927 87.460 C 47.037 87.570,47.250 87.273,47.400 86.800 C 47.550 86.327,47.583 85.850,47.473 85.740 C 47.363 85.630,47.150 85.927,47.000 86.400 M351.724 89.800 C 351.726 91.120,351.801 91.612,351.890 90.893 C 351.979 90.174,351.977 89.094,351.886 88.493 C 351.795 87.892,351.722 88.480,351.724 89.800 M179.036 94.339 C 178.875 95.955,178.831 97.364,178.937 97.470 C 179.201 97.734,179.731 92.590,179.507 91.930 C 179.409 91.639,179.197 92.722,179.036 94.339 M78.477 94.400 C 78.467 94.950,78.603 96.210,78.780 97.200 L 79.100 99.000 79.103 97.400 C 79.104 96.520,78.968 95.260,78.800 94.600 C 78.523 93.513,78.493 93.494,78.477 94.400 M47.600 94.548 C 47.600 95.761,50.691 99.304,52.600 100.279 C 53.970 100.978,53.665 100.643,51.458 99.025 C 50.610 98.404,49.395 97.073,48.758 96.069 C 48.121 95.065,47.600 94.380,47.600 94.548 M349.836 95.930 C 349.280 97.006,347.021 99.218,345.368 100.306 C 344.946 100.584,345.140 100.554,345.800 100.239 C 347.565 99.396,351.642 94.800,350.624 94.800 C 350.512 94.800,350.158 95.309,349.836 95.930 M178.273 99.753 C 178.123 100.145,178.011 100.766,178.025 101.133 C 178.042 101.575,178.181 101.474,178.437 100.834 C 178.649 100.303,178.761 99.682,178.685 99.454 C 178.609 99.227,178.424 99.361,178.273 99.753 M79.305 100.400 L 79.400 101.400 67.800 101.609 L 56.200 101.818 67.600 101.903 C 79.627 101.992,80.464 101.883,79.679 100.330 L 79.210 99.400 79.305 100.400 M219.500 101.900 C 241.995 101.957,278.805 101.957,301.300 101.900 C 323.795 101.843,305.390 101.796,260.400 101.796 C 215.410 101.796,197.005 101.843,219.500 101.900 M358.511 141.395 C 351.740 144.473,349.285 152.565,353.232 158.800 C 354.787 161.258,356.375 162.445,360.119 163.950 C 365.298 166.032,372.651 162.012,374.713 155.972 C 375.300 154.252,375.361 149.347,374.800 149.000 C 374.580 148.864,374.400 148.491,374.400 148.172 C 374.400 143.050,364.325 138.753,358.511 141.395 M366.281 141.256 C 369.303 142.488,369.928 142.861,371.344 144.276 C 376.440 149.367,375.786 157.154,369.888 161.611 C 365.455 164.962,360.543 164.719,355.766 160.913 C 351.535 157.543,350.590 151.011,353.636 146.207 C 354.880 144.247,358.158 141.629,359.400 141.604 C 359.840 141.595,360.470 141.413,360.800 141.200 C 361.624 140.667,364.920 140.701,366.281 141.256 M55.000 195.600 C 54.708 196.073,55.099 196.073,56.200 195.600 C 56.971 195.269,56.969 195.255,56.124 195.228 C 55.642 195.213,55.136 195.380,55.000 195.600 M219.729 196.902 C 219.677 198.158,219.748 198.392,220.001 197.800 C 220.435 196.788,220.495 195.199,220.100 195.202 C 219.935 195.203,219.768 195.968,219.729 196.902 M342.200 195.600 C 343.301 196.073,343.692 196.073,343.400 195.600 C 343.264 195.380,342.758 195.213,342.276 195.228 C 341.431 195.255,341.429 195.269,342.200 195.600 M50.955 197.790 C 50.271 198.330,49.406 199.273,49.033 199.886 L 48.356 201.000 49.331 199.853 C 49.867 199.222,50.822 198.283,51.453 197.767 C 52.980 196.518,52.544 196.538,50.955 197.790 M347.515 198.220 C 348.455 199.025,349.708 200.714,350.407 202.120 C 351.085 203.484,351.518 204.150,351.369 203.600 C 350.696 201.123,347.364 196.800,346.127 196.800 C 345.978 196.800,346.603 197.439,347.515 198.220 M319.414 199.400 C 320.151 207.548,320.055 211.064,318.933 217.000 C 318.809 217.660,318.828 218.084,318.977 217.943 C 320.127 216.850,320.652 205.602,319.786 200.600 C 319.482 198.840,319.314 198.300,319.414 199.400 M219.057 201.500 C 218.746 203.381,218.809 211.401,219.147 212.977 C 219.286 213.625,219.400 210.970,219.400 207.077 C 219.400 199.268,219.407 199.381,219.057 201.500 M47.000 203.600 C 46.850 204.073,46.817 204.550,46.927 204.660 C 47.037 204.770,47.250 204.473,47.400 204.000 C 47.550 203.527,47.583 203.050,47.473 202.940 C 47.363 202.830,47.150 203.127,47.000 203.600 M351.724 207.000 C 351.726 208.320,351.801 208.812,351.890 208.093 C 351.979 207.374,351.977 206.294,351.886 205.693 C 351.795 205.092,351.722 205.680,351.724 207.000 M349.836 213.130 C 349.280 214.206,347.021 216.418,345.368 217.506 C 344.946 217.784,345.140 217.754,345.800 217.439 C 347.565 216.596,351.642 212.000,350.624 212.000 C 350.512 212.000,350.158 212.509,349.836 213.130 M48.400 213.477 C 48.400 214.577,52.898 217.946,55.200 218.570 C 55.750 218.719,55.084 218.285,53.720 217.607 C 52.314 216.908,50.625 215.655,49.820 214.715 C 49.039 213.803,48.400 213.245,48.400 213.477 M219.668 216.200 C 219.674 216.640,219.824 217.450,220.000 218.000 L 220.320 219.000 220.332 218.000 C 220.338 217.450,220.189 216.640,220.000 216.200 L 219.656 215.400 219.668 216.200 M342.800 218.400 C 342.267 218.745,342.267 218.788,342.800 218.788 C 343.130 218.788,343.670 218.613,344.000 218.400 C 344.533 218.055,344.533 218.012,344.000 218.012 C 343.670 218.012,343.130 218.187,342.800 218.400 M98.332 219.100 C 120.624 219.157,156.984 219.157,179.132 219.100 C 201.279 219.043,183.040 218.996,138.600 218.996 C 94.160 218.996,76.039 219.043,98.332 219.100 M324.900 219.099 C 327.705 219.168,332.295 219.168,335.100 219.099 C 337.905 219.030,335.610 218.974,330.000 218.974 C 324.390 218.974,322.095 219.030,324.900 219.099 M244.800 232.200 C 245.546 232.970,246.247 233.600,246.357 233.600 C 246.467 233.600,245.946 232.970,245.200 232.200 C 244.454 231.430,243.753 230.800,243.643 230.800 C 243.533 230.800,244.054 231.430,244.800 232.200 M268.300 242.289 C 269.015 242.378,270.185 242.378,270.900 242.289 C 271.615 242.201,271.030 242.128,269.600 242.128 C 268.170 242.128,267.585 242.201,268.300 242.289 M59.035 258.413 C 51.386 262.230,53.930 273.600,62.433 273.600 C 67.253 273.600,70.396 270.481,70.399 265.695 C 70.402 259.613,64.372 255.749,59.035 258.413 M65.251 258.576 C 72.644 261.734,71.018 272.452,63.046 273.113 C 59.625 273.396,56.827 271.553,55.364 268.051 C 53.001 262.396,59.535 256.134,65.251 258.576 M123.000 289.200 C 122.560 289.389,121.626 289.556,120.924 289.572 C 120.222 289.587,119.536 289.780,119.400 290.000 C 119.264 290.220,118.801 290.400,118.371 290.400 C 117.941 290.400,117.187 290.608,116.695 290.862 C 114.828 291.827,114.395 292.000,113.839 292.000 C 113.524 292.000,113.207 292.135,113.133 292.300 C 113.060 292.465,112.145 293.033,111.100 293.563 C 110.055 294.092,109.200 294.692,109.200 294.896 C 109.200 295.099,109.785 294.905,110.500 294.464 C 125.846 285.008,146.116 288.760,156.806 303.036 C 163.582 312.085,165.517 322.785,162.486 334.441 C 160.501 342.073,153.069 351.168,145.684 355.002 C 144.520 355.606,143.652 356.185,143.754 356.288 C 144.399 356.932,151.516 352.022,154.449 348.909 C 156.074 347.185,159.600 342.345,159.600 341.840 C 159.600 341.727,160.103 340.772,160.718 339.718 C 165.317 331.827,165.571 316.386,161.213 309.600 C 160.860 309.050,160.313 308.060,159.998 307.400 C 157.205 301.554,150.986 295.515,144.600 292.447 C 140.679 290.564,139.875 290.290,135.123 289.222 C 132.901 288.723,124.148 288.707,123.000 289.200 M104.495 298.700 C 101.186 301.944,98.093 305.826,98.495 306.228 C 98.589 306.323,99.319 305.455,100.117 304.300 C 101.773 301.901,104.592 298.882,107.206 296.708 C 108.193 295.887,108.789 295.212,108.532 295.208 C 108.275 295.204,106.458 296.775,104.495 298.700 M97.440 308.040 C 97.086 308.749,96.874 309.407,96.969 309.502 C 97.064 309.597,97.438 309.101,97.800 308.400 C 98.162 307.699,98.374 307.041,98.271 306.938 C 98.168 306.835,97.794 307.331,97.440 308.040 M95.904 311.257 C 95.373 312.569,94.905 314.117,94.032 317.446 C 93.502 319.465,93.460 329.281,93.973 330.972 C 94.178 331.647,94.571 333.010,94.847 334.000 C 95.563 336.570,97.165 340.168,97.462 339.871 C 97.601 339.733,97.532 339.390,97.310 339.110 C 93.597 334.423,92.988 319.427,96.198 311.742 C 96.535 310.937,96.729 310.195,96.629 310.095 C 96.529 309.995,96.202 310.518,95.904 311.257 M54.800 312.800 C 54.267 313.145,54.267 313.188,54.800 313.188 C 55.130 313.188,55.670 313.013,56.000 312.800 C 56.533 312.455,56.533 312.412,56.000 312.412 C 55.670 312.412,55.130 312.587,54.800 312.800 M178.006 313.100 C 178.009 313.485,178.164 314.040,178.350 314.333 C 178.574 314.685,178.674 314.448,178.644 313.634 C 178.599 312.361,177.995 311.855,178.006 313.100 M50.599 315.255 C 49.813 315.945,48.982 316.890,48.752 317.355 C 48.523 317.820,48.803 317.628,49.374 316.928 C 49.946 316.229,50.905 315.290,51.507 314.841 C 52.108 314.392,52.471 314.020,52.314 314.013 C 52.157 314.006,51.385 314.565,50.599 315.255 M347.711 315.700 C 348.660 316.635,349.749 317.850,350.130 318.400 L 350.823 319.400 350.365 318.400 C 349.859 317.295,346.822 314.000,346.310 314.000 C 346.132 314.000,346.762 314.765,347.711 315.700 M78.662 317.542 C 78.491 318.940,78.438 320.172,78.545 320.279 C 78.832 320.565,79.297 317.085,79.122 315.963 C 79.040 315.433,78.833 316.144,78.662 317.542 M178.881 317.600 C 178.875 318.370,179.010 319.900,179.182 321.000 L 179.493 323.000 179.524 321.200 C 179.540 320.210,179.405 318.680,179.223 317.800 L 178.892 316.200 178.881 317.600 M47.000 320.800 C 46.850 321.273,46.817 321.750,46.927 321.860 C 47.037 321.970,47.250 321.673,47.400 321.200 C 47.550 320.727,47.583 320.250,47.473 320.140 C 47.363 320.030,47.150 320.327,47.000 320.800 M351.724 324.200 C 351.726 325.520,351.801 326.012,351.890 325.293 C 351.979 324.574,351.977 323.494,351.886 322.893 C 351.795 322.292,351.722 322.880,351.724 324.200 M179.036 328.739 C 178.875 330.355,178.831 331.764,178.937 331.870 C 179.201 332.134,179.731 326.990,179.507 326.330 C 179.409 326.039,179.197 327.122,179.036 328.739 M78.477 328.800 C 78.467 329.350,78.603 330.610,78.780 331.600 L 79.100 333.400 79.103 331.800 C 79.104 330.920,78.968 329.660,78.800 329.000 C 78.523 327.913,78.493 327.894,78.477 328.800 M349.831 330.341 C 349.259 331.447,347.625 333.053,345.591 334.509 L 344.600 335.218 345.800 334.642 C 347.568 333.793,351.640 329.200,350.624 329.200 C 350.512 329.200,350.155 329.713,349.831 330.341 M48.400 330.710 C 48.400 331.222,51.695 334.259,52.800 334.765 L 53.800 335.223 52.800 334.530 C 52.250 334.149,51.035 333.060,50.100 332.111 C 49.165 331.162,48.400 330.532,48.400 330.710 M178.273 334.153 C 178.123 334.545,178.011 335.166,178.025 335.533 C 178.042 335.975,178.181 335.874,178.437 335.234 C 178.649 334.703,178.761 334.082,178.685 333.854 C 178.609 333.627,178.424 333.761,178.273 334.153 M79.297 334.893 C 79.341 335.529,79.522 335.838,79.728 335.632 C 79.934 335.426,79.902 334.968,79.652 334.539 C 79.273 333.890,79.230 333.934,79.297 334.893 M54.600 335.600 C 55.040 335.789,55.670 335.944,56.000 335.944 C 56.378 335.944,56.304 335.817,55.800 335.600 C 55.360 335.411,54.730 335.256,54.400 335.256 C 54.022 335.256,54.096 335.383,54.600 335.600 M342.600 335.600 C 342.096 335.817,342.022 335.944,342.400 335.944 C 342.730 335.944,343.360 335.789,343.800 335.600 C 344.304 335.383,344.378 335.256,344.000 335.256 C 343.670 335.256,343.040 335.411,342.600 335.600 M63.276 336.299 C 66.068 336.367,70.748 336.368,73.676 336.299 C 76.604 336.231,74.320 336.175,68.600 336.174 C 62.880 336.174,60.484 336.230,63.276 336.299 M219.532 336.300 C 241.824 336.357,278.184 336.357,300.332 336.300 C 322.479 336.243,304.240 336.196,259.800 336.196 C 215.360 336.196,197.239 336.243,219.532 336.300 M98.400 342.228 C 98.400 344.180,110.049 355.684,111.031 354.702 C 111.124 354.609,110.171 353.828,108.913 352.967 C 105.880 350.890,102.058 347.077,100.194 344.271 C 98.766 342.120,98.400 341.703,98.400 342.228 M111.607 355.090 C 111.621 355.722,117.542 358.086,121.200 358.920 C 123.534 359.452,134.472 359.452,136.800 358.919 C 138.570 358.514,139.414 358.249,141.000 357.600 C 141.440 357.420,142.141 357.162,142.557 357.027 C 142.974 356.892,143.222 356.689,143.109 356.576 C 142.996 356.463,142.026 356.716,140.952 357.138 C 132.686 360.386,121.075 359.679,112.854 355.428 C 112.164 355.071,111.603 354.919,111.607 355.090 " stroke="none" fill="#5a3e24" fill-rule="evenodd"></path></g></svg>