<svg xmlns="http://www.w3.org/2000/svg" width="207" height="162" viewBox="0 0 207 162">
    <g fill="none" fill-rule="evenodd">
        <path fill="#FBE4FF" d="M186.91 133.676a95.648 95.648 0 0 0 7.46-37.119c0-53.303-43.51-96.51-97.186-96.51C43.51.046-.001 43.253-.001 96.556c0 13.154 2.66 25.69 7.462 37.119h179.45z"/>
        <path fill="#E8B3F0" d="M168.297 135.194c5.883-11.094 9.251-23.71 9.251-37.118 0-44.077-35.98-79.808-80.363-79.808S16.822 54 16.822 98.076c0 13.408 3.365 26.024 9.251 37.118h142.224z"/>
        <path stroke="#504B46" stroke-linecap="round" d="M18.222 133.676h-6.074M182.222 133.676h-6.074M24.296 133.676h145.778"/>
        <path fill="#8F199E" d="M109.144 80.528H90.92c-16.773 0-30.37 13.597-30.37 30.37v1.519h15.185v21.259h48.593v-21.26h15.185v-1.518c0-16.773-13.597-30.37-30.37-30.37"/>
        <path fill="#FFF" d="M139.178 106.626c-.079-.568-.149-1.142-.258-1.7-.1.2-.167.418-.167.658 0 .404.167.769.425 1.042M132.68 96.472a1.52 1.52 0 1 0 .002 3.038 1.52 1.52 0 0 0-.001-3.038M132.68 111.657c-.558 0-1.023.316-1.287.763h2.575c-.264-.447-.729-.763-1.287-.763M115.977 82.806a1.52 1.52 0 0 0 3.037 0c0-.24-.067-.462-.167-.663a30.917 30.917 0 0 0-2.12-.62c-.44.268-.75.73-.75 1.283M125.088 91.917a1.52 1.52 0 1 0-.001-3.039 1.52 1.52 0 0 0 .001 3.039M117.495 99.51a1.52 1.52 0 1 0 0-3.039 1.52 1.52 0 0 0 0 3.038M125.088 107.102a1.52 1.52 0 1 0-.001-3.038 1.52 1.52 0 0 0 .001 3.038M117.495 114.694a1.52 1.52 0 1 0 0-3.038 1.52 1.52 0 0 0 0 3.038M123.57 120.768c0 .556.312 1.02.759 1.285v-2.57c-.447.265-.76.73-.76 1.285M117.495 126.843a1.52 1.52 0 1 0 .001 3.038 1.52 1.52 0 0 0 0-3.038M102.31 84.324a1.52 1.52 0 1 0 0-3.038 1.52 1.52 0 0 0 0 3.038M109.903 91.917a1.52 1.52 0 1 0-.001-3.039 1.52 1.52 0 0 0 0 3.039M102.31 99.51a1.52 1.52 0 1 0 0-3.039 1.52 1.52 0 0 0 0 3.038M109.903 107.102a1.52 1.52 0 1 0-.001-3.038 1.52 1.52 0 0 0 0 3.038M102.31 111.657a1.52 1.52 0 1 0 .001 3.039 1.52 1.52 0 0 0 0-3.039M109.903 119.25a1.52 1.52 0 1 0 0 3.038 1.52 1.52 0 0 0 0-3.038M102.31 126.843a1.52 1.52 0 1 0 .001 3.038 1.52 1.52 0 0 0 0-3.038M87.125 84.324a1.52 1.52 0 1 0-.001-3.038 1.52 1.52 0 0 0 .001 3.038M94.718 91.917a1.52 1.52 0 1 0-.002-3.039 1.52 1.52 0 0 0 .002 3.039M87.125 96.472a1.52 1.52 0 1 0 .001 3.038 1.52 1.52 0 0 0-.001-3.038M94.718 104.065a1.52 1.52 0 1 0 0 3.038 1.52 1.52 0 0 0 0-3.038M87.125 111.657a1.52 1.52 0 1 0 .001 3.039 1.52 1.52 0 0 0-.001-3.039M94.718 119.25a1.52 1.52 0 1 0 0 3.038 1.52 1.52 0 0 0 0-3.038M87.125 126.843a1.52 1.52 0 1 0 .001 3.038 1.52 1.52 0 0 0-.001-3.038M79.532 88.88a1.52 1.52 0 1 0 .002 3.038 1.52 1.52 0 0 0-.002-3.038M71.94 99.51a1.52 1.52 0 1 0-.001-3.039 1.52 1.52 0 0 0 0 3.038M79.532 104.065a1.52 1.52 0 1 0 .002 3.038 1.52 1.52 0 0 0-.002-3.038M71.94 111.657c-.559 0-1.024.316-1.288.763h2.576c-.265-.447-.73-.763-1.288-.763M79.532 119.25a1.52 1.52 0 1 0 .002 3.038 1.52 1.52 0 0 0-.002-3.038M64.347 104.065a1.52 1.52 0 1 0 .001 3.038 1.52 1.52 0 0 0 0-3.038"/>
        <path fill="#FFF" fill-opacity=".2" d="M139.514 110.902c0-16.774-13.597-30.37-30.37-30.37H90.92c-16.773 0-30.37 13.596-30.37 30.37v3.037c0-16.774 13.597-21.26 30.37-21.26h18.223c16.773 0 30.37 4.486 30.37 21.26v-3.037z"/>
        <path stroke="#504B46" stroke-linecap="round" stroke-linejoin="round" d="M75.736 109.383v24.297h48.593v-24.297"/>
        <path stroke="#504B46" stroke-linecap="round" stroke-linejoin="round" d="M124.329 112.42h15.185v-1.518c0-16.774-13.597-30.37-30.37-30.37H90.92c-16.773 0-30.37 13.596-30.37 30.37v1.518h15.185"/>
        <path fill="#EDF2F4" d="M75.736 115.457v-3.037"/>
        <path stroke="#504B46" stroke-linecap="round" stroke-linejoin="round" d="M75.736 115.457v-3.037"/>
        <path fill="#FFD183" d="M100.222 115.454v16.703"/>
        <path stroke="#504A45" stroke-linecap="round" stroke-linejoin="round" d="M100.222 115.454v16.703"/>
        <path fill="#FFD4C3" d="M165.329 139.75h-10.821c-7.884 0-15.185-2.758-15.185-22.775v-4.555h-12.149v4.555c0 28.864 14.867 34.923 27.334 34.923H165.329a6.074 6.074 0 0 0 0-12.148"/>
        <path stroke="#504A45" d="M165.329 139.75h-10.821c-7.884 0-15.185-2.758-15.185-22.775v-4.555h-12.149v4.555c0 28.864 14.867 34.923 27.334 34.923H165.329a6.074 6.074 0 0 0 0-12.148z"/>
        <path fill="#FFDFD1" d="M109.144 83.248a9.106 9.106 0 0 1-4.058 7.58 9.108 9.108 0 0 1-10.107 0 9.106 9.106 0 0 1-4.058-7.58V69.903h18.223v13.345z"/>
        <path fill="#FFCAB3" d="M90.921 80.206c.231.103.447.218.69.313 5.099 2.04 11.744 2.04 16.843 0 .243-.095.459-.21.69-.313V69.9H90.92v10.305z"/>
        <path stroke="#504B46" stroke-linecap="round" stroke-linejoin="round" d="M109.144 83.248a9.106 9.106 0 0 1-4.058 7.58 9.108 9.108 0 0 1-10.107 0 9.106 9.106 0 0 1-4.058-7.58V69.903h18.223v13.345z"/>
        <path fill="#FFD4C3" d="M130.403 47.124c0-2.828-1.94-5.181-4.556-5.858V39.53c0-13.417-12.397-24.296-25.815-24.296-13.417 0-25.814 10.879-25.814 24.296v1.735c-2.615.677-4.556 3.03-4.556 5.858 0 2.852 1.971 5.227 4.622 5.88.693 12.798 12.777 22.972 25.748 22.972 12.972 0 25.056-10.174 25.748-22.972 2.652-.653 4.623-3.028 4.623-5.88"/>
        <path stroke="#504A45" d="M130.403 47.124c0-2.828-1.94-5.181-4.556-5.858V39.53c0-13.417-12.397-24.296-25.815-24.296-13.417 0-25.814 10.879-25.814 24.296v1.735c-2.615.677-4.556 3.03-4.556 5.858 0 2.852 1.971 5.227 4.622 5.88.693 12.798 12.777 22.972 25.748 22.972 12.972 0 25.056-10.174 25.748-22.972 2.652-.653 4.623-3.028 4.623-5.88z"/>
        <path stroke="#504B46" stroke-linecap="round" stroke-linejoin="round" d="M95.477 48.642c-.939-1.782-2.585-3.037-4.556-3.037-1.97 0-3.617 1.255-4.555 3.037M113.7 48.642c-.94-1.782-2.585-3.037-4.556-3.037-1.972 0-3.618 1.255-4.556 3.037"/>
        <path fill="#F9BEAA" d="M101.74 36.49c8.602 0 16.419-2.086 22.341-5.484-3.866-9.205-13.636-15.772-24.047-15.772-9.767 0-18.966 5.777-23.264 14.086 6.12 4.389 15.024 7.17 24.97 7.17"/>
        <path fill="#FFD183" d="M120.785 27.886c.092 3.049 7.386 44.88-20.563 46.566-27.325 1.653-22.526-47.074-18.223-47.074 7.593 1.519 22.957 5.236 39.294-1.518 9.299-37.963-56.89-29.787-54.667 1.518 6.262-3.037 7.593 1.519 7.593 6.074 0 14.517.759 23.917 0 28.852-5.078 32.992 17.399 34.674 26.258 52.39 9.87-18.727 33.03-26.718 25.371-53.529-1.139-3.984 2.846-33.28-5.063-33.28"/>
        <path fill="#FFC258" d="M126.196 75.67c-.103-.003-.203-.021-.307-.027.316.115.635.24.942.34.018-.1.027-.206.045-.307-.23-.006-.443.003-.68-.006M73.648 75.673l.03.219c.225-.076.46-.164.687-.249-.1.006-.2.024-.304.027-.143.006-.273 0-.413.003"/>
        <path fill="#FFC258" d="M98.208 74.16c-3.25-.094-6.007-.941-8.327-2.36-4.534 2.196-9.87 3.56-15.513 3.842-.231.085-.465.173-.69.252.353 2.98 1.024 5.603 1.94 7.948 9.21-.729 17.522-4.282 22.59-9.682M125.89 75.643c-5.952-.3-11.546-1.813-16.23-4.228-2.186 1.273-4.758 2.16-7.774 2.545 4.96 5.41 13.129 9.008 22.243 9.837 1.24-2.414 2.184-4.99 2.7-7.814-.304-.1-.626-.225-.938-.34"/>
        <path fill="#FFEDD8" d="M72.59 27.69c7.569-16.74 37.107-22.514 48.89-10.98-2.274-27.719-57.484-18.465-55.453 10.18 3.569-1.727 5.53-.992 6.563.8"/>
        <path stroke="#504A45" stroke-linecap="round" stroke-linejoin="round" d="M120.785 27.886c.092 3.049 7.386 44.88-20.563 46.566-27.325 1.653-22.526-47.074-18.223-47.074 7.593 1.519 22.957 5.236 39.294-1.518 9.299-37.963-56.89-29.787-54.667 1.518 6.262-3.037 7.593 1.519 7.593 6.074 0 14.517.759 23.917 0 28.852-5.078 32.992 17.399 34.674 26.258 52.39 9.87-18.727 33.723-27.143 24.612-54.097-1.327-3.926 6.833-32.711-4.304-32.711z"/>
        <path fill="#FFD183" d="M131.099 62.559c4.176-1.707 6.706 5.25 1.39 6.201-7.886 1.41-25.69-13.624-32.268-9.49-6.575-4.134-24.378 10.9-32.268 9.49-5.315-.95-2.782-7.908 1.394-6.201-10.885-8.796-15.286 14.283 4.807 13.414 11.113-.48 21.132-5.126 26.067-12.148 4.935 7.022 14.958 11.668 26.07 12.148 20.093.869 15.69-22.21 4.808-13.414"/>
        <path stroke="#504A45" stroke-linecap="round" stroke-linejoin="round" d="M131.099 62.559c4.176-1.707 6.706 5.25 1.39 6.201-7.886 1.41-25.69-13.624-32.268-9.49-6.575-4.134-24.378 10.9-32.268 9.49-5.315-.95-2.782-7.908 1.394-6.201-10.885-8.796-15.286 14.283 4.807 13.414 11.113-.48 21.132-5.126 26.067-12.148 4.935 7.022 14.958 11.668 26.07 12.148 20.093.869 15.69-22.21 4.808-13.414z"/>
        <path fill="#FFD4C3" d="M107.815 145.824a6.072 6.072 0 0 0-6.074-6.074H90.923c-7.887 0-15.185-2.758-15.185-22.775v-4.555H63.589v4.555c0 28.864 14.864 34.923 27.334 34.923H101.74a6.074 6.074 0 0 0 6.074-6.074"/>
        <path stroke="#504A45" d="M107.815 145.824a6.072 6.072 0 0 0-6.074-6.074H90.923c-7.887 0-15.185-2.758-15.185-22.775v-4.555H63.589v4.555c0 28.864 14.864 34.923 27.334 34.923H101.74a6.074 6.074 0 0 0 6.074-6.074z"/>
        <path fill="#E3ECF1" d="M198.926 156.454c0 2.514-24.476 4.555-54.667 4.555-30.19 0-54.666-2.04-54.666-4.555 0-2.515 24.475-4.556 54.666-4.556 30.191 0 54.667 2.041 54.667 4.556M133.055 145.824h-6.074l14.505-44.97a3.04 3.04 0 0 1 2.891-2.104h3.863"/>
        <path stroke="#504A45" stroke-linejoin="round" d="M133.055 145.824h-6.074l14.505-44.97a3.04 3.04 0 0 1 2.891-2.104h3.863"/>
        <path fill="#ADBAC7" d="M192.277 145.824h-59.222L148.24 98.75h55.053a3.034 3.034 0 0 1 2.888 3.97l-13.904 43.104z"/>
        <path stroke="#504A45" stroke-linejoin="round" d="M192.277 145.824h-59.222L148.24 98.75h55.053a3.034 3.034 0 0 1 2.888 3.97l-13.904 43.104z"/>
        <path fill="#CAD7DE" d="M188.296 98.75h-40.055l-15.185 47.074h8.166z"/>
        <path fill="#CAD7DE" d="M192.277 145.824h-62.259v7.593h56.185a6.072 6.072 0 0 0 6.074-6.074v-1.519z"/>
        <path stroke="#504A45" stroke-linejoin="round" d="M192.277 145.824h-62.259v7.593h56.185a6.072 6.072 0 0 0 6.074-6.074v-1.519z"/>
        <path fill="#E3ECF1" d="M130.018 145.824h-30.37v1.519a6.072 6.072 0 0 0 6.074 6.074h24.296v-7.593z"/>
        <path stroke="#504A45" stroke-linejoin="round" d="M130.018 145.824h-30.37v1.519a6.072 6.072 0 0 0 6.074 6.074h24.296v-7.593zM192.277 145.824h-59.222L148.24 98.75h55.053a3.034 3.034 0 0 1 2.888 3.97l-13.904 43.104z"/>
        <path stroke="#FFF" stroke-linecap="round" stroke-linejoin="round" d="M36.108 87.752a4.553 4.553 0 0 0 0 6.441l2.67 2.67a4.559 4.559 0 0 1 0 6.442l-2.67 2.67a4.553 4.553 0 0 0 0 6.44M47.627 87.752a4.553 4.553 0 0 0 0 6.441l2.67 2.67a4.559 4.559 0 0 1 0 6.442l-2.67 2.67a4.553 4.553 0 0 0 0 6.44"/>
        <path fill="#E3ECF1" d="M62.26 157.972c0 1.677-9.519 3.037-21.26 3.037-11.741 0-21.26-1.36-21.26-3.037 0-1.676 9.519-3.037 21.26-3.037 11.741 0 21.26 1.36 21.26 3.037"/>
        <path fill="#FFF" d="M27.333 150.38c-6.7 0-12.148-5.449-12.148-12.149 0-6.7 5.449-12.148 12.148-12.148v6.074a6.08 6.08 0 0 0-6.074 6.074 6.08 6.08 0 0 0 6.074 6.075v6.074z"/>
        <path stroke="#504A45" stroke-linejoin="round" d="M27.333 150.38c-6.7 0-12.148-5.449-12.148-12.149 0-6.7 5.449-12.148 12.148-12.148v6.074a6.08 6.08 0 0 0-6.074 6.074 6.08 6.08 0 0 0 6.074 6.075v6.074z"/>
        <path fill="#FFF" d="M57.514 153.417a3.038 3.038 0 0 1-3.037 3.037H30.56a3.038 3.038 0 0 1-3.037-3.037v-31.89a3.038 3.038 0 0 1 3.037-3.036h23.917a3.038 3.038 0 0 1 3.037 3.037v31.889z"/>
        <path stroke="#504A45" stroke-linejoin="round" d="M57.514 153.417a3.038 3.038 0 0 1-3.037 3.037H30.56a3.038 3.038 0 0 1-3.037-3.037v-31.89a3.038 3.038 0 0 1 3.037-3.036h23.917a3.038 3.038 0 0 1 3.037 3.037v31.889z"/>
        <path fill="#E05C4A" d="M37.157 141.676s5.157-2.35 5.157-6.126c0-3.78-4.574-4.072-5.157-.291-.583-3.781-5.157-3.49-5.157.58s5.157 5.837 5.157 5.837"/>
        <path fill="#9E1DAF" fill-rule="nonzero" d="M52.483 134.97a4.318 4.318 0 0 0-1.034-1.57 4.847 4.847 0 0 0-1.59-1.034 5.416 5.416 0 0 0-2.068-.364H44v9.976h3.791c.709 0 1.417-.115 2.068-.364a4.51 4.51 0 0 0 2.624-2.604 5.652 5.652 0 0 0 0-4.04zm-1.743 3.485a3.214 3.214 0 0 1-.632 1.11 2.59 2.59 0 0 1-.995.69 3.448 3.448 0 0 1-1.322.249h-1.934v-7.028h1.934c.44 0 .9.077 1.322.25.383.152.708.382.995.689.288.325.498.689.632 1.11.154.479.23.977.211 1.475.02.478-.057.976-.21 1.455z"/>
        <g fill-rule="nonzero">
            <path fill="#9C28AD" d="M162.32 117h13.86c.726 0 1.32.594 1.32 1.32v13.86c0 .726-.594 1.32-1.32 1.32h-13.86c-.726 0-1.32-.594-1.32-1.32v-13.86c0-.726.594-1.32 1.32-1.32z"/>
            <path fill="#A933BA" d="M176.18 117h-13.86c-.314 0-.61.116-.842.297l15.758 15.659c.165-.215.264-.495.264-.776v-13.86c0-.726-.594-1.32-1.32-1.32z"/>
            <path fill="#FFF" d="M173.358 123.814a3.721 3.721 0 0 0-.89-1.352 4.177 4.177 0 0 0-1.37-.892 4.667 4.667 0 0 0-1.782-.313h-3.267v8.596h3.267c.61 0 1.221-.099 1.782-.313a3.887 3.887 0 0 0 2.26-2.244 4.87 4.87 0 0 0 0-3.482zm-1.501 3.004a2.77 2.77 0 0 1-.544.956 2.232 2.232 0 0 1-.858.594 2.971 2.971 0 0 1-1.139.215h-1.667v-6.056h1.667c.38 0 .775.066 1.138.215.33.132.611.33.858.594.248.28.43.594.545.957.132.412.198.841.182 1.27.016.413-.05.842-.182 1.254z"/>
        </g>
    </g>
</svg>
