<?xml version="1.0" encoding="UTF-8"?>
<!DOCTYPE svg PUBLIC "-//W3C//DTD SVG 1.1//EN" "http://www.w3.org/Graphics/SVG/1.1/DTD/svg11.dtd">
<svg xmlns="http://www.w3.org/2000/svg" version="1.1" width="512px" height="512px" style="shape-rendering:geometricPrecision; text-rendering:geometricPrecision; image-rendering:optimizeQuality; fill-rule:evenodd; clip-rule:evenodd" xmlns:xlink="http://www.w3.org/1999/xlink">
<g><path style="opacity:0.021" fill="#43443f" d="M -0.5,-0.5 C 0.166667,-0.5 0.833333,-0.5 1.5,-0.5C 1.16667,0.5 0.5,1.16667 -0.5,1.5C -0.5,0.833333 -0.5,0.166667 -0.5,-0.5 Z"/></g>
<g><path style="opacity:0.022" fill="#43443f" d="M 16.5,-0.5 C 18.1667,-0.5 19.8333,-0.5 21.5,-0.5C 14.5,7.16667 7.16667,14.5 -0.5,21.5C -0.5,19.8333 -0.5,18.1667 -0.5,16.5C 5.5,11.1667 11.1667,5.5 16.5,-0.5 Z"/></g>
<g><path style="opacity:0.022" fill="#43443f" d="M 36.5,-0.5 C 38.1667,-0.5 39.8333,-0.5 41.5,-0.5C 27.8333,13.8333 13.8333,27.8333 -0.5,41.5C -0.5,39.8333 -0.5,38.1667 -0.5,36.5C 12.1667,24.5 24.5,12.1667 36.5,-0.5 Z"/></g>
<g><path style="opacity:0.022" fill="#43443f" d="M 56.5,-0.5 C 58.1667,-0.5 59.8333,-0.5 61.5,-0.5C 41.1667,20.5 20.5,41.1667 -0.5,61.5C -0.5,59.8333 -0.5,58.1667 -0.5,56.5C 18.8333,37.8333 37.8333,18.8333 56.5,-0.5 Z"/></g>
<g><path style="opacity:0.022" fill="#43443f" d="M 76.5,-0.5 C 78.1667,-0.5 79.8333,-0.5 81.5,-0.5C 54.5,27.1667 27.1667,54.5 -0.5,81.5C -0.5,79.8333 -0.5,78.1667 -0.5,76.5C 25.5,51.1667 51.1667,25.5 76.5,-0.5 Z"/></g>
<g><path style="opacity:0.022" fill="#43443f" d="M 96.5,-0.5 C 98.1667,-0.5 99.8333,-0.5 101.5,-0.5C 67.8333,33.8333 33.8333,67.8333 -0.5,101.5C -0.5,99.8333 -0.5,98.1667 -0.5,96.5C 32.1667,64.5 64.5,32.1667 96.5,-0.5 Z"/></g>
<g><path style="opacity:0.022" fill="#43443f" d="M 116.5,-0.5 C 118.167,-0.5 119.833,-0.5 121.5,-0.5C 106.5,14.8333 91.5,30.1667 76.5,45.5C 75.8333,45.5 75.5,45.8333 75.5,46.5C 74.8333,46.5 74.5,46.8333 74.5,47.5C 73.8333,47.5 73.5,47.8333 73.5,48.5C 72.8333,48.5 72.5,48.8333 72.5,49.5C 71.8333,49.5 71.5,49.8333 71.5,50.5C 70.8333,50.5 70.5,50.8333 70.5,51.5C 69.8333,51.5 69.5,51.8333 69.5,52.5C 68.8333,52.5 68.5,52.8333 68.5,53.5C 67.8333,53.5 67.5,53.8333 67.5,54.5C 44.8333,76.8333 22.1667,99.1667 -0.5,121.5C -0.5,119.833 -0.5,118.167 -0.5,116.5C 38.8333,77.8333 77.8333,38.8333 116.5,-0.5 Z"/></g>
<g><path style="opacity:0.022" fill="#43443f" d="M 136.5,-0.5 C 138.167,-0.5 139.833,-0.5 141.5,-0.5C 129.5,11.8333 117.5,24.1667 105.5,36.5C 103.833,36.5 102.167,36.5 100.5,36.5C 112.5,24.1667 124.5,11.8333 136.5,-0.5 Z"/></g>
<g><path style="opacity:0.022" fill="#43443f" d="M 156.5,-0.5 C 158.167,-0.5 159.833,-0.5 161.5,-0.5C 149.5,11.8333 137.5,24.1667 125.5,36.5C 123.833,36.5 122.167,36.5 120.5,36.5C 132.5,24.1667 144.5,11.8333 156.5,-0.5 Z"/></g>
<g><path style="opacity:0.022" fill="#43443f" d="M 176.5,-0.5 C 178.167,-0.5 179.833,-0.5 181.5,-0.5C 169.5,11.8333 157.5,24.1667 145.5,36.5C 143.833,36.5 142.167,36.5 140.5,36.5C 152.5,24.1667 164.5,11.8333 176.5,-0.5 Z"/></g>
<g><path style="opacity:0.022" fill="#43443f" d="M 196.5,-0.5 C 198.167,-0.5 199.833,-0.5 201.5,-0.5C 189.5,11.8333 177.5,24.1667 165.5,36.5C 163.833,36.5 162.167,36.5 160.5,36.5C 172.5,24.1667 184.5,11.8333 196.5,-0.5 Z"/></g>
<g><path style="opacity:0.022" fill="#43443f" d="M 216.5,-0.5 C 218.167,-0.5 219.833,-0.5 221.5,-0.5C 209.5,11.8333 197.5,24.1667 185.5,36.5C 183.833,36.5 182.167,36.5 180.5,36.5C 192.5,24.1667 204.5,11.8333 216.5,-0.5 Z"/></g>
<g><path style="opacity:0.022" fill="#43443f" d="M 236.5,-0.5 C 238.167,-0.5 239.833,-0.5 241.5,-0.5C 229.5,11.8333 217.5,24.1667 205.5,36.5C 203.833,36.5 202.167,36.5 200.5,36.5C 212.5,24.1667 224.5,11.8333 236.5,-0.5 Z"/></g>
<g><path style="opacity:0.022" fill="#43443f" d="M 256.5,-0.5 C 258.167,-0.5 259.833,-0.5 261.5,-0.5C 249.5,11.8333 237.5,24.1667 225.5,36.5C 223.833,36.5 222.167,36.5 220.5,36.5C 232.5,24.1667 244.5,11.8333 256.5,-0.5 Z"/></g>
<g><path style="opacity:0.022" fill="#43443f" d="M 276.5,-0.5 C 278.167,-0.5 279.833,-0.5 281.5,-0.5C 269.5,11.8333 257.5,24.1667 245.5,36.5C 243.833,36.5 242.167,36.5 240.5,36.5C 252.5,24.1667 264.5,11.8333 276.5,-0.5 Z"/></g>
<g><path style="opacity:0.022" fill="#43443f" d="M 296.5,-0.5 C 298.167,-0.5 299.833,-0.5 301.5,-0.5C 289.5,11.8333 277.5,24.1667 265.5,36.5C 263.833,36.5 262.167,36.5 260.5,36.5C 272.5,24.1667 284.5,11.8333 296.5,-0.5 Z"/></g>
<g><path style="opacity:0.022" fill="#43443f" d="M 316.5,-0.5 C 318.167,-0.5 319.833,-0.5 321.5,-0.5C 308.167,13.5 294.5,27.1667 280.5,40.5C 279.29,40.0679 278.29,39.4013 277.5,38.5C 290.833,25.8333 303.833,12.8333 316.5,-0.5 Z"/></g>
<g><path style="opacity:0.022" fill="#43433f" d="M 336.5,-0.5 C 338.167,-0.5 339.833,-0.5 341.5,-0.5C 324.5,17.1667 307.167,34.5 289.5,51.5C 288.596,50.791 288.263,49.791 288.5,48.5C 304.5,32.1667 320.5,15.8333 336.5,-0.5 Z"/></g>
<g><path style="opacity:0.022" fill="#43443f" d="M 356.5,-0.5 C 358.167,-0.5 359.833,-0.5 361.5,-0.5C 338.5,23.1667 315.167,46.5 291.5,69.5C 291.5,67.8333 291.5,66.1667 291.5,64.5C 313.5,43.1667 335.167,21.5 356.5,-0.5 Z"/></g>
<g><path style="opacity:0.022" fill="#43443f" d="M 376.5,-0.5 C 378.167,-0.5 379.833,-0.5 381.5,-0.5C 351.833,29.8333 321.833,59.8333 291.5,89.5C 291.5,87.8333 291.5,86.1667 291.5,84.5C 320.167,56.5 348.5,28.1667 376.5,-0.5 Z"/></g>
<g><path style="opacity:0.022" fill="#43443f" d="M 396.5,-0.5 C 398.167,-0.5 399.833,-0.5 401.5,-0.5C 365.167,36.5 328.5,73.1667 291.5,109.5C 291.5,107.833 291.5,106.167 291.5,104.5C 326.833,69.8333 361.833,34.8333 396.5,-0.5 Z"/></g>
<g><path style="opacity:0.022" fill="#43443f" d="M 416.5,-0.5 C 418.167,-0.5 419.833,-0.5 421.5,-0.5C 378.5,43.1667 335.167,86.5 291.5,129.5C 291.5,127.833 291.5,126.167 291.5,124.5C 333.5,83.1667 375.167,41.5 416.5,-0.5 Z"/></g>
<g><path style="opacity:0.022" fill="#43443f" d="M 436.5,-0.5 C 438.167,-0.5 439.833,-0.5 441.5,-0.5C 391.833,49.8333 341.833,99.8333 291.5,149.5C 291.5,147.833 291.5,146.167 291.5,144.5C 340.167,96.5 388.5,48.1667 436.5,-0.5 Z"/></g>
<g><path style="opacity:0.022" fill="#43443f" d="M 456.5,-0.5 C 458.167,-0.5 459.833,-0.5 461.5,-0.5C 405.167,56.5 348.5,113.167 291.5,169.5C 291.5,167.833 291.5,166.167 291.5,164.5C 346.833,109.833 401.833,54.8333 456.5,-0.5 Z"/></g>
<g><path style="opacity:0.022" fill="#43443f" d="M 476.5,-0.5 C 478.167,-0.5 479.833,-0.5 481.5,-0.5C 418.5,63.1667 355.167,126.5 291.5,189.5C 291.5,187.833 291.5,186.167 291.5,184.5C 353.5,123.167 415.167,61.5 476.5,-0.5 Z"/></g>
<g><path style="opacity:0.022" fill="#43443f" d="M 496.5,-0.5 C 498.167,-0.5 499.833,-0.5 501.5,-0.5C 431.833,69.8333 361.833,139.833 291.5,209.5C 291.5,207.833 291.5,206.167 291.5,204.5C 360.167,136.5 428.5,68.1667 496.5,-0.5 Z"/></g>
<g><path style="opacity:0.022" fill="#43443f" d="M 511.5,5.5 C 511.5,7.16667 511.5,8.83333 511.5,10.5C 438.167,83.5 364.833,156.5 291.5,229.5C 291.5,227.833 291.5,226.167 291.5,224.5C 364.833,151.5 438.167,78.5 511.5,5.5 Z"/></g>
<g><path style="opacity:0.022" fill="#43443f" d="M 511.5,25.5 C 511.5,27.1667 511.5,28.8333 511.5,30.5C 438.167,103.5 364.833,176.5 291.5,249.5C 291.5,247.833 291.5,246.167 291.5,244.5C 364.833,171.5 438.167,98.5 511.5,25.5 Z"/></g>
<g><path style="opacity:0.982" fill="#393b4a" d="M 100.5,36.5 C 102.167,36.5 103.833,36.5 105.5,36.5C 110.5,36.5 115.5,36.5 120.5,36.5C 122.167,36.5 123.833,36.5 125.5,36.5C 130.5,36.5 135.5,36.5 140.5,36.5C 142.167,36.5 143.833,36.5 145.5,36.5C 150.5,36.5 155.5,36.5 160.5,36.5C 162.167,36.5 163.833,36.5 165.5,36.5C 170.5,36.5 175.5,36.5 180.5,36.5C 182.167,36.5 183.833,36.5 185.5,36.5C 190.5,36.5 195.5,36.5 200.5,36.5C 202.167,36.5 203.833,36.5 205.5,36.5C 210.5,36.5 215.5,36.5 220.5,36.5C 222.167,36.5 223.833,36.5 225.5,36.5C 230.5,36.5 235.5,36.5 240.5,36.5C 242.167,36.5 243.833,36.5 245.5,36.5C 250.5,36.5 255.5,36.5 260.5,36.5C 262.167,36.5 263.833,36.5 265.5,36.5C 269.658,36.3316 273.658,36.9983 277.5,38.5C 278.29,39.4013 279.29,40.0679 280.5,40.5C 283.5,42.8333 286.167,45.5 288.5,48.5C 288.263,49.791 288.596,50.791 289.5,51.5C 290.91,55.7047 291.577,60.038 291.5,64.5C 291.5,66.1667 291.5,67.8333 291.5,69.5C 291.5,74.5 291.5,79.5 291.5,84.5C 291.5,86.1667 291.5,87.8333 291.5,89.5C 291.5,94.5 291.5,99.5 291.5,104.5C 291.5,106.167 291.5,107.833 291.5,109.5C 291.5,114.5 291.5,119.5 291.5,124.5C 291.5,126.167 291.5,127.833 291.5,129.5C 291.5,134.5 291.5,139.5 291.5,144.5C 291.5,146.167 291.5,147.833 291.5,149.5C 291.5,154.5 291.5,159.5 291.5,164.5C 291.5,166.167 291.5,167.833 291.5,169.5C 291.5,174.5 291.5,179.5 291.5,184.5C 291.5,186.167 291.5,187.833 291.5,189.5C 291.5,194.5 291.5,199.5 291.5,204.5C 291.5,206.167 291.5,207.833 291.5,209.5C 291.5,214.5 291.5,219.5 291.5,224.5C 291.5,226.167 291.5,227.833 291.5,229.5C 291.5,234.5 291.5,239.5 291.5,244.5C 291.5,246.167 291.5,247.833 291.5,249.5C 291.5,254.5 291.5,259.5 291.5,264.5C 291.5,266.167 291.5,267.833 291.5,269.5C 291.5,274.5 291.5,279.5 291.5,284.5C 291.5,286.167 291.5,287.833 291.5,289.5C 291.5,294.5 291.5,299.5 291.5,304.5C 290.833,304.5 290.5,304.833 290.5,305.5C 289.833,305.5 289.5,305.833 289.5,306.5C 288.833,306.5 288.5,306.833 288.5,307.5C 280.131,309.869 274.798,315.202 272.5,323.5C 271.539,325.265 271.205,327.265 271.5,329.5C 271.892,333.342 272.892,337.009 274.5,340.5C 275.167,341.833 276.167,342.833 277.5,343.5C 280.166,346.504 283.499,348.504 287.5,349.5C 288.5,350.167 289.5,350.833 290.5,351.5C 292.321,355.231 291.654,358.397 288.5,361C 285.274,362.199 281.941,362.699 278.5,362.5C 276.833,362.5 275.167,362.5 273.5,362.5C 268.5,362.5 263.5,362.5 258.5,362.5C 256.833,362.5 255.167,362.5 253.5,362.5C 248.5,362.5 243.5,362.5 238.5,362.5C 236.833,362.5 235.167,362.5 233.5,362.5C 228.5,362.5 223.5,362.5 218.5,362.5C 216.833,362.5 215.167,362.5 213.5,362.5C 208.5,362.5 203.5,362.5 198.5,362.5C 196.833,362.5 195.167,362.5 193.5,362.5C 188.5,362.5 183.5,362.5 178.5,362.5C 176.833,362.5 175.167,362.5 173.5,362.5C 168.5,362.5 163.5,362.5 158.5,362.5C 144.677,361.504 130.677,361.171 116.5,361.5C 118.747,373.765 119.08,386.098 117.5,398.5C 116.599,402.546 115.266,406.38 113.5,410C 109.454,412.364 106.287,411.53 104,407.5C 105.384,399.103 106.217,390.603 106.5,382C 107.052,365.981 101.552,352.481 90,341.5C 89.3333,339.5 89.3333,337.5 90,335.5C 100.769,326.632 106.102,315.299 106,301.5C 105.039,293.864 100.872,291.031 93.5,293C 81.643,299.354 71.143,307.521 62,317.5C 59.4491,321.935 57.4491,326.601 56,331.5C 55.0884,345.173 54.0884,358.84 53,372.5C 49.3797,376.487 45.713,376.487 42,372.5C 41.8929,357.106 42.8929,341.772 45,326.5C 47.3798,318.065 51.5464,310.732 57.5,304.5C 58.66,292.007 58.8267,279.34 58,266.5C 57.2828,267.044 56.7828,267.711 56.5,268.5C 48.1129,278.246 39.9462,288.246 32,298.5C 30.2678,302.363 28.9344,306.363 28,310.5C 25.1208,333.792 24.7874,357.126 27,380.5C 30.8037,396.406 35.3037,412.073 40.5,427.5C 40.5,439.167 40.5,450.833 40.5,462.5C 74.1667,462.5 107.833,462.5 141.5,462.5C 141.5,446.833 141.5,431.167 141.5,415.5C 149.577,405.666 154.077,394.332 155,381.5C 156.678,379.334 158.845,378.001 161.5,377.5C 162.167,377.5 162.833,377.5 163.5,377.5C 167.523,380.584 168.523,384.584 166.5,389.5C 166.167,391.5 165.833,393.5 165.5,395.5C 162.284,404.925 158.284,413.925 153.5,422.5C 153.5,424.167 153.5,425.833 153.5,427.5C 153.5,432.5 153.5,437.5 153.5,442.5C 153.5,444.167 153.5,445.833 153.5,447.5C 153.5,452.5 153.5,457.5 153.5,462.5C 153.5,464.167 153.5,465.833 153.5,467.5C 153.833,472.5 151.5,474.833 146.5,474.5C 144.833,474.5 143.167,474.5 141.5,474.5C 136.5,474.5 131.5,474.5 126.5,474.5C 124.833,474.5 123.167,474.5 121.5,474.5C 116.5,474.5 111.5,474.5 106.5,474.5C 104.833,474.5 103.167,474.5 101.5,474.5C 96.5,474.5 91.5,474.5 86.5,474.5C 84.8333,474.5 83.1667,474.5 81.5,474.5C 76.5,474.5 71.5,474.5 66.5,474.5C 64.8333,474.5 63.1667,474.5 61.5,474.5C 56.5,474.5 51.5,474.5 46.5,474.5C 44.8333,474.5 43.1667,474.5 41.5,474.5C 37.1869,475.01 33.1869,474.343 29.5,472.5C 28.7659,471.292 28.4326,469.959 28.5,468.5C 28.5,463.5 28.5,458.5 28.5,453.5C 28.5,451.833 28.5,450.167 28.5,448.5C 28.5,443.5 28.5,438.5 28.5,433.5C 28.7845,431.585 28.4511,429.919 27.5,428.5C 27.1056,424.653 26.1056,420.986 24.5,417.5C 24.3404,415.847 23.6737,414.514 22.5,413.5C 21.7033,409.777 20.7033,406.11 19.5,402.5C 18.7659,401.292 18.4326,399.959 18.5,398.5C 17.1916,394.6 16.1916,390.6 15.5,386.5C 15.1667,385.167 14.8333,383.833 14.5,382.5C 13.8734,377.859 13.5401,373.193 13.5,368.5C 13.5,366.833 13.5,365.167 13.5,363.5C 13.5,358.5 13.5,353.5 13.5,348.5C 13.5,346.833 13.5,345.167 13.5,343.5C 13.5,338.5 13.5,333.5 13.5,328.5C 14.4614,326.735 14.7947,324.735 14.5,322.5C 14.8759,316.783 15.5426,311.116 16.5,305.5C 17.1667,303.167 17.8333,300.833 18.5,298.5C 20.2094,293.415 22.7094,288.748 26,284.5C 36.3333,272.5 46.6667,260.5 57,248.5C 57.49,247.207 57.6567,245.873 57.5,244.5C 57.5,242.833 57.5,241.167 57.5,239.5C 57.5,234.5 57.5,229.5 57.5,224.5C 57.5,222.833 57.5,221.167 57.5,219.5C 57.5,214.5 57.5,209.5 57.5,204.5C 57.5,202.833 57.5,201.167 57.5,199.5C 57.5,194.5 57.5,189.5 57.5,184.5C 57.5,182.833 57.5,181.167 57.5,179.5C 57.5,174.5 57.5,169.5 57.5,164.5C 57.5,162.833 57.5,161.167 57.5,159.5C 57.5,154.5 57.5,149.5 57.5,144.5C 57.5,142.833 57.5,141.167 57.5,139.5C 57.5,134.5 57.5,129.5 57.5,124.5C 57.5,122.833 57.5,121.167 57.5,119.5C 57.5,114.5 57.5,109.5 57.5,104.5C 57.5,102.833 57.5,101.167 57.5,99.5C 57.5,94.5 57.5,89.5 57.5,84.5C 57.8333,82.5 58.1667,80.5 58.5,78.5C 59.8486,69.8166 62.8486,61.8166 67.5,54.5C 68.1667,54.5 68.5,54.1667 68.5,53.5C 69.1667,53.5 69.5,53.1667 69.5,52.5C 70.1667,52.5 70.5,52.1667 70.5,51.5C 71.1667,51.5 71.5,51.1667 71.5,50.5C 72.1667,50.5 72.5,50.1667 72.5,49.5C 73.1667,49.5 73.5,49.1667 73.5,48.5C 74.1667,48.5 74.5,48.1667 74.5,47.5C 75.1667,47.5 75.5,47.1667 75.5,46.5C 76.1667,46.5 76.5,46.1667 76.5,45.5C 83.8689,40.931 91.8689,37.931 100.5,36.5 Z"/></g>
<g><path style="opacity:0.022" fill="#43443f" d="M 511.5,45.5 C 511.5,47.1667 511.5,48.8333 511.5,50.5C 438.167,123.5 364.833,196.5 291.5,269.5C 291.5,267.833 291.5,266.167 291.5,264.5C 364.833,191.5 438.167,118.5 511.5,45.5 Z"/></g>
<g><path style="opacity:1" fill="#4d72a6" d="M 103.5,263.5 C 103.5,269.167 103.5,274.833 103.5,280.5C 99.1539,280.334 94.8206,280.501 90.5,281C 83.7317,284.772 77.2317,288.939 71,293.5C 70.3333,221.833 70.3333,150.167 71,78.5C 74.2549,63.7483 83.0883,54.4149 97.5,50.5C 97.3333,120.501 97.5,190.501 98,260.5C 99.2635,262.607 101.097,263.607 103.5,263.5 Z"/></g>
<g><path style="opacity:0.022" fill="#43443f" d="M 511.5,65.5 C 511.5,67.1667 511.5,68.8333 511.5,70.5C 438.167,143.5 364.833,216.5 291.5,289.5C 291.5,287.833 291.5,286.167 291.5,284.5C 364.833,211.5 438.167,138.5 511.5,65.5 Z"/></g>
<g><path style="opacity:0.022" fill="#43443f" d="M 58.5,78.5 C 58.1667,80.5 57.8333,82.5 57.5,84.5C 38.1667,103.5 18.8333,122.5 -0.5,141.5C -0.5,139.833 -0.5,138.167 -0.5,136.5C 19.1667,117.167 38.8333,97.8333 58.5,78.5 Z"/></g>
<g><path style="opacity:1" fill="#87afe8" d="M 135.5,301.5 C 129.833,301.5 124.167,301.5 118.5,301.5C 118.813,305.042 118.479,308.375 117.5,311.5C 118.57,302.969 117.07,294.969 113,287.5C 110.21,284.535 107.043,282.202 103.5,280.5C 103.5,274.833 103.5,269.167 103.5,263.5C 106.292,263.548 108.125,262.215 109,259.5C 109.5,189.167 109.667,118.834 109.5,48.5C 162.834,48.3333 216.168,48.5 269.5,49C 273.275,50.4421 276.108,52.9421 278,56.5C 278.5,136.166 278.667,215.833 278.5,295.5C 231.832,295.333 185.165,295.5 138.5,296C 136.393,297.264 135.393,299.097 135.5,301.5 Z"/></g>
<g><path style="opacity:0.022" fill="#43443f" d="M 511.5,85.5 C 511.5,87.1667 511.5,88.8333 511.5,90.5C 491.5,110.167 471.5,129.833 451.5,149.5C 450.167,149.5 448.833,149.5 447.5,149.5C 468.5,127.833 489.833,106.5 511.5,85.5 Z"/></g>
<g><path style="opacity:0.022" fill="#43443f" d="M 57.5,99.5 C 57.5,101.167 57.5,102.833 57.5,104.5C 38.1667,123.5 18.8333,142.5 -0.5,161.5C -0.5,159.833 -0.5,158.167 -0.5,156.5C 18.8333,137.5 38.1667,118.5 57.5,99.5 Z"/></g>
<g><path style="opacity:0.022" fill="#43433f" d="M 511.5,105.5 C 511.5,107.167 511.5,108.833 511.5,110.5C 494.167,127.167 477.167,144.167 460.5,161.5C 459.094,161.027 458.427,160.027 458.5,158.5C 475.833,140.5 493.5,122.833 511.5,105.5 Z"/></g>
<g><path style="opacity:0.022" fill="#43443f" d="M 57.5,119.5 C 57.5,121.167 57.5,122.833 57.5,124.5C 38.1667,143.5 18.8333,162.5 -0.5,181.5C -0.5,179.833 -0.5,178.167 -0.5,176.5C 18.8333,157.5 38.1667,138.5 57.5,119.5 Z"/></g>
<g><path style="opacity:0.022" fill="#43433f" d="M 511.5,125.5 C 511.5,127.167 511.5,128.833 511.5,130.5C 496.833,144.5 482.5,158.833 468.5,173.5C 467.599,172.71 466.932,171.71 466.5,170.5C 481.167,155.167 496.167,140.167 511.5,125.5 Z"/></g>
<g><path style="opacity:0.022" fill="#43443f" d="M 57.5,139.5 C 57.5,141.167 57.5,142.833 57.5,144.5C 38.1667,163.5 18.8333,182.5 -0.5,201.5C -0.5,199.833 -0.5,198.167 -0.5,196.5C 18.8333,177.5 38.1667,158.5 57.5,139.5 Z"/></g>
<g><path style="opacity:0.022" fill="#43443f" d="M 511.5,145.5 C 511.5,147.167 511.5,148.833 511.5,150.5C 499.833,161.833 488.167,173.167 476.5,184.5C 475.094,184.027 474.427,183.027 474.5,181.5C 486.833,169.5 499.167,157.5 511.5,145.5 Z"/></g>
<g><path style="opacity:0.961" fill="#383b49" d="M 447.5,149.5 C 448.833,149.5 450.167,149.5 451.5,149.5C 453.603,152.72 455.936,155.72 458.5,158.5C 458.427,160.027 459.094,161.027 460.5,161.5C 462.265,164.709 464.265,167.709 466.5,170.5C 466.932,171.71 467.599,172.71 468.5,173.5C 470.147,176.473 472.147,179.14 474.5,181.5C 474.427,183.027 475.094,184.027 476.5,184.5C 478.255,187.68 480.255,190.68 482.5,193.5C 482.427,195.027 483.094,196.027 484.5,196.5C 486.5,199.5 488.5,202.5 490.5,205.5C 490.932,206.71 491.599,207.71 492.5,208.5C 495.052,211.387 496.718,214.72 497.5,218.5C 497.545,223.122 495.212,225.455 490.5,225.5C 485.489,225.334 480.489,225.501 475.5,226C 474.529,231.072 474.195,236.238 474.5,241.5C 474.5,243.167 474.5,244.833 474.5,246.5C 474.5,251.5 474.5,256.5 474.5,261.5C 474.5,263.167 474.5,264.833 474.5,266.5C 474.5,271.5 474.5,276.5 474.5,281.5C 474.5,283.167 474.5,284.833 474.5,286.5C 474.5,291.5 474.5,296.5 474.5,301.5C 474.5,303.167 474.5,304.833 474.5,306.5C 474.5,311.5 474.5,316.5 474.5,321.5C 474.5,323.167 474.5,324.833 474.5,326.5C 474.5,331.5 474.5,336.5 474.5,341.5C 474.5,343.167 474.5,344.833 474.5,346.5C 474.515,352.485 471.515,355.485 465.5,355.5C 463.833,355.5 462.167,355.5 460.5,355.5C 455.5,355.5 450.5,355.5 445.5,355.5C 443.833,355.5 442.167,355.5 440.5,355.5C 435.737,355.774 431.07,355.441 426.5,354.5C 425.391,354.443 424.391,354.11 423.5,353.5C 421.642,349.473 420.975,345.14 421.5,340.5C 421.5,338.833 421.5,337.167 421.5,335.5C 421.5,330.5 421.5,325.5 421.5,320.5C 421.5,318.833 421.5,317.167 421.5,315.5C 421.5,310.5 421.5,305.5 421.5,300.5C 421.5,298.833 421.5,297.167 421.5,295.5C 421.5,290.5 421.5,285.5 421.5,280.5C 421.5,278.833 421.5,277.167 421.5,275.5C 421.5,270.5 421.5,265.5 421.5,260.5C 421.5,258.833 421.5,257.167 421.5,255.5C 421.5,250.5 421.5,245.5 421.5,240.5C 421.5,238.833 421.5,237.167 421.5,235.5C 421.5,232.167 421.5,228.833 421.5,225.5C 419.5,225.5 417.5,225.5 415.5,225.5C 413.833,225.5 412.167,225.5 410.5,225.5C 406.009,226.115 402.009,225.115 398.5,222.5C 398.443,221.391 398.11,220.391 397.5,219.5C 397.491,217.692 397.991,216.025 399,214.5C 407.349,203.121 415.183,191.454 422.5,179.5C 423.167,179.5 423.5,179.167 423.5,178.5C 424.167,178.5 424.5,178.167 424.5,177.5C 427.996,173.181 430.996,168.515 433.5,163.5C 437.039,158.939 440.705,154.439 444.5,150C 445.448,149.517 446.448,149.351 447.5,149.5 Z"/></g>
<g><path style="opacity:0.022" fill="#43443f" d="M 57.5,159.5 C 57.5,161.167 57.5,162.833 57.5,164.5C 38.1667,183.5 18.8333,202.5 -0.5,221.5C -0.5,219.833 -0.5,218.167 -0.5,216.5C 18.8333,197.5 38.1667,178.5 57.5,159.5 Z"/></g>
<g><path style="opacity:0.022" fill="#43433f" d="M 433.5,163.5 C 430.996,168.515 427.996,173.181 424.5,177.5C 423.833,177.5 423.5,177.833 423.5,178.5C 422.833,178.5 422.5,178.833 422.5,179.5C 372.167,229.5 321.833,279.5 271.5,329.5C 271.205,327.265 271.539,325.265 272.5,323.5C 278.167,318.5 283.5,313.167 288.5,307.5C 289.167,307.5 289.5,307.167 289.5,306.5C 290.167,306.5 290.5,306.167 290.5,305.5C 291.167,305.5 291.5,305.167 291.5,304.5C 338.833,257.5 386.167,210.5 433.5,163.5 Z"/></g>
<g><path style="opacity:0.022" fill="#43433f" d="M 511.5,165.5 C 511.5,167.167 511.5,168.833 511.5,170.5C 502.5,179.167 493.5,187.833 484.5,196.5C 483.094,196.027 482.427,195.027 482.5,193.5C 492.167,184.167 501.833,174.833 511.5,165.5 Z"/></g>
<g><path style="opacity:0.022" fill="#43443f" d="M 57.5,179.5 C 57.5,181.167 57.5,182.833 57.5,184.5C 38.1667,203.5 18.8333,222.5 -0.5,241.5C -0.5,239.833 -0.5,238.167 -0.5,236.5C 18.8333,217.5 38.1667,198.5 57.5,179.5 Z"/></g>
<g><path style="opacity:0.022" fill="#43433f" d="M 511.5,185.5 C 511.5,187.167 511.5,188.833 511.5,190.5C 505.167,196.5 498.833,202.5 492.5,208.5C 491.599,207.71 490.932,206.71 490.5,205.5C 497.5,198.833 504.5,192.167 511.5,185.5 Z"/></g>
<g><path style="opacity:0.022" fill="#43443f" d="M 57.5,199.5 C 57.5,201.167 57.5,202.833 57.5,204.5C 38.1667,223.5 18.8333,242.5 -0.5,261.5C -0.5,259.833 -0.5,258.167 -0.5,256.5C 18.8333,237.5 38.1667,218.5 57.5,199.5 Z"/></g>
<g><path style="opacity:0.022" fill="#43443f" d="M 511.5,205.5 C 511.5,207.167 511.5,208.833 511.5,210.5C 499.167,222.5 486.833,234.5 474.5,246.5C 474.5,244.833 474.5,243.167 474.5,241.5C 480.167,236.5 485.5,231.167 490.5,225.5C 495.212,225.455 497.545,223.122 497.5,218.5C 502.167,214.167 506.833,209.833 511.5,205.5 Z"/></g>
<g><path style="opacity:1" fill="#4b6456" d="M 416.5,211.5 C 420.833,212.167 425.167,212.833 429.5,213.5C 424.786,213.827 420.12,213.493 415.5,212.5C 415.624,211.893 415.957,211.56 416.5,211.5 Z"/></g>
<g><path style="opacity:0.022" fill="#43443f" d="M 57.5,219.5 C 57.5,221.167 57.5,222.833 57.5,224.5C 38.1667,243.5 18.8333,262.5 -0.5,281.5C -0.5,279.833 -0.5,278.167 -0.5,276.5C 18.8333,257.5 38.1667,238.5 57.5,219.5 Z"/></g>
<g><path style="opacity:0.022" fill="#43443f" d="M 397.5,219.5 C 398.11,220.391 398.443,221.391 398.5,222.5C 383.5,237.833 368.5,253.167 353.5,268.5C 351.833,268.5 350.167,268.5 348.5,268.5C 364.5,251.833 380.833,235.5 397.5,219.5 Z"/></g>
<g><path style="opacity:0.022" fill="#43443f" d="M 410.5,225.5 C 412.167,225.5 413.833,225.5 415.5,225.5C 401.5,239.833 387.5,254.167 373.5,268.5C 371.833,268.5 370.167,268.5 368.5,268.5C 382.5,254.167 396.5,239.833 410.5,225.5 Z"/></g>
<g><path style="opacity:0.022" fill="#43443f" d="M 511.5,225.5 C 511.5,227.167 511.5,228.833 511.5,230.5C 499.167,242.5 486.833,254.5 474.5,266.5C 474.5,264.833 474.5,263.167 474.5,261.5C 486.833,249.5 499.167,237.5 511.5,225.5 Z"/></g>
<g><path style="opacity:0.022" fill="#43443f" d="M 421.5,235.5 C 421.5,237.167 421.5,238.833 421.5,240.5C 411.833,249.5 402.5,258.833 393.5,268.5C 391.833,268.5 390.167,268.5 388.5,268.5C 399.167,257.167 410.167,246.167 421.5,235.5 Z"/></g>
<g><path style="opacity:0.022" fill="#43443f" d="M 57.5,239.5 C 57.5,241.167 57.5,242.833 57.5,244.5C 38.1667,263.5 18.8333,282.5 -0.5,301.5C -0.5,299.833 -0.5,298.167 -0.5,296.5C 18.8333,277.5 38.1667,258.5 57.5,239.5 Z"/></g>
<g><path style="opacity:0.022" fill="#43443f" d="M 511.5,245.5 C 511.5,247.167 511.5,248.833 511.5,250.5C 499.167,262.5 486.833,274.5 474.5,286.5C 474.5,284.833 474.5,283.167 474.5,281.5C 486.833,269.5 499.167,257.5 511.5,245.5 Z"/></g>
<g><path style="opacity:0.022" fill="#43443f" d="M 421.5,255.5 C 421.5,257.167 421.5,258.833 421.5,260.5C 413.167,268.5 404.833,276.5 396.5,284.5C 396.5,282.833 396.5,281.167 396.5,279.5C 404.833,271.5 413.167,263.5 421.5,255.5 Z"/></g>
<g><path style="opacity:0.022" fill="#43443f" d="M 511.5,265.5 C 511.5,267.167 511.5,268.833 511.5,270.5C 499.167,282.5 486.833,294.5 474.5,306.5C 474.5,304.833 474.5,303.167 474.5,301.5C 486.833,289.5 499.167,277.5 511.5,265.5 Z"/></g>
<g><path style="opacity:0.978" fill="#383a48" d="M 348.5,268.5 C 350.167,268.5 351.833,268.5 353.5,268.5C 358.5,268.5 363.5,268.5 368.5,268.5C 370.167,268.5 371.833,268.5 373.5,268.5C 378.5,268.5 383.5,268.5 388.5,268.5C 390.167,268.5 391.833,268.5 393.5,268.5C 396.193,271.581 397.193,275.247 396.5,279.5C 396.5,281.167 396.5,282.833 396.5,284.5C 396.5,289.5 396.5,294.5 396.5,299.5C 396.5,301.167 396.5,302.833 396.5,304.5C 396.5,309.5 396.5,314.5 396.5,319.5C 396.5,321.167 396.5,322.833 396.5,324.5C 396.5,329.5 396.5,334.5 396.5,339.5C 396.5,341.167 396.5,342.833 396.5,344.5C 396.5,349.5 396.5,354.5 396.5,359.5C 396.5,361.167 396.5,362.833 396.5,364.5C 396.5,369.5 396.5,374.5 396.5,379.5C 396.5,381.167 396.5,382.833 396.5,384.5C 395.897,389.619 396.564,394.285 398.5,398.5C 400.167,398.5 401.833,398.5 403.5,398.5C 408.167,398.5 412.833,398.5 417.5,398.5C 418.167,399.833 419.167,400.833 420.5,401.5C 420.752,404.32 420.252,406.986 419,409.5C 413.525,416.462 408.692,423.796 404.5,431.5C 403.833,431.5 403.5,431.833 403.5,432.5C 402.833,432.5 402.5,432.833 402.5,433.5C 398.425,437.976 395.092,442.976 392.5,448.5C 387.097,455.629 381.93,462.962 377,470.5C 374.51,474.01 371.344,475.01 367.5,473.5C 366.5,472.833 365.5,472.167 364.5,471.5C 362.735,468.291 360.735,465.291 358.5,462.5C 358.068,461.29 357.401,460.29 356.5,459.5C 354.833,456.833 353.167,454.167 351.5,451.5C 350.833,450.167 349.833,449.167 348.5,448.5C 347.241,444.975 345.241,441.975 342.5,439.5C 342.573,437.973 341.906,436.973 340.5,436.5C 338.748,433.328 336.748,430.328 334.5,427.5C 333.833,426.5 333.167,425.5 332.5,424.5C 330.5,421.5 328.5,418.5 326.5,415.5C 325.833,414.167 324.833,413.167 323.5,412.5C 322.928,410.745 322.094,409.078 321,407.5C 320.505,405.527 320.338,403.527 320.5,401.5C 321.167,401.5 321.5,401.167 321.5,400.5C 322.167,400.5 322.5,400.167 322.5,399.5C 323.167,399.5 323.5,399.167 323.5,398.5C 328.511,398.666 333.511,398.499 338.5,398C 340.333,396.167 342.167,394.333 344,392.5C 344.499,387.511 344.666,382.511 344.5,377.5C 344.5,375.833 344.5,374.167 344.5,372.5C 344.5,367.5 344.5,362.5 344.5,357.5C 344.5,355.833 344.5,354.167 344.5,352.5C 344.5,347.5 344.5,342.5 344.5,337.5C 344.5,335.833 344.5,334.167 344.5,332.5C 344.5,327.5 344.5,322.5 344.5,317.5C 344.5,315.833 344.5,314.167 344.5,312.5C 344.5,307.5 344.5,302.5 344.5,297.5C 344.5,295.833 344.5,294.167 344.5,292.5C 344.5,287.5 344.5,282.5 344.5,277.5C 344.5,275.833 344.5,274.167 344.5,272.5C 345.5,270.833 346.833,269.5 348.5,268.5 Z"/></g>
<g><path style="opacity:0.022" fill="#43433f" d="M 344.5,272.5 C 344.5,274.167 344.5,275.833 344.5,277.5C 322.167,299.5 299.833,321.5 277.5,343.5C 276.167,342.833 275.167,341.833 274.5,340.5C 275.239,340.631 275.906,340.464 276.5,340C 299.035,317.298 321.701,294.798 344.5,272.5 Z"/></g>
<g><path style="opacity:0.022" fill="#43443f" d="M 421.5,275.5 C 421.5,277.167 421.5,278.833 421.5,280.5C 413.167,288.5 404.833,296.5 396.5,304.5C 396.5,302.833 396.5,301.167 396.5,299.5C 404.833,291.5 413.167,283.5 421.5,275.5 Z"/></g>
<g><path style="opacity:1" fill="#82d97c" d="M 429.5,213.5 C 425.167,212.833 420.833,212.167 416.5,211.5C 426.99,196.529 437.49,181.529 448,166.5C 458.5,181.667 469,196.833 479.5,212C 474.833,212.333 470.167,212.667 465.5,213C 464.333,214.167 463.167,215.333 462,216.5C 461.5,258.499 461.333,300.499 461.5,342.5C 452.5,342.5 443.5,342.5 434.5,342.5C 434.667,300.499 434.5,258.499 434,216.5C 432.871,214.859 431.371,213.859 429.5,213.5 Z"/></g>
<g><path style="opacity:1" fill="#9b8883" d="M 57.5,304.5 C 57.8284,292.322 57.4951,280.322 56.5,268.5C 56.7828,267.711 57.2828,267.044 58,266.5C 58.8267,279.34 58.66,292.007 57.5,304.5 Z"/></g>
<g><path style="opacity:0.022" fill="#43443f" d="M 511.5,285.5 C 511.5,287.167 511.5,288.833 511.5,290.5C 499.167,302.5 486.833,314.5 474.5,326.5C 474.5,324.833 474.5,323.167 474.5,321.5C 486.833,309.5 499.167,297.5 511.5,285.5 Z"/></g>
<g><path style="opacity:0.022" fill="#43443f" d="M 344.5,292.5 C 344.5,294.167 344.5,295.833 344.5,297.5C 326.167,315.167 308.167,333.167 290.5,351.5C 289.5,350.833 288.5,350.167 287.5,349.5C 306.167,330.167 325.167,311.167 344.5,292.5 Z"/></g>
<g><path style="opacity:0.022" fill="#43443f" d="M 421.5,295.5 C 421.5,297.167 421.5,298.833 421.5,300.5C 413.167,308.5 404.833,316.5 396.5,324.5C 396.5,322.833 396.5,321.167 396.5,319.5C 404.833,311.5 413.167,303.5 421.5,295.5 Z"/></g>
<g><path style="opacity:0.022" fill="#43433f" d="M 18.5,298.5 C 17.8333,300.833 17.1667,303.167 16.5,305.5C 10.8333,310.833 5.16667,316.167 -0.5,321.5C -0.5,319.833 -0.5,318.167 -0.5,316.5C 5.83333,310.5 12.1667,304.5 18.5,298.5 Z"/></g>
<g><path style="opacity:0.022" fill="#43443f" d="M 511.5,305.5 C 511.5,307.167 511.5,308.833 511.5,310.5C 499.167,322.5 486.833,334.5 474.5,346.5C 474.5,344.833 474.5,343.167 474.5,341.5C 486.833,329.5 499.167,317.5 511.5,305.5 Z"/></g>
<g><path style="opacity:1" fill="#b9c1cc" d="M 139.5,307.5 C 181.505,307.167 223.505,307.5 265.5,308.5C 265.376,309.107 265.043,309.44 264.5,309.5C 222.833,308.833 181.167,308.167 139.5,307.5 Z"/></g>
<g><path style="opacity:0.022" fill="#43443f" d="M 344.5,312.5 C 344.5,314.167 344.5,315.833 344.5,317.5C 279.5,381.833 214.833,446.5 150.5,511.5C 148.833,511.5 147.167,511.5 145.5,511.5C 211.5,444.833 277.833,378.5 344.5,312.5 Z"/></g>
<g><path style="opacity:0.022" fill="#43443f" d="M 421.5,315.5 C 421.5,317.167 421.5,318.833 421.5,320.5C 413.167,328.5 404.833,336.5 396.5,344.5C 396.5,342.833 396.5,341.167 396.5,339.5C 404.833,331.5 413.167,323.5 421.5,315.5 Z"/></g>
<g><path style="opacity:0.022" fill="#43433f" d="M 14.5,322.5 C 14.7947,324.735 14.4614,326.735 13.5,328.5C 8.83333,332.833 4.16667,337.167 -0.5,341.5C -0.5,339.833 -0.5,338.167 -0.5,336.5C 4.5,331.833 9.5,327.167 14.5,322.5 Z"/></g>
<g><path style="opacity:1" fill="#c8d3fd" d="M 259.5,322.5 C 259.5,326.5 259.5,330.5 259.5,334.5C 214.499,334.667 169.499,334.5 124.5,334C 120.381,329.927 120.715,326.26 125.5,323C 170.165,322.5 214.832,322.333 259.5,322.5 Z"/></g>
<g><path style="opacity:0.022" fill="#43433f" d="M 511.5,325.5 C 511.5,327.167 511.5,328.833 511.5,330.5C 471.833,369.833 432.167,409.167 392.5,448.5C 395.092,442.976 398.425,437.976 402.5,433.5C 403.167,433.5 403.5,433.167 403.5,432.5C 404.167,432.5 404.5,432.167 404.5,431.5C 440.167,396.167 475.833,360.833 511.5,325.5 Z"/></g>
<g><path style="opacity:0.022" fill="#43443f" d="M 344.5,332.5 C 344.5,334.167 344.5,335.833 344.5,337.5C 286.167,395.167 228.167,453.167 170.5,511.5C 168.833,511.5 167.167,511.5 165.5,511.5C 224.833,451.5 284.5,391.833 344.5,332.5 Z"/></g>
<g><path style="opacity:1" fill="#e7f2fd" d="M 135.5,301.5 C 135.347,304.535 136.68,306.535 139.5,307.5C 181.167,308.167 222.833,308.833 264.5,309.5C 261.997,313.507 260.33,317.84 259.5,322.5C 214.832,322.333 170.165,322.5 125.5,323C 120.715,326.26 120.381,329.927 124.5,334C 169.499,334.5 214.499,334.667 259.5,334.5C 260.616,339.678 262.616,344.511 265.5,349C 214.167,349.667 162.833,349.667 111.5,349C 109.151,345.323 106.818,341.656 104.5,338C 111.36,330.446 115.693,321.613 117.5,311.5C 118.479,308.375 118.813,305.042 118.5,301.5C 124.167,301.5 129.833,301.5 135.5,301.5 Z"/></g>
<g><path style="opacity:0.022" fill="#43443f" d="M 421.5,335.5 C 421.5,337.167 421.5,338.833 421.5,340.5C 413.167,348.5 404.833,356.5 396.5,364.5C 396.5,362.833 396.5,361.167 396.5,359.5C 404.833,351.5 413.167,343.5 421.5,335.5 Z"/></g>
<g><path style="opacity:1" fill="#f27575" d="M 384.5,405.5 C 384.859,407.371 385.859,408.871 387.5,410C 392.5,410.333 397.5,410.667 402.5,411C 391.995,426.328 381.329,441.495 370.5,456.5C 359.639,441.472 348.972,426.305 338.5,411C 343.5,410.667 348.5,410.333 353.5,410C 355.141,408.871 356.141,407.371 356.5,405.5C 357.499,364.337 357.832,323.003 357.5,281.5C 366.167,281.5 374.833,281.5 383.5,281.5C 383.168,323.003 383.501,364.337 384.5,405.5 Z"/></g>
<g><path style="opacity:0.022" fill="#43443f" d="M 13.5,343.5 C 13.5,345.167 13.5,346.833 13.5,348.5C 8.83333,352.833 4.16667,357.167 -0.5,361.5C -0.5,359.833 -0.5,358.167 -0.5,356.5C 4.16667,352.167 8.83333,347.833 13.5,343.5 Z"/></g>
<g><path style="opacity:0.022" fill="#43443f" d="M 511.5,345.5 C 511.5,347.167 511.5,348.833 511.5,350.5C 457.5,403.833 403.833,457.5 350.5,511.5C 348.833,511.5 347.167,511.5 345.5,511.5C 400.5,455.833 455.833,400.5 511.5,345.5 Z"/></g>
<g><path style="opacity:0.022" fill="#43443f" d="M 344.5,352.5 C 344.5,354.167 344.5,355.833 344.5,357.5C 292.833,408.5 241.5,459.833 190.5,511.5C 188.833,511.5 187.167,511.5 185.5,511.5C 238.167,458.167 291.167,405.167 344.5,352.5 Z"/></g>
<g><path style="opacity:0.022" fill="#43443f" d="M 423.5,353.5 C 424.391,354.11 425.391,354.443 426.5,354.5C 416.833,364.833 406.833,374.833 396.5,384.5C 396.5,382.833 396.5,381.167 396.5,379.5C 405.5,370.833 414.5,362.167 423.5,353.5 Z"/></g>
<g><path style="opacity:0.022" fill="#43443f" d="M 440.5,355.5 C 442.167,355.5 443.833,355.5 445.5,355.5C 431.5,369.833 417.5,384.167 403.5,398.5C 401.833,398.5 400.167,398.5 398.5,398.5C 412.5,384.167 426.5,369.833 440.5,355.5 Z"/></g>
<g><path style="opacity:0.022" fill="#43433f" d="M 460.5,355.5 C 462.167,355.5 463.833,355.5 465.5,355.5C 450.5,370.833 435.5,386.167 420.5,401.5C 419.167,400.833 418.167,399.833 417.5,398.5C 432.167,384.5 446.5,370.167 460.5,355.5 Z"/></g>
<g><path style="opacity:1" fill="#e28d6b" d="M 158.5,362.5 C 159.917,365.998 160.583,369.665 160.5,373.5C 150.167,373.5 139.833,373.5 129.5,373.5C 128.585,382.417 125.418,390.417 120,397.5C 119.329,398.252 118.496,398.586 117.5,398.5C 119.08,386.098 118.747,373.765 116.5,361.5C 130.677,361.171 144.677,361.504 158.5,362.5 Z"/></g>
<g><path style="opacity:0.022" fill="#43443f" d="M 173.5,362.5 C 175.167,362.5 176.833,362.5 178.5,362.5C 173.833,367.833 168.833,372.833 163.5,377.5C 162.833,377.5 162.167,377.5 161.5,377.5C 161.5,376.5 161.5,375.5 161.5,374.5C 165.833,370.833 169.833,366.833 173.5,362.5 Z"/></g>
<g><path style="opacity:0.022" fill="#43433f" d="M 193.5,362.5 C 195.167,362.5 196.833,362.5 198.5,362.5C 187.833,373.833 176.833,384.833 165.5,395.5C 165.833,393.5 166.167,391.5 166.5,389.5C 175.833,380.833 184.833,371.833 193.5,362.5 Z"/></g>
<g><path style="opacity:0.022" fill="#43443f" d="M 213.5,362.5 C 215.167,362.5 216.833,362.5 218.5,362.5C 197.167,384.5 175.5,406.167 153.5,427.5C 153.5,425.833 153.5,424.167 153.5,422.5C 173.833,402.833 193.833,382.833 213.5,362.5 Z"/></g>
<g><path style="opacity:0.022" fill="#43443f" d="M 233.5,362.5 C 235.167,362.5 236.833,362.5 238.5,362.5C 210.5,391.167 182.167,419.5 153.5,447.5C 153.5,445.833 153.5,444.167 153.5,442.5C 180.5,416.167 207.167,389.5 233.5,362.5 Z"/></g>
<g><path style="opacity:0.022" fill="#43443f" d="M 253.5,362.5 C 255.167,362.5 256.833,362.5 258.5,362.5C 223.833,397.833 188.833,432.833 153.5,467.5C 153.5,465.833 153.5,464.167 153.5,462.5C 187.167,429.5 220.5,396.167 253.5,362.5 Z"/></g>
<g><path style="opacity:0.022" fill="#43443f" d="M 273.5,362.5 C 275.167,362.5 276.833,362.5 278.5,362.5C 229.167,412.167 179.833,461.833 130.5,511.5C 128.833,511.5 127.167,511.5 125.5,511.5C 174.833,461.833 224.167,412.167 273.5,362.5 Z"/></g>
<g><path style="opacity:0.022" fill="#43443f" d="M 13.5,363.5 C 13.5,365.167 13.5,366.833 13.5,368.5C 8.83333,372.833 4.16667,377.167 -0.5,381.5C -0.5,379.833 -0.5,378.167 -0.5,376.5C 4.16667,372.167 8.83333,367.833 13.5,363.5 Z"/></g>
<g><path style="opacity:1" fill="#bd6468" d="M 384.5,405.5 C 383.501,364.337 383.168,323.003 383.5,281.5C 374.833,281.5 366.167,281.5 357.5,281.5C 357.832,323.003 357.499,364.337 356.5,405.5C 356.5,363.833 356.5,322.167 356.5,280.5C 365.833,280.5 375.167,280.5 384.5,280.5C 384.5,322.167 384.5,363.833 384.5,405.5 Z"/></g>
<g><path style="opacity:0.022" fill="#43443f" d="M 511.5,365.5 C 511.5,367.167 511.5,368.833 511.5,370.5C 464.167,417.167 417.167,464.167 370.5,511.5C 368.833,511.5 367.167,511.5 365.5,511.5C 413.833,462.5 462.5,413.833 511.5,365.5 Z"/></g>
<g><path style="opacity:0.022" fill="#43443f" d="M 344.5,372.5 C 344.5,374.167 344.5,375.833 344.5,377.5C 337.167,384.167 330.167,391.167 323.5,398.5C 322.833,398.5 322.5,398.833 322.5,399.5C 321.833,399.5 321.5,399.833 321.5,400.5C 320.833,400.5 320.5,400.833 320.5,401.5C 283.5,437.833 246.833,474.5 210.5,511.5C 208.833,511.5 207.167,511.5 205.5,511.5C 251.5,464.833 297.833,418.5 344.5,372.5 Z"/></g>
<g><path style="opacity:0.022" fill="#43443f" d="M 14.5,382.5 C 14.8333,383.833 15.1667,385.167 15.5,386.5C 10.1667,391.5 4.83333,396.5 -0.5,401.5C -0.5,399.833 -0.5,398.167 -0.5,396.5C 4.5,391.833 9.5,387.167 14.5,382.5 Z"/></g>
<g><path style="opacity:0.022" fill="#43443f" d="M 511.5,385.5 C 511.5,387.167 511.5,388.833 511.5,390.5C 470.833,430.5 430.5,470.833 390.5,511.5C 388.833,511.5 387.167,511.5 385.5,511.5C 427.167,469.167 469.167,427.167 511.5,385.5 Z"/></g>
<g><path style="opacity:0.022" fill="#43443f" d="M 18.5,398.5 C 18.4326,399.959 18.7659,401.292 19.5,402.5C 12.8333,408.833 6.16667,415.167 -0.5,421.5C -0.5,419.833 -0.5,418.167 -0.5,416.5C 5.83333,410.5 12.1667,404.5 18.5,398.5 Z"/></g>
<g><path style="opacity:1" fill="#fdd3bb" d="M 56.5,268.5 C 57.4951,280.322 57.8284,292.322 57.5,304.5C 51.5464,310.732 47.3798,318.065 45,326.5C 42.8929,341.772 41.8929,357.106 42,372.5C 45.713,376.487 49.3797,376.487 53,372.5C 54.0884,358.84 55.0884,345.173 56,331.5C 57.4491,326.601 59.4491,321.935 62,317.5C 71.143,307.521 81.643,299.354 93.5,293C 100.872,291.031 105.039,293.864 106,301.5C 106.102,315.299 100.769,326.632 90,335.5C 89.3333,337.5 89.3333,339.5 90,341.5C 101.552,352.481 107.052,365.981 106.5,382C 106.217,390.603 105.384,399.103 104,407.5C 106.287,411.53 109.454,412.364 113.5,410C 115.266,406.38 116.599,402.546 117.5,398.5C 118.496,398.586 119.329,398.252 120,397.5C 125.418,390.417 128.585,382.417 129.5,373.5C 139.833,373.5 150.167,373.5 160.5,373.5C 161.167,373.5 161.5,373.833 161.5,374.5C 161.5,375.5 161.5,376.5 161.5,377.5C 158.845,378.001 156.678,379.334 155,381.5C 154.077,394.332 149.577,405.666 141.5,415.5C 140.504,430.658 140.17,445.991 140.5,461.5C 107.5,461.5 74.5,461.5 41.5,461.5C 41.8281,449.988 41.4948,438.654 40.5,427.5C 35.3037,412.073 30.8037,396.406 27,380.5C 24.7874,357.126 25.1208,333.792 28,310.5C 28.9344,306.363 30.2678,302.363 32,298.5C 39.9462,288.246 48.1129,278.246 56.5,268.5 Z"/></g>
<g><path style="opacity:0.022" fill="#43443f" d="M 511.5,405.5 C 511.5,407.167 511.5,408.833 511.5,410.5C 477.5,443.833 443.833,477.5 410.5,511.5C 408.833,511.5 407.167,511.5 405.5,511.5C 440.5,475.833 475.833,440.5 511.5,405.5 Z"/></g>
<g><path style="opacity:0.022" fill="#43443f" d="M 323.5,412.5 C 324.833,413.167 325.833,414.167 326.5,415.5C 294.167,447.167 262.167,479.167 230.5,511.5C 228.833,511.5 227.167,511.5 225.5,511.5C 258.167,478.5 290.833,445.5 323.5,412.5 Z"/></g>
<g><path style="opacity:0.022" fill="#444440" d="M 22.5,413.5 C 23.6737,414.514 24.3404,415.847 24.5,417.5C 16.1667,425.5 7.83333,433.5 -0.5,441.5C -0.5,439.833 -0.5,438.167 -0.5,436.5C 7.5,429.167 15.1667,421.5 22.5,413.5 Z"/></g>
<g><path style="opacity:0.022" fill="#43443f" d="M 332.5,424.5 C 333.167,425.5 333.833,426.5 334.5,427.5C 306.167,455.167 278.167,483.167 250.5,511.5C 248.833,511.5 247.167,511.5 245.5,511.5C 274.167,482.167 303.167,453.167 332.5,424.5 Z"/></g>
<g><path style="opacity:0.022" fill="#43443f" d="M 511.5,425.5 C 511.5,427.167 511.5,428.833 511.5,430.5C 484.167,457.167 457.167,484.167 430.5,511.5C 428.833,511.5 427.167,511.5 425.5,511.5C 453.833,482.5 482.5,453.833 511.5,425.5 Z"/></g>
<g><path style="opacity:0.022" fill="#43443f" d="M 27.5,428.5 C 28.4511,429.919 28.7845,431.585 28.5,433.5C 18.8333,442.833 9.16667,452.167 -0.5,461.5C -0.5,459.833 -0.5,458.167 -0.5,456.5C 9.16667,447.5 18.5,438.167 27.5,428.5 Z"/></g>
<g><path style="opacity:0.022" fill="#43433f" d="M 340.5,436.5 C 341.906,436.973 342.573,437.973 342.5,439.5C 318.167,463.167 294.167,487.167 270.5,511.5C 268.833,511.5 267.167,511.5 265.5,511.5C 290.167,486.167 315.167,461.167 340.5,436.5 Z"/></g>
<g><path style="opacity:0.022" fill="#43443f" d="M 511.5,445.5 C 511.5,447.167 511.5,448.833 511.5,450.5C 490.833,470.5 470.5,490.833 450.5,511.5C 448.833,511.5 447.167,511.5 445.5,511.5C 467.167,489.167 489.167,467.167 511.5,445.5 Z"/></g>
<g><path style="opacity:0.022" fill="#43443f" d="M 28.5,448.5 C 28.5,450.167 28.5,451.833 28.5,453.5C 18.8333,462.833 9.16667,472.167 -0.5,481.5C -0.5,479.833 -0.5,478.167 -0.5,476.5C 9.16667,467.167 18.8333,457.833 28.5,448.5 Z"/></g>
<g><path style="opacity:0.022" fill="#444440" d="M 348.5,448.5 C 349.833,449.167 350.833,450.167 351.5,451.5C 330.55,470.782 310.217,490.782 290.5,511.5C 288.833,511.5 287.167,511.5 285.5,511.5C 306.167,490.167 327.167,469.167 348.5,448.5 Z"/></g>
<g><path style="opacity:0.022" fill="#43443f" d="M 356.5,459.5 C 357.401,460.29 358.068,461.29 358.5,462.5C 342.5,478.833 326.5,495.167 310.5,511.5C 308.833,511.5 307.167,511.5 305.5,511.5C 322.5,494.167 339.5,476.833 356.5,459.5 Z"/></g>
<g><path style="opacity:1" fill="#d0b0a1" d="M 141.5,415.5 C 141.5,431.167 141.5,446.833 141.5,462.5C 107.833,462.5 74.1667,462.5 40.5,462.5C 40.5,450.833 40.5,439.167 40.5,427.5C 41.4948,438.654 41.8281,449.988 41.5,461.5C 74.5,461.5 107.5,461.5 140.5,461.5C 140.17,445.991 140.504,430.658 141.5,415.5 Z"/></g>
<g><path style="opacity:0.022" fill="#43443f" d="M 511.5,465.5 C 511.5,467.167 511.5,468.833 511.5,470.5C 497.5,483.833 483.833,497.5 470.5,511.5C 468.833,511.5 467.167,511.5 465.5,511.5C 480.5,495.833 495.833,480.5 511.5,465.5 Z"/></g>
<g><path style="opacity:0.022" fill="#43443f" d="M 28.5,468.5 C 28.4326,469.959 28.7659,471.292 29.5,472.5C 19.5,482.167 9.5,491.833 -0.5,501.5C -0.5,499.833 -0.5,498.167 -0.5,496.5C 9.16667,487.167 18.8333,477.833 28.5,468.5 Z"/></g>
<g><path style="opacity:0.022" fill="#43443f" d="M 364.5,471.5 C 365.5,472.167 366.5,472.833 367.5,473.5C 355.167,486.167 342.833,498.833 330.5,511.5C 328.833,511.5 327.167,511.5 325.5,511.5C 338.5,498.167 351.5,484.833 364.5,471.5 Z"/></g>
<g><path style="opacity:0.022" fill="#43443f" d="M 41.5,474.5 C 43.1667,474.5 44.8333,474.5 46.5,474.5C 34.5,486.833 22.5,499.167 10.5,511.5C 8.83333,511.5 7.16667,511.5 5.5,511.5C 17.5,499.167 29.5,486.833 41.5,474.5 Z"/></g>
<g><path style="opacity:0.022" fill="#43443f" d="M 61.5,474.5 C 63.1667,474.5 64.8333,474.5 66.5,474.5C 54.5,486.833 42.5,499.167 30.5,511.5C 28.8333,511.5 27.1667,511.5 25.5,511.5C 37.5,499.167 49.5,486.833 61.5,474.5 Z"/></g>
<g><path style="opacity:0.022" fill="#43443f" d="M 81.5,474.5 C 83.1667,474.5 84.8333,474.5 86.5,474.5C 74.5,486.833 62.5,499.167 50.5,511.5C 48.8333,511.5 47.1667,511.5 45.5,511.5C 57.5,499.167 69.5,486.833 81.5,474.5 Z"/></g>
<g><path style="opacity:0.022" fill="#43443f" d="M 101.5,474.5 C 103.167,474.5 104.833,474.5 106.5,474.5C 94.5,486.833 82.5,499.167 70.5,511.5C 68.8333,511.5 67.1667,511.5 65.5,511.5C 77.5,499.167 89.5,486.833 101.5,474.5 Z"/></g>
<g><path style="opacity:0.022" fill="#43443f" d="M 121.5,474.5 C 123.167,474.5 124.833,474.5 126.5,474.5C 114.5,486.833 102.5,499.167 90.5,511.5C 88.8333,511.5 87.1667,511.5 85.5,511.5C 97.5,499.167 109.5,486.833 121.5,474.5 Z"/></g>
<g><path style="opacity:0.022" fill="#43443f" d="M 141.5,474.5 C 143.167,474.5 144.833,474.5 146.5,474.5C 134.5,486.833 122.5,499.167 110.5,511.5C 108.833,511.5 107.167,511.5 105.5,511.5C 117.5,499.167 129.5,486.833 141.5,474.5 Z"/></g>
<g><path style="opacity:0.022" fill="#43443f" d="M 511.5,485.5 C 511.5,487.167 511.5,488.833 511.5,490.5C 504.167,497.167 497.167,504.167 490.5,511.5C 488.833,511.5 487.167,511.5 485.5,511.5C 493.833,502.5 502.5,493.833 511.5,485.5 Z"/></g>
<g><path style="opacity:0.022" fill="#43443f" d="M 511.5,505.5 C 511.5,507.167 511.5,508.833 511.5,510.5C 510.833,510.5 510.5,510.833 510.5,511.5C 508.833,511.5 507.167,511.5 505.5,511.5C 507.167,509.167 509.167,507.167 511.5,505.5 Z"/></g>
</svg>
